STARTFONT 2.1
FONT -Baekmuk-Dotum-Medium-R-Normal--16-160-75-75-M-160-ksx1001.1997-0
SIZE 16 75 75
FONTBOUNDINGBOX 16 16 0 -4
STARTPROPERTIES 18
FOUNDRY "Baekmuk"
FAMILY_NAME "Dotum"
WEIGHT_NAME "Medium"
SLANT "R"
SETWIDTH_NAME "Normal"
ADD_STYLE_NAME ""
PIXEL_SIZE 16
POINT_SIZE 160
RESOLUTION_X 75
RESOLUTION_Y 75
SPACING "M"
AVERAGE_WIDTH 160
CHARSET_REGISTRY "ksx1001.1997"
CHARSET_ENCODING "0"
DEFAULT_CHAR 8481
FONT_ASCENT 12
FONT_DESCENT 3
COPYRIGHT "(c)Hwan Design Inc. and Mizi Research Inc."
ENDPROPERTIES
CHARS 8224
STARTCHAR 3000
ENCODING 8481
SWIDTH 1600 0
DWIDTH 16 0
BBX 0 0 0 0
BITMAP
ENDCHAR
STARTCHAR 3001
ENCODING 8482
SWIDTH 1600 0
DWIDTH 16 0
BBX 3 3 7 9
BITMAP
80
40
20
ENDCHAR
STARTCHAR 3002
ENCODING 8483
SWIDTH 1600 0
DWIDTH 16 0
BBX 4 4 6 9
BITMAP
60
90
90
60
ENDCHAR
STARTCHAR 00B7
ENCODING 8484
SWIDTH 1600 0
DWIDTH 16 0
BBX 2 2 7 4
BITMAP
C0
C0
ENDCHAR
STARTCHAR 2025
ENCODING 8485
SWIDTH 1600 0
DWIDTH 16 0
BBX 10 2 3 4
BITMAP
C0C0
C0C0
ENDCHAR
STARTCHAR 2026
ENCODING 8486
SWIDTH 1600 0
DWIDTH 16 0
BBX 12 2 2 4
BITMAP
C630
C630
ENDCHAR
STARTCHAR 00A8
ENCODING 8487
SWIDTH 1600 0
DWIDTH 16 0
BBX 8 2 4 11
BITMAP
C3
C3
ENDCHAR
STARTCHAR 3003
ENCODING 8488
SWIDTH 1600 0
DWIDTH 16 0
BBX 4 4 6 3
BITMAP
50
90
A0
A0
ENDCHAR
STARTCHAR 00AD
ENCODING 8489
SWIDTH 1600 0
DWIDTH 16 0
BBX 7 1 4 4
BITMAP
FE
ENDCHAR
STARTCHAR 2015
ENCODING 8490
SWIDTH 1600 0
DWIDTH 16 0
BBX 16 1 0 4
BITMAP
FFFF
ENDCHAR
STARTCHAR 2225
ENCODING 8491
SWIDTH 1600 0
DWIDTH 16 0
BBX 4 14 6 -2
BITMAP
90
90
90
90
90
90
90
90
90
90
90
90
90
90
ENDCHAR
STARTCHAR FF3C
ENCODING 8492
SWIDTH 1600 0
DWIDTH 16 0
BBX 14 14 1 -2
BITMAP
8000
4000
2000
1000
0800
0400
0200
0100
0080
0040
0020
0010
0008
0004
ENDCHAR
STARTCHAR 223C
ENCODING 8493
SWIDTH 1600 0
DWIDTH 16 0
BBX 10 3 3 3
BITMAP
7800
8C40
0380
ENDCHAR
STARTCHAR 2018
ENCODING 8494
SWIDTH 1600 0
DWIDTH 16 0
BBX 2 3 10 9
BITMAP
80
80
C0
ENDCHAR
STARTCHAR 2019
ENCODING 8495
SWIDTH 1600 0
DWIDTH 16 0
BBX 2 2 4 10
BITMAP
C0
40
ENDCHAR
STARTCHAR 201C
ENCODING 8496
SWIDTH 1600 0
DWIDTH 16 0
BBX 6 3 7 9
BITMAP
48
88
4C
ENDCHAR
STARTCHAR 201D
ENCODING 8497
SWIDTH 1600 0
DWIDTH 16 0
BBX 5 4 3 9
BITMAP
88
C8
48
80
ENDCHAR
STARTCHAR 3014
ENCODING 8498
SWIDTH 1600 0
DWIDTH 16 0
BBX 4 15 11 -3
BITMAP
30
C0
80
80
80
80
80
80
80
80
80
80
80
80
70
ENDCHAR
STARTCHAR 3015
ENCODING 8499
SWIDTH 1600 0
DWIDTH 16 0
BBX 4 15 1 -3
BITMAP
C0
30
10
10
10
10
10
10
10
10
10
10
10
10
E0
ENDCHAR
STARTCHAR 3008
ENCODING 8500
SWIDTH 1600 0
DWIDTH 16 0
BBX 6 15 5 -3
BITMAP
04
08
10
10
20
40
80
80
40
20
20
10
08
08
04
ENDCHAR
STARTCHAR 3009
ENCODING 8501
SWIDTH 1600 0
DWIDTH 16 0
BBX 6 14 5 -2
BITMAP
80
40
40
20
10
08
04
04
08
10
20
40
40
80
ENDCHAR
STARTCHAR 300A
ENCODING 8502
SWIDTH 1600 0
DWIDTH 16 0
BBX 6 14 5 -2
BITMAP
04
18
28
50
50
A0
C0
C0
A0
60
50
30
18
04
ENDCHAR
STARTCHAR 300B
ENCODING 8503
SWIDTH 1600 0
DWIDTH 16 0
BBX 6 14 5 -2
BITMAP
80
A0
60
50
30
18
14
14
18
28
50
60
A0
80
ENDCHAR
STARTCHAR 300C
ENCODING 8504
SWIDTH 1600 0
DWIDTH 16 0
BBX 5 8 9 5
BITMAP
F8
80
80
80
80
80
80
80
ENDCHAR
STARTCHAR 300D
ENCODING 8505
SWIDTH 1600 0
DWIDTH 16 0
BBX 5 8 1 -3
BITMAP
08
08
08
08
08
08
08
F8
ENDCHAR
STARTCHAR 300E
ENCODING 8506
SWIDTH 1600 0
DWIDTH 16 0
BBX 6 8 8 5
BITMAP
FC
FC
C0
C0
C0
C0
C0
C0
ENDCHAR
STARTCHAR 300F
ENCODING 8507
SWIDTH 1600 0
DWIDTH 16 0
BBX 6 8 2 -3
BITMAP
0C
0C
0C
0C
0C
0C
FC
FC
ENDCHAR
STARTCHAR 3010
ENCODING 8508
SWIDTH 1600 0
DWIDTH 16 0
BBX 4 14 10 -2
BITMAP
F0
E0
E0
E0
C0
C0
C0
C0
C0
C0
E0
E0
E0
F0
ENDCHAR
STARTCHAR 3011
ENCODING 8509
SWIDTH 1600 0
DWIDTH 16 0
BBX 4 14 2 -2
BITMAP
F0
70
70
30
30
30
30
30
30
30
70
70
70
F0
ENDCHAR
STARTCHAR 00B1
ENCODING 8510
SWIDTH 1600 0
DWIDTH 16 0
BBX 11 11 2 0
BITMAP
0400
0400
0400
0400
0400
FFE0
0400
0400
0400
0400
7FE0
ENDCHAR
STARTCHAR 00D7
ENCODING 8511
SWIDTH 1600 0
DWIDTH 16 0
BBX 10 10 3 0
BITMAP
8040
4080
2100
1200
0C00
0C00
1200
2100
4080
8040
ENDCHAR
STARTCHAR 00F7
ENCODING 8512
SWIDTH 1600 0
DWIDTH 16 0
BBX 10 10 3 0
BITMAP
0C00
0C00
0000
0000
0000
FFC0
0000
0000
0C00
0C00
ENDCHAR
STARTCHAR 2260
ENCODING 8513
SWIDTH 1600 0
DWIDTH 16 0
BBX 12 8 2 1
BITMAP
0800
0400
FFF0
0400
0400
FFF0
0200
0200
ENDCHAR
STARTCHAR 2264
ENCODING 8514
SWIDTH 1600 0
DWIDTH 16 0
BBX 10 10 3 0
BITMAP
0040
0380
0C00
3000
C000
7000
0E00
01C0
0000
FFC0
ENDCHAR
STARTCHAR 2265
ENCODING 8515
SWIDTH 1600 0
DWIDTH 16 0
BBX 10 10 3 0
BITMAP
8000
6000
1C00
0300
00C0
0380
1C00
6000
0000
FFC0
ENDCHAR
STARTCHAR 221E
ENCODING 8516
SWIDTH 1600 0
DWIDTH 16 0
BBX 14 6 1 2
BITMAP
7878
848C
8304
8304
C48C
3878
ENDCHAR
STARTCHAR 2234
ENCODING 8517
SWIDTH 1600 0
DWIDTH 16 0
BBX 10 8 3 1
BITMAP
0C00
0C00
0000
0000
0000
0000
C0C0
C0C0
ENDCHAR
STARTCHAR 00B0
ENCODING 8518
SWIDTH 1600 0
DWIDTH 16 0
BBX 4 4 6 9
BITMAP
60
90
90
60
ENDCHAR
STARTCHAR 2032
ENCODING 8519
SWIDTH 1600 0
DWIDTH 16 0
BBX 2 3 7 10
BITMAP
40
80
80
ENDCHAR
STARTCHAR 2033
ENCODING 8520
SWIDTH 1600 0
DWIDTH 16 0
BBX 6 4 5 9
BITMAP
64
48
90
10
ENDCHAR
STARTCHAR 2103
ENCODING 8521
SWIDTH 1600 0
DWIDTH 16 0
BBX 11 13 2 0
BITMAP
E000
A000
AFC0
F020
3020
2000
2000
2000
2000
2020
1020
1840
0780
ENDCHAR
STARTCHAR 212B
ENCODING 8522
SWIDTH 1600 0
DWIDTH 16 0
BBX 10 13 3 0
BITMAP
1C00
1400
1800
0800
0C00
1400
1200
2300
2100
7F80
4080
80C0
8040
ENDCHAR
STARTCHAR FFE0
ENCODING 8523
SWIDTH 1600 0
DWIDTH 16 0
BBX 14 14 1 -2
BITMAP
0004
0FC8
1030
1020
2040
2080
2100
2200
2410
1820
1860
2FC0
4000
8000
ENDCHAR
STARTCHAR FFE1
ENCODING 8524
SWIDTH 1600 0
DWIDTH 16 0
BBX 10 11 3 0
BITMAP
0780
0CC0
0840
0800
0800
7F80
0800
0800
7800
8E40
B380
ENDCHAR
STARTCHAR FFE5
ENCODING 8525
SWIDTH 1600 0
DWIDTH 16 0
BBX 9 11 3 0
BITMAP
4080
4100
2200
FF80
1400
0800
FF80
0800
0800
0800
0800
ENDCHAR
STARTCHAR 2642
ENCODING 8526
SWIDTH 1600 0
DWIDTH 16 0
BBX 7 14 4 -2
BITMAP
10
38
54
94
12
10
10
10
28
44
C2
C2
44
7C
ENDCHAR
STARTCHAR 2640
ENCODING 8527
SWIDTH 1600 0
DWIDTH 16 0
BBX 11 14 2 -2
BITMAP
0F00
1100
3080
3080
1100
0E00
0400
0400
FFE0
0400
0400
0400
0400
0400
ENDCHAR
STARTCHAR 2220
ENCODING 8528
SWIDTH 1600 0
DWIDTH 16 0
BBX 10 9 3 0
BITMAP
0080
0100
0200
0400
0800
1000
2000
4000
FFC0
ENDCHAR
STARTCHAR 22A5
ENCODING 8529
SWIDTH 1600 0
DWIDTH 16 0
BBX 11 10 2 0
BITMAP
0400
0400
0400
0400
0400
0400
0400
0400
0400
FFE0
ENDCHAR
STARTCHAR 2312
ENCODING 8530
SWIDTH 1600 0
DWIDTH 16 0
BBX 10 4 3 9
BITMAP
1E00
2180
C040
8000
ENDCHAR
STARTCHAR 2202
ENCODING 8531
SWIDTH 1600 0
DWIDTH 16 0
BBX 7 12 5 -1
BITMAP
1C
22
02
02
02
3A
46
C4
84
8C
88
50
ENDCHAR
STARTCHAR 2207
ENCODING 8532
SWIDTH 1600 0
DWIDTH 16 0
BBX 12 10 2 0
BITMAP
FFF0
8020
8020
4040
2040
2080
1100
0900
0A00
0400
ENDCHAR
STARTCHAR 2261
ENCODING 8533
SWIDTH 1600 0
DWIDTH 16 0
BBX 12 6 2 2
BITMAP
FFF0
0000
0000
FFF0
0000
FFF0
ENDCHAR
STARTCHAR 2252
ENCODING 8534
SWIDTH 1600 0
DWIDTH 16 0
BBX 12 10 2 0
BITMAP
3000
3000
0000
FFF0
0000
0000
FFF0
0000
00C0
00C0
ENDCHAR
STARTCHAR 00A7
ENCODING 8535
SWIDTH 1600 0
DWIDTH 16 0
BBX 6 15 5 -3
BITMAP
78
CC
CC
C0
60
70
88
84
C4
78
38
0C
C4
C4
78
ENDCHAR
STARTCHAR 203B
ENCODING 8536
SWIDTH 1600 0
DWIDTH 16 0
BBX 10 11 3 -1
BITMAP
8040
4C80
2D00
1200
CCC0
C8C0
1C00
3200
6D00
CC80
8040
ENDCHAR
STARTCHAR 2606
ENCODING 8537
SWIDTH 1600 0
DWIDTH 16 0
BBX 12 11 2 -1
BITMAP
0600
0600
0900
F9F0
8020
4040
3080
2080
2480
2B40
70C0
ENDCHAR
STARTCHAR 2605
ENCODING 8538
SWIDTH 1600 0
DWIDTH 16 0
BBX 12 11 2 -1
BITMAP
0600
0600
0600
0F00
FFF0
3FC0
1F80
1F80
1F80
39C0
20C0
ENDCHAR
STARTCHAR 25CB
ENCODING 8539
SWIDTH 1600 0
DWIDTH 16 0
BBX 14 14 1 -2
BITMAP
0FC0
1860
2010
4008
C00C
8004
8004
8004
8004
C00C
4008
2010
1860
0FC0
ENDCHAR
STARTCHAR 25CF
ENCODING 8540
SWIDTH 1600 0
DWIDTH 16 0
BBX 14 13 1 -2
BITMAP
0FC0
1FE0
3FF0
7FF8
7FF8
FFFC
FFFC
FFFC
7FF8
7FF8
3FF0
1FE0
07C0
ENDCHAR
STARTCHAR 25CE
ENCODING 8541
SWIDTH 1600 0
DWIDTH 16 0
BBX 14 14 1 -2
BITMAP
0FC0
1870
2018
4788
D86C
B034
A014
A014
A014
9028
5868
2790
1060
0F80
ENDCHAR
STARTCHAR 25C7
ENCODING 8542
SWIDTH 1600 0
DWIDTH 16 0
BBX 14 14 1 -2
BITMAP
0100
0680
0840
1020
2010
4008
8004
8004
4008
2010
1020
0840
0480
0300
ENDCHAR
STARTCHAR 25C6
ENCODING 8543
SWIDTH 1600 0
DWIDTH 16 0
BBX 14 14 1 -2
BITMAP
0100
0380
0780
0FC0
1FE0
3FF0
7FF8
FFFC
7FF8
3FF0
1FE0
0FC0
0780
0300
ENDCHAR
STARTCHAR 25A1
ENCODING 8544
SWIDTH 1600 0
DWIDTH 16 0
BBX 14 13 1 -2
BITMAP
FFFC
8004
8004
8004
8004
8004
8004
8004
8004
8004
8004
8004
FFFC
ENDCHAR
STARTCHAR 25A0
ENCODING 8545
SWIDTH 1600 0
DWIDTH 16 0
BBX 12 12 2 -1
BITMAP
FFF0
FFF0
FFF0
FFF0
FFF0
FFF0
FFF0
FFF0
FFF0
FFF0
FFF0
FFF0
ENDCHAR
STARTCHAR 25B3
ENCODING 8546
SWIDTH 1600 0
DWIDTH 16 0
BBX 14 11 1 -1
BITMAP
0300
0480
0880
0840
1040
2020
2020
4010
4008
8008
FFFC
ENDCHAR
STARTCHAR 25B2
ENCODING 8547
SWIDTH 1600 0
DWIDTH 16 0
BBX 14 11 1 -1
BITMAP
0300
0380
0780
0FC0
0FC0
1FE0
1FE0
3FF0
7FF8
7FF8
FFFC
ENDCHAR
STARTCHAR 25BD
ENCODING 8548
SWIDTH 1600 0
DWIDTH 16 0
BBX 14 12 1 -1
BITMAP
FFFC
8008
4008
4010
2020
2020
1040
0840
0880
0500
0500
0200
ENDCHAR
STARTCHAR 25BC
ENCODING 8549
SWIDTH 1600 0
DWIDTH 16 0
BBX 14 11 1 0
BITMAP
FFFC
7FF8
7FF8
3FF0
1FE0
1FE0
0FC0
0FC0
0780
0380
0300
ENDCHAR
STARTCHAR 2192
ENCODING 8550
SWIDTH 1600 0
DWIDTH 16 0
BBX 14 6 1 2
BITMAP
0020
0010
000C
FFFC
0010
0020
ENDCHAR
STARTCHAR 2190
ENCODING 8551
SWIDTH 1600 0
DWIDTH 16 0
BBX 14 4 1 2
BITMAP
6000
FFFC
4000
2000
ENDCHAR
STARTCHAR 2191
ENCODING 8552
SWIDTH 1600 0
DWIDTH 16 0
BBX 4 14 5 -2
BITMAP
20
30
70
A0
20
20
20
20
20
20
20
20
20
20
ENDCHAR
STARTCHAR 2193
ENCODING 8553
SWIDTH 1600 0
DWIDTH 16 0
BBX 3 14 7 -2
BITMAP
40
40
40
40
40
40
40
40
40
40
40
E0
E0
40
ENDCHAR
STARTCHAR 2194
ENCODING 8554
SWIDTH 1600 0
DWIDTH 16 0
BBX 13 4 1 3
BITMAP
0010
4008
FFF8
4010
ENDCHAR
STARTCHAR 3013
ENCODING 8555
SWIDTH 1600 0
DWIDTH 16 0
BBX 12 4 2 3
BITMAP
FFF0
0000
0000
FFF0
ENDCHAR
STARTCHAR 226A
ENCODING 8556
SWIDTH 1600 0
DWIDTH 16 0
BBX 11 12 2 -1
BITMAP
0080
0300
0460
1880
2300
C400
8800
6400
1300
0C80
0260
0180
ENDCHAR
STARTCHAR 226B
ENCODING 8557
SWIDTH 1600 0
DWIDTH 16 0
BBX 12 12 2 -1
BITMAP
1000
8C00
6200
1180
0C40
0220
0110
0660
0880
3300
4400
1800
ENDCHAR
STARTCHAR 221A
ENCODING 8558
SWIDTH 1600 0
DWIDTH 16 0
BBX 14 13 1 -1
BITMAP
00FC
0100
0100
0200
0200
0400
0400
0400
4800
C800
3000
3000
3000
ENDCHAR
STARTCHAR 223D
ENCODING 8559
SWIDTH 1600 0
DWIDTH 16 0
BBX 13 6 1 2
BITMAP
3870
C188
8208
8208
4408
38F0
ENDCHAR
STARTCHAR 221D
ENCODING 8560
SWIDTH 1600 0
DWIDTH 16 0
BBX 11 6 2 1
BITMAP
78E0
8500
8200
8200
4500
38E0
ENDCHAR
STARTCHAR 2235
ENCODING 8561
SWIDTH 1600 0
DWIDTH 16 0
BBX 10 8 3 1
BITMAP
C0C0
C0C0
0000
0000
0000
0000
0C00
0C00
ENDCHAR
STARTCHAR 222B
ENCODING 8562
SWIDTH 1600 0
DWIDTH 16 0
BBX 3 14 6 -2
BITMAP
60
80
80
40
40
40
40
20
20
20
20
20
20
60
ENDCHAR
STARTCHAR 222C
ENCODING 8563
SWIDTH 1600 0
DWIDTH 16 0
BBX 7 14 4 -2
BITMAP
62
8C
88
44
44
44
46
22
22
22
22
22
22
46
ENDCHAR
STARTCHAR 2208
ENCODING 8564
SWIDTH 1600 0
DWIDTH 16 0
BBX 12 10 2 -1
BITMAP
1FF0
6000
8000
8000
FFF0
8000
8000
4000
2000
1FE0
ENDCHAR
STARTCHAR 220B
ENCODING 8565
SWIDTH 1600 0
DWIDTH 16 0
BBX 12 9 2 0
BITMAP
FF80
0060
0020
0010
FFF0
0010
0020
0020
00C0
ENDCHAR
STARTCHAR 2286
ENCODING 8566
SWIDTH 1600 0
DWIDTH 16 0
BBX 10 10 3 0
BITMAP
3FC0
4000
8000
8000
8000
8000
4000
3F80
0000
FFC0
ENDCHAR
STARTCHAR 2287
ENCODING 8567
SWIDTH 1600 0
DWIDTH 16 0
BBX 11 10 2 0
BITMAP
FF80
0040
0020
0020
0020
0040
FF80
0000
0000
7FE0
ENDCHAR
STARTCHAR 2282
ENCODING 8568
SWIDTH 1600 0
DWIDTH 16 0
BBX 12 9 2 0
BITMAP
1FF0
6000
8000
8000
8000
8000
8000
6000
3FF0
ENDCHAR
STARTCHAR 2283
ENCODING 8569
SWIDTH 1600 0
DWIDTH 16 0
BBX 12 9 2 0
BITMAP
FF80
0060
0020
0010
0010
0010
0020
0020
FFC0
ENDCHAR
STARTCHAR 222A
ENCODING 8570
SWIDTH 1600 0
DWIDTH 16 0
BBX 10 11 3 -1
BITMAP
8040
8040
8040
8040
8040
8040
8040
8040
8040
4080
3F00
ENDCHAR
STARTCHAR 2229
ENCODING 8571
SWIDTH 1600 0
DWIDTH 16 0
BBX 10 12 3 -1
BITMAP
1E00
6180
C080
8040
8040
8040
8040
8040
8040
8040
8040
8040
ENDCHAR
STARTCHAR 2227
ENCODING 8572
SWIDTH 1600 0
DWIDTH 16 0
BBX 10 9 3 0
BITMAP
0C00
1400
1200
2200
2100
4100
4080
8040
0040
ENDCHAR
STARTCHAR 2228
ENCODING 8573
SWIDTH 1600 0
DWIDTH 16 0
BBX 10 10 3 0
BITMAP
8000
8040
8080
4080
4100
2100
2200
1200
1400
0C00
ENDCHAR
STARTCHAR FFE2
ENCODING 8574
SWIDTH 1600 0
DWIDTH 16 0
BBX 10 6 3 2
BITMAP
FFC0
0040
0040
0040
0040
0040
ENDCHAR
STARTCHAR 21D2
ENCODING 8737
SWIDTH 1600 0
DWIDTH 16 0
BBX 14 8 1 1
BITMAP
0020
0010
FFF8
0004
0004
FFF8
0010
0020
ENDCHAR
STARTCHAR 21D4
ENCODING 8738
SWIDTH 1600 0
DWIDTH 16 0
BBX 13 8 1 1
BITMAP
0800
1020
3FF0
4008
C008
7FF0
2020
1040
ENDCHAR
STARTCHAR 2200
ENCODING 8739
SWIDTH 1600 0
DWIDTH 16 0
BBX 10 11 3 -1
BITMAP
8040
8040
8080
7F80
4100
2100
2200
2200
1400
1400
0C00
ENDCHAR
STARTCHAR 2203
ENCODING 8740
SWIDTH 1600 0
DWIDTH 16 0
BBX 8 12 4 -1
BITMAP
FF
01
01
01
01
01
FF
01
01
01
01
FF
ENDCHAR
STARTCHAR 00B4
ENCODING 8741
SWIDTH 1600 0
DWIDTH 16 0
BBX 2 1 7 12
BITMAP
C0
ENDCHAR
STARTCHAR FF5E
ENCODING 8742
SWIDTH 1600 0
DWIDTH 16 0
BBX 6 3 5 9
BITMAP
E0
7C
1C
ENDCHAR
STARTCHAR 02C7
ENCODING 8743
SWIDTH 1600 0
DWIDTH 16 0
BBX 6 3 5 10
BITMAP
84
78
30
ENDCHAR
STARTCHAR 02D8
ENCODING 8744
SWIDTH 1600 0
DWIDTH 16 0
BBX 6 3 5 10
BITMAP
84
84
78
ENDCHAR
STARTCHAR 02DD
ENCODING 8745
SWIDTH 1600 0
DWIDTH 16 0
BBX 4 2 6 11
BITMAP
90
20
ENDCHAR
STARTCHAR 02DA
ENCODING 8746
SWIDTH 1600 0
DWIDTH 16 0
BBX 3 4 6 9
BITMAP
60
A0
A0
40
ENDCHAR
STARTCHAR 02D9
ENCODING 8747
SWIDTH 1600 0
DWIDTH 16 0
BBX 2 2 7 11
BITMAP
C0
C0
ENDCHAR
STARTCHAR 00B8
ENCODING 8748
SWIDTH 1600 0
DWIDTH 16 0
BBX 1 3 8 -3
BITMAP
80
80
80
ENDCHAR
STARTCHAR 02DB
ENCODING 8749
SWIDTH 1600 0
DWIDTH 16 0
BBX 3 3 6 -3
BITMAP
40
80
60
ENDCHAR
STARTCHAR 00A1
ENCODING 8750
SWIDTH 1600 0
DWIDTH 16 0
BBX 2 12 7 -1
BITMAP
C0
C0
00
00
00
80
80
80
80
C0
C0
C0
ENDCHAR
STARTCHAR 00BF
ENCODING 8751
SWIDTH 1600 0
DWIDTH 16 0
BBX 5 12 6 -1
BITMAP
30
30
00
00
10
10
70
C0
80
80
88
78
ENDCHAR
STARTCHAR 02D0
ENCODING 8752
SWIDTH 1600 0
DWIDTH 16 0
BBX 2 7 7 1
BITMAP
C0
00
00
00
00
80
C0
ENDCHAR
STARTCHAR 222E
ENCODING 8753
SWIDTH 1600 0
DWIDTH 16 0
BBX 5 12 5 -1
BITMAP
08
30
20
20
20
F0
B0
60
20
40
40
80
ENDCHAR
STARTCHAR 2211
ENCODING 8754
SWIDTH 1600 0
DWIDTH 16 0
BBX 13 14 1 -2
BITMAP
FFF8
4018
3018
1808
0C08
0608
0300
0200
0400
0C00
1808
3008
6008
FFF8
ENDCHAR
STARTCHAR 220F
ENCODING 8755
SWIDTH 1600 0
DWIDTH 16 0
BBX 14 14 1 -2
BITMAP
FFFC
3030
3030
3030
3030
3030
3030
3030
3030
3030
3030
3030
3030
FCFC
ENDCHAR
STARTCHAR 00A4
ENCODING 8756
SWIDTH 1600 0
DWIDTH 16 0
BBX 12 12 2 -1
BITMAP
8010
5F20
30C0
4040
4040
4020
4040
4040
4040
20C0
5F20
8010
ENDCHAR
STARTCHAR 2109
ENCODING 8757
SWIDTH 1600 0
DWIDTH 16 0
BBX 12 11 2 0
BITMAP
E7F0
2400
2400
C400
0400
07E0
0400
0400
0400
0400
0400
ENDCHAR
STARTCHAR 2030
ENCODING 8758
SWIDTH 1600 0
DWIDTH 16 0
BBX 14 15 1 -3
BITMAP
7020
8840
8880
8900
8900
8A00
5400
2B18
0CA4
14A4
24A4
44A4
44A4
8528
0210
ENDCHAR
STARTCHAR 25C1
ENCODING 8759
SWIDTH 1600 0
DWIDTH 16 0
BBX 10 13 3 -2
BITMAP
0040
01C0
0640
0840
3040
4040
8040
4040
3040
0840
0640
01C0
0040
ENDCHAR
STARTCHAR 25C0
ENCODING 8760
SWIDTH 1600 0
DWIDTH 16 0
BBX 10 13 3 -2
BITMAP
0040
00C0
03C0
07C0
1FC0
3FC0
FFC0
3FC0
1FC0
07C0
03C0
00C0
0040
ENDCHAR
STARTCHAR 25B7
ENCODING 8761
SWIDTH 1600 0
DWIDTH 16 0
BBX 10 13 3 -2
BITMAP
8000
C000
B000
8800
8600
8180
8040
8180
8200
8C00
9000
E000
8000
ENDCHAR
STARTCHAR 25B6
ENCODING 8762
SWIDTH 1600 0
DWIDTH 16 0
BBX 10 13 3 -2
BITMAP
8000
C000
F000
F800
FE00
FF00
FFC0
FF00
FE00
F800
F000
C000
8000
ENDCHAR
STARTCHAR 2664
ENCODING 8763
SWIDTH 1600 0
DWIDTH 16 0
BBX 12 13 2 -2
BITMAP
0600
0900
1980
10C0
2040
6060
4020
4030
8020
4F40
7780
0B00
0900
ENDCHAR
STARTCHAR 2660
ENCODING 8764
SWIDTH 1600 0
DWIDTH 16 0
BBX 12 13 2 -2
BITMAP
0600
0F00
1F80
3FC0
3FC0
7FE0
7FE0
FFF0
FFF0
7DE0
36C0
0600
0F00
ENDCHAR
STARTCHAR 2661
ENCODING 8765
SWIDTH 1600 0
DWIDTH 16 0
BBX 12 13 2 -2
BITMAP
39C0
4D20
C630
8610
C010
4020
4020
2060
30C0
1080
0900
0F00
0600
ENDCHAR
STARTCHAR 2665
ENCODING 8766
SWIDTH 1600 0
DWIDTH 16 0
BBX 12 14 2 -2
BITMAP
79E0
F9F0
FFF0
FFF0
FFF0
FFF0
FFF0
7FE0
3FC0
3FC0
1F80
0F00
0600
0600
ENDCHAR
STARTCHAR 2667
ENCODING 8767
SWIDTH 1600 0
DWIDTH 16 0
BBX 14 14 1 -2
BITMAP
0780
0CC0
0840
0840
0840
0480
7EF8
4004
8004
8284
46C8
3B30
0480
0780
ENDCHAR
STARTCHAR 2663
ENCODING 8768
SWIDTH 1600 0
DWIDTH 16 0
BBX 14 14 1 -2
BITMAP
0780
0FC0
0FC0
0FC0
0FC0
37A0
7FF8
FFFC
FFFC
FEFC
7B78
0300
0300
0780
ENDCHAR
STARTCHAR 2299
ENCODING 8769
SWIDTH 1600 0
DWIDTH 16 0
BBX 14 13 1 -2
BITMAP
1FC0
2030
4788
9FE8
9FE4
9FE4
9FE4
9FE4
DFEC
4FC8
6018
3870
0FC0
ENDCHAR
STARTCHAR 25C8
ENCODING 8770
SWIDTH 1600 0
DWIDTH 16 0
BBX 14 14 1 -2
BITMAP
0100
0680
0840
1320
2790
4FC8
9FE4
BFF4
5FE8
2FD0
17A0
0B40
0480
0300
ENDCHAR
STARTCHAR 25A3
ENCODING 8771
SWIDTH 1600 0
DWIDTH 16 0
BBX 14 13 1 -2
BITMAP
FFFC
8004
8004
8FC4
8FC4
8FC4
8FC4
8FC4
8FC4
8FC4
8004
8004
FFFC
ENDCHAR
STARTCHAR 25D0
ENCODING 8772
SWIDTH 1600 0
DWIDTH 16 0
BBX 13 13 2 -2
BITMAP
0F80
3C60
7C10
7C10
FC08
FC08
FC08
FC08
FC18
7C10
7C30
3CE0
0F80
ENDCHAR
STARTCHAR 25D1
ENCODING 8773
SWIDTH 1600 0
DWIDTH 16 0
BBX 13 13 1 -2
BITMAP
1F80
21E0
41F0
41F0
81F8
81F8
81F8
81F8
81F8
41F0
61F0
31E0
0F80
ENDCHAR
STARTCHAR 2592
ENCODING 8774
SWIDTH 1600 0
DWIDTH 16 0
BBX 14 13 1 -2
BITMAP
FFFC
A54C
CA94
A54C
CA94
A54C
CA94
A54C
8004
CA94
A54C
CA94
FFFC
ENDCHAR
STARTCHAR 25A4
ENCODING 8775
SWIDTH 1600 0
DWIDTH 16 0
BBX 14 13 1 -2
BITMAP
FFFC
8004
8004
FFFC
8004
8004
FFFC
8004
8004
FFFC
8004
8004
FFFC
ENDCHAR
STARTCHAR 25A5
ENCODING 8776
SWIDTH 1600 0
DWIDTH 16 0
BBX 14 13 1 -2
BITMAP
FFFC
9224
9224
9224
9224
9224
9224
9224
9224
9224
9224
9224
FFFC
ENDCHAR
STARTCHAR 25A8
ENCODING 8777
SWIDTH 1600 0
DWIDTH 16 0
BBX 14 13 1 -2
BITMAP
FFFC
8214
8424
8844
B084
C104
820C
8414
8824
9044
A084
C104
FFFC
ENDCHAR
STARTCHAR 25A7
ENCODING 8778
SWIDTH 1600 0
DWIDTH 16 0
BBX 14 13 1 -2
BITMAP
FFFC
A104
9084
8844
8424
8214
C10C
A084
9044
8824
8414
820C
FFFC
ENDCHAR
STARTCHAR 25A6
ENCODING 8779
SWIDTH 1600 0
DWIDTH 16 0
BBX 13 13 1 -2
BITMAP
FFF8
9228
9228
FFF8
9228
9228
FFF8
9228
9228
FFF8
9228
9228
FFF8
ENDCHAR
STARTCHAR 25A9
ENCODING 8780
SWIDTH 1600 0
DWIDTH 16 0
BBX 14 13 1 -2
BITMAP
FFFC
C514
A8A4
9864
A494
C30C
C30C
A494
9864
9864
A494
C30C
FFFC
ENDCHAR
STARTCHAR 2668
ENCODING 8781
SWIDTH 1600 0
DWIDTH 16 0
BBX 14 13 1 -2
BITMAP
0100
0940
0A40
0AC0
0B40
0940
0D40
0550
6948
8A84
C288
7FF0
1FC0
ENDCHAR
STARTCHAR 260F
ENCODING 8782
SWIDTH 1600 0
DWIDTH 16 0
BBX 14 11 1 -1
BITMAP
3FF0
DFEC
A864
AFE4
5878
3060
3050
5050
4848
4788
3870
ENDCHAR
STARTCHAR 260E
ENCODING 8783
SWIDTH 1600 0
DWIDTH 16 0
BBX 14 10 1 0
BITMAP
3FF0
EFDC
E85C
EFDC
1860
3020
3030
7030
7878
7FF8
ENDCHAR
STARTCHAR 261C
ENCODING 8784
SWIDTH 1600 0
DWIDTH 16 0
BBX 14 7 1 1
BITMAP
FFE4
871C
7B8C
174C
0E8C
0530
02C0
ENDCHAR
STARTCHAR 261E
ENCODING 8785
SWIDTH 1600 0
DWIDTH 16 0
BBX 15 7 0 1
BITMAP
0FFC
F182
C77C
C2A0
C360
31C0
0E80
ENDCHAR
STARTCHAR 00B6
ENCODING 8786
SWIDTH 1600 0
DWIDTH 16 0
BBX 9 14 4 -2
BITMAP
3C80
4480
8480
8480
8480
4480
3C80
0480
0480
0480
0480
0480
0480
0480
ENDCHAR
STARTCHAR 2020
ENCODING 8787
SWIDTH 1600 0
DWIDTH 16 0
BBX 9 14 4 -2
BITMAP
0800
0800
0800
0800
FF80
0800
0800
0800
0800
0800
0800
0800
0800
0800
ENDCHAR
STARTCHAR 2021
ENCODING 8788
SWIDTH 1600 0
DWIDTH 16 0
BBX 9 15 3 -3
BITMAP
0800
0800
FF80
0800
0800
7F00
0800
0800
0800
0800
0800
0800
0800
0800
0800
ENDCHAR
STARTCHAR 2195
ENCODING 8789
SWIDTH 1600 0
DWIDTH 16 0
BBX 4 13 5 -2
BITMAP
20
70
A0
20
20
20
20
20
20
20
A0
70
20
ENDCHAR
STARTCHAR 2197
ENCODING 8790
SWIDTH 1600 0
DWIDTH 16 0
BBX 10 9 3 0
BITMAP
01C0
0140
0240
0440
0800
1000
2000
4000
8000
ENDCHAR
STARTCHAR 2199
ENCODING 8791
SWIDTH 1600 0
DWIDTH 16 0
BBX 10 10 3 0
BITMAP
0040
0080
0100
0200
0400
0800
9000
A000
C000
F000
ENDCHAR
STARTCHAR 2196
ENCODING 8792
SWIDTH 1600 0
DWIDTH 16 0
BBX 10 9 3 0
BITMAP
E000
C000
A000
9000
0800
0400
0200
0100
00C0
ENDCHAR
STARTCHAR 2198
ENCODING 8793
SWIDTH 1600 0
DWIDTH 16 0
BBX 10 10 3 0
BITMAP
8000
4000
2000
1000
0800
0400
0200
0140
00C0
03C0
ENDCHAR
STARTCHAR 266D
ENCODING 8794
SWIDTH 1600 0
DWIDTH 16 0
BBX 5 11 5 -1
BITMAP
80
80
80
80
F8
88
88
88
90
A0
C0
ENDCHAR
STARTCHAR 2669
ENCODING 8795
SWIDTH 1600 0
DWIDTH 16 0
BBX 4 14 6 -2
BITMAP
10
10
10
10
10
10
10
10
10
10
10
30
E0
C0
ENDCHAR
STARTCHAR 266A
ENCODING 8796
SWIDTH 1600 0
DWIDTH 16 0
BBX 8 13 4 -2
BITMAP
18
1C
1E
13
11
11
11
11
12
10
30
E0
C0
ENDCHAR
STARTCHAR 266C
ENCODING 8797
SWIDTH 1600 0
DWIDTH 16 0
BBX 12 11 2 -1
BITMAP
1FF0
1010
1FF0
1010
1010
1010
1010
1010
3070
E0E0
C0C0
ENDCHAR
STARTCHAR 327F
ENCODING 8798
SWIDTH 1600 0
DWIDTH 16 0
BBX 14 13 1 -2
BITMAP
0FC0
1020
28D0
4988
4908
8A00
EF3C
0904
0888
4848
2010
3030
0FC0
ENDCHAR
STARTCHAR 321C
ENCODING 8799
SWIDTH 1600 0
DWIDTH 16 0
BBX 16 13 0 -2
BITMAP
0FF0
6084
4182
8242
8C32
8001
9FFD
8081
8082
8082
4082
4084
2000
ENDCHAR
STARTCHAR 2116
ENCODING 8800
SWIDTH 1600 0
DWIDTH 16 0
BBX 16 11 0 0
BITMAP
8200
C200
C200
A278
A244
9282
9282
8A82
8A82
8644
8279
ENDCHAR
STARTCHAR 33C7
ENCODING 8801
SWIDTH 1600 0
DWIDTH 16 0
BBX 15 13 0 -1
BITMAP
3800
2400
4200
4200
8038
8044
8082
8082
8082
4282
4284
2444
1838
ENDCHAR
STARTCHAR 2122
ENCODING 8802
SWIDTH 1600 0
DWIDTH 16 0
BBX 14 11 1 0
BITMAP
FF04
1184
118C
118C
1194
1194
1154
1154
1154
1164
1124
ENDCHAR
STARTCHAR 33C2
ENCODING 8803
SWIDTH 1600 0
DWIDTH 16 0
BBX 16 8 0 0
BITMAP
70FC
8894
0894
3894
C894
8894
8894
7295
ENDCHAR
STARTCHAR 33D8
ENCODING 8804
SWIDTH 1600 0
DWIDTH 16 0
BBX 14 11 0 -3
BITMAP
B8FC
CCA4
84A4
84A4
84A4
84A4
CCA4
DAA4
A000
8000
8000
ENDCHAR
STARTCHAR 2121
ENCODING 8805
SWIDTH 1600 0
DWIDTH 16 0
BBX 13 12 1 0
BITMAP
0008
FE08
1008
1008
13C8
1228
1428
17E8
1408
1408
1228
11C0
ENDCHAR
STARTCHAR FF01
ENCODING 8993
SWIDTH 1600 0
DWIDTH 16 0
BBX 1 11 7 0
BITMAP
80
80
80
80
80
80
80
80
00
00
80
ENDCHAR
STARTCHAR FF02
ENCODING 8994
SWIDTH 1600 0
DWIDTH 16 0
BBX 6 4 5 9
BITMAP
6C
48
90
90
ENDCHAR
STARTCHAR FF03
ENCODING 8995
SWIDTH 1600 0
DWIDTH 16 0
BBX 10 12 3 0
BITMAP
0080
0080
0900
0900
7FC0
1200
2200
FF80
2400
4400
4400
4800
ENDCHAR
STARTCHAR FF04
ENCODING 8996
SWIDTH 1600 0
DWIDTH 16 0
BBX 7 13 4 -1
BITMAP
10
7C
92
92
90
50
3C
12
12
92
D2
3C
10
ENDCHAR
STARTCHAR FF05
ENCODING 8997
SWIDTH 1600 0
DWIDTH 16 0
BBX 12 11 2 0
BITMAP
7080
8880
8900
8A00
7200
0400
04E0
0910
0910
1110
10E0
ENDCHAR
STARTCHAR FF06
ENCODING 8998
SWIDTH 1600 0
DWIDTH 16 0
BBX 9 11 3 0
BITMAP
3C00
2200
2200
1400
1800
6800
4480
8300
4300
4300
3C80
ENDCHAR
STARTCHAR FF07
ENCODING 8999
SWIDTH 1600 0
DWIDTH 16 0
BBX 2 3 7 10
BITMAP
C0
80
80
ENDCHAR
STARTCHAR FF08
ENCODING 9000
SWIDTH 1600 0
DWIDTH 16 0
BBX 3 12 6 -1
BITMAP
20
40
40
40
80
80
80
80
40
40
40
20
ENDCHAR
STARTCHAR FF09
ENCODING 9001
SWIDTH 1600 0
DWIDTH 16 0
BBX 3 12 7 -1
BITMAP
80
40
40
40
20
20
20
40
40
40
40
80
ENDCHAR
STARTCHAR FF0A
ENCODING 9002
SWIDTH 1600 0
DWIDTH 16 0
BBX 5 6 6 2
BITMAP
20
20
F8
20
50
88
ENDCHAR
STARTCHAR FF0B
ENCODING 9003
SWIDTH 1600 0
DWIDTH 16 0
BBX 11 10 2 0
BITMAP
0400
0400
0400
0400
0400
FFE0
0400
0400
0400
0400
ENDCHAR
STARTCHAR FF0C
ENCODING 9004
SWIDTH 1600 0
DWIDTH 16 0
BBX 1 4 2 -3
BITMAP
80
80
80
80
ENDCHAR
STARTCHAR FF0D
ENCODING 9005
SWIDTH 1600 0
DWIDTH 16 0
BBX 10 1 3 4
BITMAP
FFC0
ENDCHAR
STARTCHAR FF0E
ENCODING 9006
SWIDTH 1600 0
DWIDTH 16 0
BBX 1 1 3 0
BITMAP
80
ENDCHAR
STARTCHAR FF0F
ENCODING 9007
SWIDTH 1600 0
DWIDTH 16 0
BBX 14 14 1 -2
BITMAP
0004
0008
0010
0020
0040
0080
0100
0200
0400
0800
1000
2000
4000
8000
ENDCHAR
STARTCHAR FF10
ENCODING 9008
SWIDTH 1600 0
DWIDTH 16 0
BBX 8 12 4 0
BITMAP
3C
42
42
81
81
81
81
81
81
43
42
3C
ENDCHAR
STARTCHAR FF11
ENCODING 9009
SWIDTH 1600 0
DWIDTH 16 0
BBX 4 11 6 0
BITMAP
10
10
F0
10
10
10
10
10
10
10
10
ENDCHAR
STARTCHAR FF12
ENCODING 9010
SWIDTH 1600 0
DWIDTH 16 0
BBX 8 12 4 0
BITMAP
3C
62
42
41
02
06
0C
18
20
40
40
FF
ENDCHAR
STARTCHAR FF13
ENCODING 9011
SWIDTH 1600 0
DWIDTH 16 0
BBX 8 12 4 -1
BITMAP
3C
42
42
02
02
1C
02
01
81
42
66
18
ENDCHAR
STARTCHAR FF14
ENCODING 9012
SWIDTH 1600 0
DWIDTH 16 0
BBX 8 11 4 0
BITMAP
04
0C
14
14
24
44
44
FF
04
04
04
ENDCHAR
STARTCHAR FF15
ENCODING 9013
SWIDTH 1600 0
DWIDTH 16 0
BBX 7 11 5 0
BITMAP
7C
80
80
80
F8
84
04
02
84
84
78
ENDCHAR
STARTCHAR FF16
ENCODING 9014
SWIDTH 1600 0
DWIDTH 16 0
BBX 8 12 4 0
BITMAP
3C
62
41
80
88
BE
C3
81
81
81
42
3C
ENDCHAR
STARTCHAR FF17
ENCODING 9015
SWIDTH 1600 0
DWIDTH 16 0
BBX 6 11 5 0
BITMAP
FC
04
08
10
10
10
20
20
20
40
40
ENDCHAR
STARTCHAR FF18
ENCODING 9016
SWIDTH 1600 0
DWIDTH 16 0
BBX 8 11 4 0
BITMAP
7C
42
42
46
7C
64
C2
C1
C1
62
3C
ENDCHAR
STARTCHAR FF19
ENCODING 9017
SWIDTH 1600 0
DWIDTH 16 0
BBX 7 11 4 0
BITMAP
78
44
82
82
82
46
3A
02
82
44
38
ENDCHAR
STARTCHAR FF1A
ENCODING 9018
SWIDTH 1600 0
DWIDTH 16 0
BBX 1 8 7 0
BITMAP
80
00
00
00
00
00
00
80
ENDCHAR
STARTCHAR FF1B
ENCODING 9019
SWIDTH 1600 0
DWIDTH 16 0
BBX 1 10 7 -2
BITMAP
80
00
00
00
00
00
00
80
80
80
ENDCHAR
STARTCHAR FF1C
ENCODING 9020
SWIDTH 1600 0
DWIDTH 16 0
BBX 10 11 3 -1
BITMAP
0040
0180
0600
1800
2000
C000
6000
1800
0600
0180
0040
ENDCHAR
STARTCHAR FF1D
ENCODING 9021
SWIDTH 1600 0
DWIDTH 16 0
BBX 12 4 2 3
BITMAP
FFF0
0000
0000
FFF0
ENDCHAR
STARTCHAR FF1E
ENCODING 9022
SWIDTH 1600 0
DWIDTH 16 0
BBX 10 11 3 -1
BITMAP
8000
6000
1800
0600
0100
00C0
0180
0600
1800
6000
8000
ENDCHAR
STARTCHAR FF1F
ENCODING 9023
SWIDTH 1600 0
DWIDTH 16 0
BBX 6 11 5 0
BITMAP
7C
84
84
04
0C
18
10
20
00
00
20
ENDCHAR
STARTCHAR FF20
ENCODING 9024
SWIDTH 1600 0
DWIDTH 16 0
BBX 12 12 2 -1
BITMAP
1F80
30C0
4020
CEB0
9990
9090
9090
9090
59A0
4EC0
3020
0FC0
ENDCHAR
STARTCHAR FF21
ENCODING 9025
SWIDTH 1600 0
DWIDTH 16 0
BBX 9 11 4 0
BITMAP
1800
1800
1C00
2400
2400
6200
4200
7E00
8100
8100
8080
ENDCHAR
STARTCHAR FF22
ENCODING 9026
SWIDTH 1600 0
DWIDTH 16 0
BBX 8 11 4 0
BITMAP
FC
82
81
82
82
FE
83
81
81
83
FE
ENDCHAR
STARTCHAR FF23
ENCODING 9027
SWIDTH 1600 0
DWIDTH 16 0
BBX 10 12 3 0
BITMAP
1E00
6100
4080
80C0
8000
8000
8000
8000
8040
4080
6180
1E00
ENDCHAR
STARTCHAR FF24
ENCODING 9028
SWIDTH 1600 0
DWIDTH 16 0
BBX 9 11 3 0
BITMAP
FE00
8100
8180
8080
8080
8080
8080
8080
8100
8300
FC00
ENDCHAR
STARTCHAR FF25
ENCODING 9029
SWIDTH 1600 0
DWIDTH 16 0
BBX 7 11 4 0
BITMAP
FE
80
80
80
80
FE
80
80
80
80
FE
ENDCHAR
STARTCHAR FF26
ENCODING 9030
SWIDTH 1600 0
DWIDTH 16 0
BBX 7 11 5 0
BITMAP
FE
80
80
80
80
FC
80
80
80
80
80
ENDCHAR
STARTCHAR FF27
ENCODING 9031
SWIDTH 1600 0
DWIDTH 16 0
BBX 10 12 3 0
BITMAP
1E00
2180
4080
C040
8000
8000
87C0
8040
8040
4040
20C0
1F40
ENDCHAR
STARTCHAR FF28
ENCODING 9032
SWIDTH 1600 0
DWIDTH 16 0
BBX 8 11 4 0
BITMAP
81
81
81
81
81
FF
81
81
81
81
81
ENDCHAR
STARTCHAR FF29
ENCODING 9033
SWIDTH 1600 0
DWIDTH 16 0
BBX 1 11 7 0
BITMAP
80
80
80
80
80
80
80
80
80
80
80
ENDCHAR
STARTCHAR FF2A
ENCODING 9034
SWIDTH 1600 0
DWIDTH 16 0
BBX 6 11 5 0
BITMAP
04
04
04
04
04
04
04
84
84
C4
78
ENDCHAR
STARTCHAR FF2B
ENCODING 9035
SWIDTH 1600 0
DWIDTH 16 0
BBX 8 11 4 0
BITMAP
83
86
8C
98
B0
D0
88
84
82
83
81
ENDCHAR
STARTCHAR FF2C
ENCODING 9036
SWIDTH 1600 0
DWIDTH 16 0
BBX 7 11 5 0
BITMAP
80
80
80
80
80
80
80
80
80
80
FE
ENDCHAR
STARTCHAR FF2D
ENCODING 9037
SWIDTH 1600 0
DWIDTH 16 0
BBX 10 11 3 0
BITMAP
C040
C0C0
C0C0
A140
A140
A140
9240
9240
8C40
8C40
8C40
ENDCHAR
STARTCHAR FF2E
ENCODING 9038
SWIDTH 1600 0
DWIDTH 16 0
BBX 8 11 4 0
BITMAP
C1
C1
A1
A1
91
91
89
85
85
83
81
ENDCHAR
STARTCHAR FF2F
ENCODING 9039
SWIDTH 1600 0
DWIDTH 16 0
BBX 10 11 3 0
BITMAP
3F00
4080
80C0
8040
8040
8040
8040
8040
8080
4180
3F00
ENDCHAR
STARTCHAR FF30
ENCODING 9040
SWIDTH 1600 0
DWIDTH 16 0
BBX 8 11 4 0
BITMAP
FE
82
81
81
82
FE
80
80
80
80
80
ENDCHAR
STARTCHAR FF31
ENCODING 9041
SWIDTH 1600 0
DWIDTH 16 0
BBX 10 13 3 -1
BITMAP
1E00
2100
4080
8040
8040
8040
8040
8040
8040
4280
6180
3F80
0040
ENDCHAR
STARTCHAR FF32
ENCODING 9042
SWIDTH 1600 0
DWIDTH 16 0
BBX 8 11 4 0
BITMAP
FE
83
81
81
83
FC
82
82
81
81
81
ENDCHAR
STARTCHAR FF33
ENCODING 9043
SWIDTH 1600 0
DWIDTH 16 0
BBX 8 12 4 0
BITMAP
3C
C6
82
80
C0
38
06
01
81
81
42
3C
ENDCHAR
STARTCHAR FF34
ENCODING 9044
SWIDTH 1600 0
DWIDTH 16 0
BBX 9 11 3 0
BITMAP
FF80
0800
0800
0800
0800
0800
0800
0800
0800
0800
0800
ENDCHAR
STARTCHAR FF35
ENCODING 9045
SWIDTH 1600 0
DWIDTH 16 0
BBX 8 11 4 0
BITMAP
81
81
81
81
81
81
81
81
81
42
3C
ENDCHAR
STARTCHAR FF36
ENCODING 9046
SWIDTH 1600 0
DWIDTH 16 0
BBX 8 11 4 0
BITMAP
81
81
81
42
42
64
24
24
38
18
18
ENDCHAR
STARTCHAR FF37
ENCODING 9047
SWIDTH 1600 0
DWIDTH 16 0
BBX 14 11 1 0
BITMAP
8304
4308
4308
4508
4490
2490
2490
2850
2860
1860
1060
ENDCHAR
STARTCHAR FF38
ENCODING 9048
SWIDTH 1600 0
DWIDTH 16 0
BBX 8 11 4 0
BITMAP
81
42
24
24
18
18
18
24
42
42
81
ENDCHAR
STARTCHAR FF39
ENCODING 9049
SWIDTH 1600 0
DWIDTH 16 0
BBX 8 11 4 0
BITMAP
81
82
44
44
28
10
10
10
10
10
10
ENDCHAR
STARTCHAR FF3A
ENCODING 9050
SWIDTH 1600 0
DWIDTH 16 0
BBX 8 11 4 0
BITMAP
FF
01
02
04
08
10
10
20
40
80
FF
ENDCHAR
STARTCHAR FF3B
ENCODING 9051
SWIDTH 1600 0
DWIDTH 16 0
BBX 4 15 6 -3
BITMAP
E0
80
80
80
80
80
80
80
80
80
80
80
80
80
F0
ENDCHAR
STARTCHAR FFE6
ENCODING 9052
SWIDTH 1600 0
DWIDTH 16 0
BBX 16 11 0 0
BITMAP
4186
2184
2184
FFFF
2244
1248
FFFF
1448
1430
0C30
0C30
ENDCHAR
STARTCHAR FF3D
ENCODING 9053
SWIDTH 1600 0
DWIDTH 16 0
BBX 3 15 7 -3
BITMAP
E0
20
20
20
20
20
20
20
20
20
20
20
20
20
E0
ENDCHAR
STARTCHAR FF3E
ENCODING 9054
SWIDTH 1600 0
DWIDTH 16 0
BBX 4 2 6 10
BITMAP
60
90
ENDCHAR
STARTCHAR FF3F
ENCODING 9055
SWIDTH 1600 0
DWIDTH 16 0
BBX 16 1 0 -3
BITMAP
FFFF
ENDCHAR
STARTCHAR FF40
ENCODING 9056
SWIDTH 1600 0
DWIDTH 16 0
BBX 3 4 6 9
BITMAP
C0
40
40
20
ENDCHAR
STARTCHAR FF41
ENCODING 9057
SWIDTH 1600 0
DWIDTH 16 0
BBX 8 8 4 0
BITMAP
3C
44
42
0E
72
82
86
7B
ENDCHAR
STARTCHAR FF42
ENCODING 9058
SWIDTH 1600 0
DWIDTH 16 0
BBX 8 11 4 0
BITMAP
80
80
80
BC
C2
C1
C1
C1
C1
C2
BC
ENDCHAR
STARTCHAR FF43
ENCODING 9059
SWIDTH 1600 0
DWIDTH 16 0
BBX 7 8 4 0
BITMAP
3C
42
42
80
80
42
42
3C
ENDCHAR
STARTCHAR FF44
ENCODING 9060
SWIDTH 1600 0
DWIDTH 16 0
BBX 7 11 5 0
BITMAP
02
02
02
7A
86
82
82
82
82
86
7A
ENDCHAR
STARTCHAR FF45
ENCODING 9061
SWIDTH 1600 0
DWIDTH 16 0
BBX 8 8 4 0
BITMAP
3C
42
82
7F
80
42
42
3C
ENDCHAR
STARTCHAR FF46
ENCODING 9062
SWIDTH 1600 0
DWIDTH 16 0
BBX 3 11 6 0
BITMAP
60
40
40
E0
40
40
40
40
40
40
40
ENDCHAR
STARTCHAR FF47
ENCODING 9063
SWIDTH 1600 0
DWIDTH 16 0
BBX 8 11 4 -3
BITMAP
3D
43
81
81
81
81
43
3D
41
42
3C
ENDCHAR
STARTCHAR FF48
ENCODING 9064
SWIDTH 1600 0
DWIDTH 16 0
BBX 6 11 5 0
BITMAP
80
80
80
F8
C4
84
84
84
84
84
84
ENDCHAR
STARTCHAR FF49
ENCODING 9065
SWIDTH 1600 0
DWIDTH 16 0
BBX 1 11 8 0
BITMAP
80
00
00
80
80
80
80
80
80
80
80
ENDCHAR
STARTCHAR FF4A
ENCODING 9066
SWIDTH 1600 0
DWIDTH 16 0
BBX 2 14 7 -3
BITMAP
40
00
00
40
40
40
40
40
40
40
40
40
40
C0
ENDCHAR
STARTCHAR FF4B
ENCODING 9067
SWIDTH 1600 0
DWIDTH 16 0
BBX 6 11 5 0
BITMAP
80
80
80
8C
98
A0
E0
90
88
8C
84
ENDCHAR
STARTCHAR FF4C
ENCODING 9068
SWIDTH 1600 0
DWIDTH 16 0
BBX 1 11 8 0
BITMAP
80
80
80
80
80
80
80
80
80
80
80
ENDCHAR
STARTCHAR FF4D
ENCODING 9069
SWIDTH 1600 0
DWIDTH 16 0
BBX 10 8 3 0
BITMAP
BB80
CC40
8840
8840
8840
8840
8840
8840
ENDCHAR
STARTCHAR FF4E
ENCODING 9070
SWIDTH 1600 0
DWIDTH 16 0
BBX 6 8 5 0
BITMAP
B8
C4
84
84
84
84
84
84
ENDCHAR
STARTCHAR FF4F
ENCODING 9071
SWIDTH 1600 0
DWIDTH 16 0
BBX 8 8 4 0
BITMAP
3C
42
81
81
81
81
42
3C
ENDCHAR
STARTCHAR FF50
ENCODING 9072
SWIDTH 1600 0
DWIDTH 16 0
BBX 8 11 4 -3
BITMAP
BC
C2
81
81
81
81
C2
BE
80
80
80
ENDCHAR
STARTCHAR FF51
ENCODING 9073
SWIDTH 1600 0
DWIDTH 16 0
BBX 7 11 5 -3
BITMAP
7A
86
82
82
82
82
86
7A
02
02
02
ENDCHAR
STARTCHAR FF52
ENCODING 9074
SWIDTH 1600 0
DWIDTH 16 0
BBX 4 8 6 0
BITMAP
B0
C0
80
80
80
80
80
80
ENDCHAR
STARTCHAR FF53
ENCODING 9075
SWIDTH 1600 0
DWIDTH 16 0
BBX 6 8 5 0
BITMAP
78
84
80
40
3C
04
84
7C
ENDCHAR
STARTCHAR FF54
ENCODING 9076
SWIDTH 1600 0
DWIDTH 16 0
BBX 3 10 6 0
BITMAP
40
40
E0
40
40
40
40
40
40
60
ENDCHAR
STARTCHAR FF55
ENCODING 9077
SWIDTH 1600 0
DWIDTH 16 0
BBX 6 8 5 0
BITMAP
84
84
84
84
84
84
8C
74
ENDCHAR
STARTCHAR FF56
ENCODING 9078
SWIDTH 1600 0
DWIDTH 16 0
BBX 6 8 5 0
BITMAP
84
84
84
48
48
50
30
30
ENDCHAR
STARTCHAR FF57
ENCODING 9079
SWIDTH 1600 0
DWIDTH 16 0
BBX 10 8 3 0
BITMAP
8C40
8C40
8C40
5480
5280
5280
6300
2100
ENDCHAR
STARTCHAR FF58
ENCODING 9080
SWIDTH 1600 0
DWIDTH 16 0
BBX 6 8 5 0
BITMAP
84
48
50
30
30
48
48
84
ENDCHAR
STARTCHAR FF59
ENCODING 9081
SWIDTH 1600 0
DWIDTH 16 0
BBX 6 11 5 -3
BITMAP
84
84
84
48
48
30
30
30
20
20
C0
ENDCHAR
STARTCHAR FF5A
ENCODING 9082
SWIDTH 1600 0
DWIDTH 16 0
BBX 6 8 5 0
BITMAP
FC
08
08
10
20
40
80
FC
ENDCHAR
STARTCHAR FF5B
ENCODING 9083
SWIDTH 1600 0
DWIDTH 16 0
BBX 3 15 6 -2
BITMAP
20
20
20
20
20
20
40
40
C0
40
20
20
20
20
20
ENDCHAR
STARTCHAR FF5C
ENCODING 9084
SWIDTH 1600 0
DWIDTH 16 0
BBX 1 15 8 -3
BITMAP
80
80
80
80
80
80
80
80
80
80
80
80
80
80
80
ENDCHAR
STARTCHAR FF5D
ENCODING 9085
SWIDTH 1600 0
DWIDTH 16 0
BBX 3 16 6 -3
BITMAP
80
40
40
40
40
40
40
20
40
40
40
40
40
40
40
80
ENDCHAR
STARTCHAR FFE3
ENCODING 9086
SWIDTH 1600 0
DWIDTH 16 0
BBX 6 1 5 12
BITMAP
FC
ENDCHAR
STARTCHAR 3131
ENCODING 9249
SWIDTH 1600 0
DWIDTH 16 0
BBX 10 8 3 1
BITMAP
FFC0
0040
0040
0040
0040
0040
0040
0040
ENDCHAR
STARTCHAR 3132
ENCODING 9250
SWIDTH 1600 0
DWIDTH 16 0
BBX 12 8 2 0
BITMAP
F9F0
0810
0810
0810
0810
0810
0810
0010
ENDCHAR
STARTCHAR 3133
ENCODING 9251
SWIDTH 1600 0
DWIDTH 16 0
BBX 12 8 2 1
BITMAP
F880
0880
0880
0880
0940
0940
0A20
0A10
ENDCHAR
STARTCHAR 3134
ENCODING 9252
SWIDTH 1600 0
DWIDTH 16 0
BBX 10 7 3 2
BITMAP
8000
8000
8000
8000
8000
8000
FFC0
ENDCHAR
STARTCHAR 3135
ENCODING 9253
SWIDTH 1600 0
DWIDTH 16 0
BBX 12 8 2 1
BITMAP
83F0
8080
8080
80C0
8140
8120
8220
F410
ENDCHAR
STARTCHAR 3136
ENCODING 9254
SWIDTH 1600 0
DWIDTH 16 0
BBX 12 9 2 0
BITMAP
81C0
8000
87F0
8000
81C0
8220
8220
9A20
61C0
ENDCHAR
STARTCHAR 3137
ENCODING 9255
SWIDTH 1600 0
DWIDTH 16 0
BBX 10 7 3 2
BITMAP
FFC0
8000
8000
8000
8000
8000
FFC0
ENDCHAR
STARTCHAR 3138
ENCODING 9256
SWIDTH 1600 0
DWIDTH 16 0
BBX 12 8 2 1
BITMAP
FBE0
8200
8200
8200
8200
8200
FA00
03F0
ENDCHAR
STARTCHAR 3139
ENCODING 9257
SWIDTH 1600 0
DWIDTH 16 0
BBX 11 8 2 1
BITMAP
FFC0
0040
0040
7FC0
4000
4000
4000
7FE0
ENDCHAR
STARTCHAR 313A
ENCODING 9258
SWIDTH 1600 0
DWIDTH 16 0
BBX 12 8 2 1
BITMAP
F9F0
0810
0810
0810
F810
8010
8410
F810
ENDCHAR
STARTCHAR 313B
ENCODING 9259
SWIDTH 1600 0
DWIDTH 16 0
BBX 12 9 2 0
BITMAP
F9F0
0910
0910
F910
8110
8110
8110
F9F0
0100
ENDCHAR
STARTCHAR 313C
ENCODING 9260
SWIDTH 1600 0
DWIDTH 16 0
BBX 12 9 2 0
BITMAP
F910
0910
0910
09F0
F910
8110
8110
81F0
F800
ENDCHAR
STARTCHAR 313D
ENCODING 9261
SWIDTH 1600 0
DWIDTH 16 0
BBX 12 9 2 0
BITMAP
F880
0880
0880
0880
F940
8140
8220
8210
F800
ENDCHAR
STARTCHAR 313E
ENCODING 9262
SWIDTH 1600 0
DWIDTH 16 0
BBX 12 9 2 0
BITMAP
F9F0
0900
0900
0900
F9F0
8100
8100
8100
FDF0
ENDCHAR
STARTCHAR 313F
ENCODING 9263
SWIDTH 1600 0
DWIDTH 16 0
BBX 12 8 2 1
BITMAP
FBF0
0800
0820
F920
8140
8140
8940
F7F0
ENDCHAR
STARTCHAR 3140
ENCODING 9264
SWIDTH 1600 0
DWIDTH 16 0
BBX 13 9 1 0
BITMAP
F8E0
0800
0BF8
0800
78F0
4108
4108
4108
7CF0
ENDCHAR
STARTCHAR 3141
ENCODING 9265
SWIDTH 1600 0
DWIDTH 16 0
BBX 10 9 3 0
BITMAP
FFC0
8040
8040
8040
8040
8040
8040
FFC0
8000
ENDCHAR
STARTCHAR 3142
ENCODING 9266
SWIDTH 1600 0
DWIDTH 16 0
BBX 10 8 3 1
BITMAP
8040
8040
8040
FFC0
8040
8040
8040
FFC0
ENDCHAR
STARTCHAR 3143
ENCODING 9267
SWIDTH 1600 0
DWIDTH 16 0
BBX 12 8 2 1
BITMAP
8110
8910
8910
F9F0
8910
8910
8910
F9F0
ENDCHAR
STARTCHAR 3144
ENCODING 9268
SWIDTH 1600 0
DWIDTH 16 0
BBX 12 8 2 1
BITMAP
8880
8880
8880
F880
8940
8940
8A20
FC10
ENDCHAR
STARTCHAR 3145
ENCODING 9269
SWIDTH 1600 0
DWIDTH 16 0
BBX 12 8 2 0
BITMAP
0400
0600
0600
0A00
0900
1080
6060
8010
ENDCHAR
STARTCHAR 3146
ENCODING 9270
SWIDTH 1600 0
DWIDTH 16 0
BBX 10 8 3 1
BITMAP
2100
2100
2100
2100
5280
4A80
8440
0800
ENDCHAR
STARTCHAR 3147
ENCODING 9271
SWIDTH 1600 0
DWIDTH 16 0
BBX 10 8 3 1
BITMAP
3F00
4080
8040
8040
8040
8040
4080
3F00
ENDCHAR
STARTCHAR 3148
ENCODING 9272
SWIDTH 1600 0
DWIDTH 16 0
BBX 11 8 2 1
BITMAP
7FE0
0400
0600
0600
0900
1080
2040
C020
ENDCHAR
STARTCHAR 3149
ENCODING 9273
SWIDTH 1600 0
DWIDTH 16 0
BBX 10 8 3 1
BITMAP
F7C0
2100
2100
2100
5280
4A80
8440
0800
ENDCHAR
STARTCHAR 314A
ENCODING 9274
SWIDTH 1600 0
DWIDTH 16 0
BBX 10 9 3 1
BITMAP
3F00
0000
0000
FFC0
0C00
0C00
1200
2180
C040
ENDCHAR
STARTCHAR 314B
ENCODING 9275
SWIDTH 1600 0
DWIDTH 16 0
BBX 10 8 3 1
BITMAP
FFC0
0040
0040
0040
FE40
0040
0040
0080
ENDCHAR
STARTCHAR 314C
ENCODING 9276
SWIDTH 1600 0
DWIDTH 16 0
BBX 10 8 3 1
BITMAP
FFC0
8000
8000
8000
FFC0
8000
8000
FFC0
ENDCHAR
STARTCHAR 314D
ENCODING 9277
SWIDTH 1600 0
DWIDTH 16 0
BBX 10 8 3 1
BITMAP
FFC0
0000
0000
2100
2100
2100
2100
FFC0
ENDCHAR
STARTCHAR 314E
ENCODING 9278
SWIDTH 1600 0
DWIDTH 16 0
BBX 10 10 3 0
BITMAP
3F00
0000
FFC0
0000
3F00
6180
4080
4080
6180
3F00
ENDCHAR
STARTCHAR 314F
ENCODING 9279
SWIDTH 1600 0
DWIDTH 16 0
BBX 5 14 6 -2
BITMAP
80
80
80
80
80
80
80
F8
80
80
80
80
80
80
ENDCHAR
STARTCHAR 3150
ENCODING 9280
SWIDTH 1600 0
DWIDTH 16 0
BBX 6 14 5 -2
BITMAP
84
84
84
84
84
84
FC
84
84
84
84
84
84
04
ENDCHAR
STARTCHAR 3151
ENCODING 9281
SWIDTH 1600 0
DWIDTH 16 0
BBX 5 14 6 -2
BITMAP
80
80
80
80
80
F8
80
80
80
F8
80
80
80
80
ENDCHAR
STARTCHAR 3152
ENCODING 9282
SWIDTH 1600 0
DWIDTH 16 0
BBX 6 14 5 -2
BITMAP
84
84
84
84
FC
84
84
84
FC
84
84
84
84
04
ENDCHAR
STARTCHAR 3153
ENCODING 9283
SWIDTH 1600 0
DWIDTH 16 0
BBX 6 14 5 -2
BITMAP
04
04
04
04
04
04
FC
04
04
04
04
04
04
04
ENDCHAR
STARTCHAR 3154
ENCODING 9284
SWIDTH 1600 0
DWIDTH 16 0
BBX 8 14 4 -2
BITMAP
01
09
09
09
09
09
F9
09
09
09
09
09
09
01
ENDCHAR
STARTCHAR 3155
ENCODING 9285
SWIDTH 1600 0
DWIDTH 16 0
BBX 6 14 5 -2
BITMAP
04
04
04
04
FC
04
04
04
04
FC
04
04
04
04
ENDCHAR
STARTCHAR 3156
ENCODING 9286
SWIDTH 1600 0
DWIDTH 16 0
BBX 8 14 4 -2
BITMAP
09
09
09
09
F9
09
09
09
09
F9
09
09
09
09
ENDCHAR
STARTCHAR 3157
ENCODING 9287
SWIDTH 1600 0
DWIDTH 16 0
BBX 13 8 1 1
BITMAP
0200
0200
0200
0200
0200
0200
0200
FFF8
ENDCHAR
STARTCHAR 3158
ENCODING 9288
SWIDTH 1600 0
DWIDTH 16 0
BBX 14 14 1 -2
BITMAP
0020
0020
0020
0820
0820
0820
0820
083C
0820
FFE0
0020
0020
0020
0020
ENDCHAR
STARTCHAR 3159
ENCODING 9289
SWIDTH 1600 0
DWIDTH 16 0
BBX 11 14 3 -2
BITMAP
0020
0120
0120
0120
2120
2120
2120
21E0
2120
7F20
8120
0120
0120
0020
ENDCHAR
STARTCHAR 315A
ENCODING 9290
SWIDTH 1600 0
DWIDTH 16 0
BBX 11 14 3 -2
BITMAP
0020
0020
0020
0820
0820
0820
0820
0820
0820
0FE0
F020
0020
0020
0020
ENDCHAR
STARTCHAR 315B
ENCODING 9291
SWIDTH 1600 0
DWIDTH 16 0
BBX 13 7 1 2
BITMAP
1840
0840
0840
0840
0840
0840
FFF8
ENDCHAR
STARTCHAR 315C
ENCODING 9292
SWIDTH 1600 0
DWIDTH 16 0
BBX 13 10 2 -2
BITMAP
FFF8
0200
0200
0200
0200
0200
0200
0200
0200
0200
ENDCHAR
STARTCHAR 315D
ENCODING 9293
SWIDTH 1600 0
DWIDTH 16 0
BBX 11 14 3 -2
BITMAP
0020
0020
0020
0020
FFA0
0820
0820
09E0
0820
0820
0820
0820
0820
0020
ENDCHAR
STARTCHAR 315E
ENCODING 9294
SWIDTH 1600 0
DWIDTH 16 0
BBX 12 14 2 -2
BITMAP
0010
0090
0090
0090
FE90
1090
1090
1790
1090
1090
1090
1090
0090
0090
ENDCHAR
STARTCHAR 315F
ENCODING 9295
SWIDTH 1600 0
DWIDTH 16 0
BBX 12 14 2 -2
BITMAP
0010
0010
0010
0010
03F0
FC10
0410
0410
0410
0410
0410
0410
0010
0010
ENDCHAR
STARTCHAR 3160
ENCODING 9296
SWIDTH 1600 0
DWIDTH 16 0
BBX 14 10 1 -2
BITMAP
FFFC
0840
0840
0840
0840
0840
0840
0840
0840
0840
ENDCHAR
STARTCHAR 3161
ENCODING 9297
SWIDTH 1600 0
DWIDTH 16 0
BBX 14 1 1 4
BITMAP
FFFC
ENDCHAR
STARTCHAR 3162
ENCODING 9298
SWIDTH 1600 0
DWIDTH 16 0
BBX 10 14 4 -2
BITMAP
0040
0040
0040
0040
0040
0040
0040
00C0
7F40
8040
0040
0040
0040
0040
ENDCHAR
STARTCHAR 3163
ENCODING 9299
SWIDTH 1600 0
DWIDTH 16 0
BBX 1 14 7 -2
BITMAP
80
80
80
80
80
80
80
80
80
80
80
80
80
80
ENDCHAR
STARTCHAR 3164
ENCODING 9300
SWIDTH 1600 0
DWIDTH 16 0
BBX 0 0 0 0
BITMAP
ENDCHAR
STARTCHAR 3165
ENCODING 9301
SWIDTH 1600 0
DWIDTH 16 0
BBX 12 8 2 1
BITMAP
8200
8200
8200
8200
8200
8200
8200
FBF0
ENDCHAR
STARTCHAR 3166
ENCODING 9302
SWIDTH 1600 0
DWIDTH 16 0
BBX 12 8 2 1
BITMAP
83F0
8200
8200
8200
8200
8200
8A00
F3F0
ENDCHAR
STARTCHAR 3167
ENCODING 9303
SWIDTH 1600 0
DWIDTH 16 0
BBX 12 8 2 1
BITMAP
8080
8080
8080
8080
8140
8140
8220
FC10
ENDCHAR
STARTCHAR 3168
ENCODING 9304
SWIDTH 1600 0
DWIDTH 16 0
BBX 12 8 2 1
BITMAP
8000
8080
8180
8140
8240
8220
8C20
77F0
ENDCHAR
STARTCHAR 3169
ENCODING 9305
SWIDTH 1600 0
DWIDTH 16 0
BBX 13 8 1 1
BITMAP
F720
1120
1120
7120
4130
4130
4148
7D40
ENDCHAR
STARTCHAR 316A
ENCODING 9306
SWIDTH 1600 0
DWIDTH 16 0
BBX 12 8 2 1
BITMAP
F9F0
0900
0900
0900
F900
8100
8100
F9F0
ENDCHAR
STARTCHAR 316B
ENCODING 9307
SWIDTH 1600 0
DWIDTH 16 0
BBX 13 8 2 1
BITMAP
E920
2920
2920
EF20
8920
8950
8950
FF88
ENDCHAR
STARTCHAR 316C
ENCODING 9308
SWIDTH 1600 0
DWIDTH 16 0
BBX 12 8 2 1
BITMAP
F840
08C0
08C0
F920
8120
8120
8210
FBF0
ENDCHAR
STARTCHAR 316D
ENCODING 9309
SWIDTH 1600 0
DWIDTH 16 0
BBX 12 8 2 1
BITMAP
FBF0
0800
08C0
FB20
8210
8210
8330
F9E0
ENDCHAR
STARTCHAR 316E
ENCODING 9310
SWIDTH 1600 0
DWIDTH 16 0
BBX 12 9 2 0
BITMAP
0010
F910
8910
89F0
8910
8910
8910
F9F0
8000
ENDCHAR
STARTCHAR 316F
ENCODING 9311
SWIDTH 1600 0
DWIDTH 16 0
BBX 12 9 2 0
BITMAP
0080
F880
8880
8880
8940
8920
8A10
F800
8000
ENDCHAR
STARTCHAR 3170
ENCODING 9312
SWIDTH 1600 0
DWIDTH 16 0
BBX 12 8 2 0
BITMAP
F8C0
88C0
8940
8920
8920
8A10
FBF0
8000
ENDCHAR
STARTCHAR 3171
ENCODING 9313
SWIDTH 1600 0
DWIDTH 16 0
BBX 8 11 4 -1
BITMAP
FF
81
81
81
FF
3C
42
81
82
42
3C
ENDCHAR
STARTCHAR 3172
ENCODING 9314
SWIDTH 1600 0
DWIDTH 16 0
BBX 12 8 2 1
BITMAP
05F0
8410
8410
FC10
8410
8410
8410
FC10
ENDCHAR
STARTCHAR 3173
ENCODING 9315
SWIDTH 1600 0
DWIDTH 16 0
BBX 13 8 2 1
BITMAP
0800
89F0
8900
F900
8900
8900
8900
F9F8
ENDCHAR
STARTCHAR 3174
ENCODING 9316
SWIDTH 1600 0
DWIDTH 16 0
BBX 12 8 2 1
BITMAP
12F0
9210
9210
F210
9310
9510
9490
F850
ENDCHAR
STARTCHAR 3175
ENCODING 9317
SWIDTH 1600 0
DWIDTH 16 0
BBX 12 8 2 1
BITMAP
A4F0
A480
A480
E480
AC80
AA80
AA80
F1F0
ENDCHAR
STARTCHAR 3176
ENCODING 9318
SWIDTH 1600 0
DWIDTH 16 0
BBX 12 8 2 1
BITMAP
03F0
8880
88C0
F8C0
88C0
8920
8A30
FC10
ENDCHAR
STARTCHAR 3177
ENCODING 9319
SWIDTH 1600 0
DWIDTH 16 0
BBX 13 8 2 1
BITMAP
01F0
8900
8900
F9F0
8900
8900
8900
F9F8
ENDCHAR
STARTCHAR 3178
ENCODING 9320
SWIDTH 1600 0
DWIDTH 16 0
BBX 8 13 4 -2
BITMAP
81
81
FF
81
81
FF
00
7E
C3
81
81
C2
3C
ENDCHAR
STARTCHAR 3179
ENCODING 9321
SWIDTH 1600 0
DWIDTH 16 0
BBX 10 14 3 -2
BITMAP
8240
9240
F3C0
9240
9240
9240
F3C0
0000
3F00
6180
4080
4080
4080
3300
ENDCHAR
STARTCHAR 317A
ENCODING 9322
SWIDTH 1600 0
DWIDTH 16 0
BBX 12 8 2 1
BITMAP
13F0
1010
1010
1010
2810
4410
4610
8210
ENDCHAR
STARTCHAR 317B
ENCODING 9323
SWIDTH 1600 0
DWIDTH 16 0
BBX 13 8 2 1
BITMAP
2100
2100
2100
3100
3100
4900
8900
05F8
ENDCHAR
STARTCHAR 317C
ENCODING 9324
SWIDTH 1600 0
DWIDTH 16 0
BBX 13 8 2 1
BITMAP
21F8
2100
2100
3100
5100
5100
8900
85F8
ENDCHAR
STARTCHAR 317D
ENCODING 9325
SWIDTH 1600 0
DWIDTH 16 0
BBX 12 8 2 1
BITMAP
2000
2110
2110
21F0
3110
5110
4910
85F0
ENDCHAR
STARTCHAR 317E
ENCODING 9326
SWIDTH 1600 0
DWIDTH 16 0
BBX 13 8 1 1
BITMAP
10F8
1020
1020
1020
2850
2850
4488
8100
ENDCHAR
STARTCHAR 317F
ENCODING 9327
SWIDTH 1600 0
DWIDTH 16 0
BBX 10 8 3 1
BITMAP
0800
1400
1200
2200
2100
4080
4080
FFC0
ENDCHAR
STARTCHAR 3180
ENCODING 9328
SWIDTH 1600 0
DWIDTH 16 0
BBX 14 9 1 0
BITMAP
3870
4488
4488
8308
8304
8508
4488
6888
1070
ENDCHAR
STARTCHAR 3181
ENCODING 9329
SWIDTH 1600 0
DWIDTH 16 0
BBX 8 8 4 1
BITMAP
10
10
6E
81
81
81
43
3C
ENDCHAR
STARTCHAR 3182
ENCODING 9330
SWIDTH 1600 0
DWIDTH 16 0
BBX 13 9 1 1
BITMAP
1000
3020
4840
8420
8460
8460
8490
4888
3908
ENDCHAR
STARTCHAR 3183
ENCODING 9331
SWIDTH 1600 0
DWIDTH 16 0
BBX 12 8 2 1
BITMAP
2000
5080
8940
8940
8920
8A20
DA10
73F0
ENDCHAR
STARTCHAR 3184
ENCODING 9332
SWIDTH 1600 0
DWIDTH 16 0
BBX 10 13 3 -2
BITMAP
FFC0
0000
2100
2100
2200
FFC0
0000
3F00
6180
4080
4080
6180
1E00
ENDCHAR
STARTCHAR 3185
ENCODING 9333
SWIDTH 1600 0
DWIDTH 16 0
BBX 14 9 1 0
BITMAP
3870
0000
FFFC
0000
3870
4488
4488
4488
3870
ENDCHAR
STARTCHAR 3186
ENCODING 9334
SWIDTH 1600 0
DWIDTH 16 0
BBX 14 10 1 -1
BITMAP
FFFC
0000
0000
07C0
0C60
0820
0820
0820
0C60
07C0
ENDCHAR
STARTCHAR 3187
ENCODING 9335
SWIDTH 1600 0
DWIDTH 16 0
BBX 14 14 1 -2
BITMAP
0020
0020
0020
1220
1220
123C
1220
1220
1220
1FFC
E020
0020
0020
0020
ENDCHAR
STARTCHAR 3188
ENCODING 9336
SWIDTH 1600 0
DWIDTH 16 0
BBX 11 14 3 -2
BITMAP
0100
0120
0120
0120
49E0
4920
4920
4920
49E0
FF20
0120
0120
0120
0020
ENDCHAR
STARTCHAR 3189
ENCODING 9337
SWIDTH 1600 0
DWIDTH 16 0
BBX 11 13 2 -2
BITMAP
0020
0020
1120
1120
1120
1120
1120
1120
FFE0
0020
0020
0020
0020
ENDCHAR
STARTCHAR 318A
ENCODING 9338
SWIDTH 1600 0
DWIDTH 16 0
BBX 12 13 2 -2
BITMAP
0010
0010
0010
FF10
1210
1270
1210
1210
1270
1210
1210
0010
0010
ENDCHAR
STARTCHAR 318B
ENCODING 9339
SWIDTH 1600 0
DWIDTH 16 0
BBX 11 13 3 -2
BITMAP
00A0
00A0
00A0
1CA0
E8A0
4BA0
48A0
48A0
4BA0
48A0
40A0
00A0
0020
ENDCHAR
STARTCHAR 318C
ENCODING 9340
SWIDTH 1600 0
DWIDTH 16 0
BBX 12 13 2 -2
BITMAP
0010
0010
0010
0010
FFF0
1110
1110
1110
1110
1110
1110
0010
0010
ENDCHAR
STARTCHAR 318D
ENCODING 9341
SWIDTH 1600 0
DWIDTH 16 0
BBX 3 3 7 3
BITMAP
E0
E0
E0
ENDCHAR
STARTCHAR 318E
ENCODING 9342
SWIDTH 1600 0
DWIDTH 16 0
BBX 8 13 4 -2
BITMAP
01
01
01
01
01
C1
C1
01
01
01
01
01
01
ENDCHAR
STARTCHAR 2170
ENCODING 9505
SWIDTH 1600 0
DWIDTH 16 0
BBX 2 11 7 0
BITMAP
C0
C0
00
00
80
80
80
80
80
80
80
ENDCHAR
STARTCHAR 2171
ENCODING 9506
SWIDTH 1600 0
DWIDTH 16 0
BBX 6 11 5 0
BITMAP
CC
CC
00
00
84
84
84
84
84
84
84
ENDCHAR
STARTCHAR 2172
ENCODING 9507
SWIDTH 1600 0
DWIDTH 16 0
BBX 10 11 3 0
BITMAP
CCC0
CCC0
0000
0000
4480
4480
4480
4480
4480
4480
4480
ENDCHAR
STARTCHAR 2173
ENCODING 9508
SWIDTH 1600 0
DWIDTH 16 0
BBX 9 11 3 0
BITMAP
C000
C000
0000
0000
4880
4880
4880
4500
4500
4200
4200
ENDCHAR
STARTCHAR 2174
ENCODING 9509
SWIDTH 1600 0
DWIDTH 16 0
BBX 6 7 5 1
BITMAP
84
84
48
48
48
30
30
ENDCHAR
STARTCHAR 2175
ENCODING 9510
SWIDTH 1600 0
DWIDTH 16 0
BBX 9 12 4 0
BITMAP
0180
0180
0000
0000
0000
8100
9100
9100
A100
6100
6100
0100
ENDCHAR
STARTCHAR 2176
ENCODING 9511
SWIDTH 1600 0
DWIDTH 16 0
BBX 11 11 3 0
BITMAP
0360
0360
0000
0000
1240
9240
9240
A240
6240
6240
0240
ENDCHAR
STARTCHAR 2177
ENCODING 9512
SWIDTH 1600 0
DWIDTH 16 0
BBX 13 11 2 0
BITMAP
02D8
02D8
0000
0000
8A50
9250
9250
5250
6250
6250
0250
ENDCHAR
STARTCHAR 2178
ENCODING 9513
SWIDTH 1600 0
DWIDTH 16 0
BBX 9 11 3 0
BITMAP
C000
C000
0000
0000
4880
4580
4500
4200
4500
4500
4880
ENDCHAR
STARTCHAR 2179
ENCODING 9514
SWIDTH 1600 0
DWIDTH 16 0
BBX 6 7 5 0
BITMAP
84
48
30
30
30
48
84
ENDCHAR
STARTCHAR 2160
ENCODING 9520
SWIDTH 1600 0
DWIDTH 16 0
BBX 1 11 7 0
BITMAP
80
80
80
80
80
80
80
80
80
80
80
ENDCHAR
STARTCHAR 2161
ENCODING 9521
SWIDTH 1600 0
DWIDTH 16 0
BBX 6 11 5 0
BITMAP
84
84
84
84
84
84
84
84
84
84
84
ENDCHAR
STARTCHAR 2162
ENCODING 9522
SWIDTH 1600 0
DWIDTH 16 0
BBX 10 11 3 0
BITMAP
8440
8440
8440
8440
8440
8440
8440
8440
8440
8440
8440
ENDCHAR
STARTCHAR 2163
ENCODING 9523
SWIDTH 1600 0
DWIDTH 16 0
BBX 10 11 3 0
BITMAP
9040
9080
8880
8880
8900
8900
8500
8500
8600
8200
8200
ENDCHAR
STARTCHAR 2164
ENCODING 9524
SWIDTH 1600 0
DWIDTH 16 0
BBX 6 10 5 1
BITMAP
84
84
84
48
48
48
48
30
30
30
ENDCHAR
STARTCHAR 2165
ENCODING 9525
SWIDTH 1600 0
DWIDTH 16 0
BBX 10 11 3 0
BITMAP
8240
4240
4440
4440
2440
2440
2840
2840
1840
1040
1040
ENDCHAR
STARTCHAR 2166
ENCODING 9526
SWIDTH 1600 0
DWIDTH 16 0
BBX 12 11 2 0
BITMAP
8290
4490
4490
4490
4490
2890
2890
2890
3090
1090
1090
ENDCHAR
STARTCHAR 2167
ENCODING 9527
SWIDTH 1600 0
DWIDTH 16 0
BBX 12 11 2 0
BITMAP
8A50
8A50
8A50
9250
9250
5250
5250
6250
2250
2250
2250
ENDCHAR
STARTCHAR 2168
ENCODING 9528
SWIDTH 1600 0
DWIDTH 16 0
BBX 9 11 3 0
BITMAP
8880
8880
8500
8500
8600
8200
8500
8500
8D00
8880
8880
ENDCHAR
STARTCHAR 2169
ENCODING 9529
SWIDTH 1600 0
DWIDTH 16 0
BBX 6 11 5 0
BITMAP
84
C8
48
50
30
30
30
58
48
C8
84
ENDCHAR
STARTCHAR 0391
ENCODING 9537
SWIDTH 1600 0
DWIDTH 16 0
BBX 10 11 3 0
BITMAP
0180
0280
0280
0480
0840
1040
1040
3FC0
4040
4040
8040
ENDCHAR
STARTCHAR 0392
ENCODING 9538
SWIDTH 1600 0
DWIDTH 16 0
BBX 10 11 3 0
BITMAP
1F80
1040
1040
3040
2080
3F00
6180
4080
4080
4100
FE00
ENDCHAR
STARTCHAR 0393
ENCODING 9539
SWIDTH 1600 0
DWIDTH 16 0
BBX 10 11 3 0
BITMAP
0FC0
1000
1000
1000
2000
2000
2000
4000
4000
4000
8000
ENDCHAR
STARTCHAR 0394
ENCODING 9540
SWIDTH 1600 0
DWIDTH 16 0
BBX 10 11 4 0
BITMAP
0180
0380
0580
0980
1080
10C0
20C0
40C0
80C0
80C0
FFC0
ENDCHAR
STARTCHAR 0395
ENCODING 9541
SWIDTH 1600 0
DWIDTH 16 0
BBX 10 11 3 0
BITMAP
1FC0
1000
1000
2000
2000
3F00
6000
4000
4000
8000
FE00
ENDCHAR
STARTCHAR 0396
ENCODING 9542
SWIDTH 1600 0
DWIDTH 16 0
BBX 10 11 3 0
BITMAP
3FC0
0040
0080
0100
0600
0C00
1000
2000
4000
8000
FF00
ENDCHAR
STARTCHAR 0397
ENCODING 9543
SWIDTH 1600 0
DWIDTH 16 0
BBX 12 11 2 0
BITMAP
1010
1020
1020
1020
2040
3FC0
2040
4040
4080
4080
8080
ENDCHAR
STARTCHAR 0398
ENCODING 9544
SWIDTH 1600 0
DWIDTH 16 0
BBX 10 11 3 0
BITMAP
1F80
2080
6040
4040
4040
9F40
8080
8080
8180
4100
3E00
ENDCHAR
STARTCHAR 0399
ENCODING 9545
SWIDTH 1600 0
DWIDTH 16 0
BBX 4 11 6 0
BITMAP
10
10
20
20
20
40
40
40
40
80
80
ENDCHAR
STARTCHAR 039A
ENCODING 9546
SWIDTH 1600 0
DWIDTH 16 0
BBX 10 11 3 0
BITMAP
1040
1180
2200
2C00
3000
5000
4800
4800
8400
8200
8100
ENDCHAR
STARTCHAR 039B
ENCODING 9547
SWIDTH 1600 0
DWIDTH 16 0
BBX 10 11 3 0
BITMAP
0300
0300
0500
0880
0880
1080
2080
2080
4040
8040
8040
ENDCHAR
STARTCHAR 039C
ENCODING 9548
SWIDTH 1600 0
DWIDTH 16 0
BBX 15 11 0 0
BITMAP
1C06
1C0A
1C0A
2C14
2424
2424
4448
4488
4688
8710
8610
ENDCHAR
STARTCHAR 039D
ENCODING 9549
SWIDTH 1600 0
DWIDTH 16 0
BBX 12 11 2 0
BITMAP
1810
1810
1420
2420
2420
2440
4240
4240
4280
8180
8180
ENDCHAR
STARTCHAR 039E
ENCODING 9550
SWIDTH 1600 0
DWIDTH 16 0
BBX 10 11 3 0
BITMAP
1FC0
0000
0000
0000
0000
3F00
0000
0000
0000
0000
FE00
ENDCHAR
STARTCHAR 039F
ENCODING 9551
SWIDTH 1600 0
DWIDTH 16 0
BBX 10 11 3 0
BITMAP
1F80
2080
6040
4040
4040
8040
8080
8080
8180
4100
3E00
ENDCHAR
STARTCHAR 03A0
ENCODING 9552
SWIDTH 1600 0
DWIDTH 16 0
BBX 12 11 2 0
BITMAP
0FF0
1020
1020
1020
2040
2040
2040
4080
4080
4080
C180
ENDCHAR
STARTCHAR 03A1
ENCODING 9553
SWIDTH 1600 0
DWIDTH 16 0
BBX 10 11 3 0
BITMAP
1F80
1040
2040
2040
2080
3F00
4000
4000
4000
8000
8000
ENDCHAR
STARTCHAR 03A3
ENCODING 9554
SWIDTH 1600 0
DWIDTH 16 0
BBX 10 11 3 0
BITMAP
1FC0
1000
0800
0800
0400
0400
0800
1000
2000
C000
FE00
ENDCHAR
STARTCHAR 03A4
ENCODING 9555
SWIDTH 1600 0
DWIDTH 16 0
BBX 8 11 4 0
BITMAP
FF
10
10
10
10
20
20
20
40
40
40
ENDCHAR
STARTCHAR 03A5
ENCODING 9556
SWIDTH 1600 0
DWIDTH 16 0
BBX 9 11 3 0
BITMAP
8080
4080
4100
2200
2400
2800
1000
1000
2000
2000
2000
ENDCHAR
STARTCHAR 03A6
ENCODING 9557
SWIDTH 1600 0
DWIDTH 16 0
BBX 12 11 2 0
BITMAP
0100
0FC0
3220
4220
4210
8420
8420
4460
48C0
3F00
0800
ENDCHAR
STARTCHAR 03A7
ENCODING 9558
SWIDTH 1600 0
DWIDTH 16 0
BBX 10 11 3 0
BITMAP
2040
2080
1100
1A00
0E00
0C00
1C00
3200
2200
4100
8100
ENDCHAR
STARTCHAR 03A8
ENCODING 9559
SWIDTH 1600 0
DWIDTH 16 0
BBX 12 11 2 0
BITMAP
4230
4220
8420
8420
8440
8840
C880
3F00
1000
1000
1000
ENDCHAR
STARTCHAR 03A9
ENCODING 9560
SWIDTH 1600 0
DWIDTH 16 0
BBX 11 12 3 0
BITMAP
0300
1CC0
2040
2020
4020
4040
4040
40C0
2180
3700
1400
E780
ENDCHAR
STARTCHAR 03B1
ENCODING 9569
SWIDTH 1600 0
DWIDTH 16 0
BBX 8 8 4 0
BITMAP
1D
25
42
82
82
84
84
7C
ENDCHAR
STARTCHAR 03B2
ENCODING 9570
SWIDTH 1600 0
DWIDTH 16 0
BBX 9 14 4 -3
BITMAP
0700
1880
1080
1180
2F00
2200
2100
4100
4100
4100
7E00
8000
8000
8000
ENDCHAR
STARTCHAR 03B3
ENCODING 9571
SWIDTH 1600 0
DWIDTH 16 0
BBX 6 11 5 -3
BITMAP
04
84
88
90
90
A0
C0
40
C0
80
80
ENDCHAR
STARTCHAR 03B4
ENCODING 9572
SWIDTH 1600 0
DWIDTH 16 0
BBX 9 12 3 -1
BITMAP
0F80
0C00
0400
0200
3D00
4100
4100
4100
8300
4200
7C00
1000
ENDCHAR
STARTCHAR 03B5
ENCODING 9573
SWIDTH 1600 0
DWIDTH 16 0
BBX 6 8 5 0
BITMAP
3C
40
40
38
40
80
80
F8
ENDCHAR
STARTCHAR 03B6
ENCODING 9574
SWIDTH 1600 0
DWIDTH 16 0
BBX 8 15 4 -4
BITMAP
1F
02
04
08
10
20
60
40
80
80
C0
38
08
10
20
ENDCHAR
STARTCHAR 03B7
ENCODING 9575
SWIDTH 1600 0
DWIDTH 16 0
BBX 8 8 4 0
BITMAP
26
39
21
41
42
42
82
82
ENDCHAR
STARTCHAR 03B8
ENCODING 9576
SWIDTH 1600 0
DWIDTH 16 0
BBX 8 12 4 -1
BITMAP
0E
11
21
41
41
7F
82
82
84
84
48
30
ENDCHAR
STARTCHAR 03B9
ENCODING 9577
SWIDTH 1600 0
DWIDTH 16 0
BBX 4 8 6 0
BITMAP
10
20
20
20
40
40
40
80
ENDCHAR
STARTCHAR 03BA
ENCODING 9578
SWIDTH 1600 0
DWIDTH 16 0
BBX 8 8 4 0
BITMAP
23
24
48
50
70
48
88
84
ENDCHAR
STARTCHAR 03BB
ENCODING 9579
SWIDTH 1600 0
DWIDTH 16 0
BBX 6 11 5 0
BITMAP
08
08
08
08
0C
14
24
24
44
84
84
ENDCHAR
STARTCHAR 03BC
ENCODING 9580
SWIDTH 1600 0
DWIDTH 16 0
BBX 10 11 3 -3
BITMAP
1040
1080
1080
2080
2100
2100
2300
5D00
4000
4000
8000
ENDCHAR
STARTCHAR 03BD
ENCODING 9581
SWIDTH 1600 0
DWIDTH 16 0
BBX 7 8 4 0
BITMAP
82
C2
44
44
48
50
50
60
ENDCHAR
STARTCHAR 03BE
ENCODING 9582
SWIDTH 1600 0
DWIDTH 16 0
BBX 8 14 4 -3
BITMAP
1F
08
10
10
18
3C
40
80
80
80
70
18
08
70
ENDCHAR
STARTCHAR 03BF
ENCODING 9583
SWIDTH 1600 0
DWIDTH 16 0
BBX 8 8 4 0
BITMAP
1E
23
41
41
82
82
84
78
ENDCHAR
STARTCHAR 03C0
ENCODING 9584
SWIDTH 1600 0
DWIDTH 16 0
BBX 8 8 4 0
BITMAP
3F
21
62
42
42
42
84
84
ENDCHAR
STARTCHAR 03C1
ENCODING 9585
SWIDTH 1600 0
DWIDTH 16 0
BBX 8 11 4 -3
BITMAP
0E
11
21
21
21
41
62
7C
80
80
80
ENDCHAR
STARTCHAR 03C3
ENCODING 9586
SWIDTH 1600 0
DWIDTH 16 0
BBX 8 9 4 -1
BITMAP
3F
62
42
82
82
84
84
58
20
ENDCHAR
STARTCHAR 03C4
ENCODING 9587
SWIDTH 1600 0
DWIDTH 16 0
BBX 6 8 5 0
BITMAP
FC
20
20
20
40
40
40
C0
ENDCHAR
STARTCHAR 03C5
ENCODING 9588
SWIDTH 1600 0
DWIDTH 16 0
BBX 8 8 4 0
BITMAP
21
42
42
42
84
84
84
78
ENDCHAR
STARTCHAR 03C6
ENCODING 9589
SWIDTH 1600 0
DWIDTH 16 0
BBX 10 11 3 -3
BITMAP
1380
2440
4440
4480
8880
8880
4900
3E00
1000
1000
1000
ENDCHAR
STARTCHAR 03C7
ENCODING 9590
SWIDTH 1600 0
DWIDTH 16 0
BBX 8 8 4 0
BITMAP
21
32
14
18
18
24
44
86
ENDCHAR
STARTCHAR 03C8
ENCODING 9591
SWIDTH 1600 0
DWIDTH 16 0
BBX 10 11 3 -3
BITMAP
4440
4480
8880
8880
8880
9100
9100
FE00
1000
2000
2000
ENDCHAR
STARTCHAR 03C9
ENCODING 9592
SWIDTH 1600 0
DWIDTH 16 0
BBX 10 8 3 0
BITMAP
2080
2040
4440
4440
8880
8880
5980
6600
ENDCHAR
STARTCHAR 2500
ENCODING 9761
SWIDTH 1600 0
DWIDTH 16 0
BBX 16 1 0 4
BITMAP
FFFF
ENDCHAR
STARTCHAR 2502
ENCODING 9762
SWIDTH 1600 0
DWIDTH 16 0
BBX 1 16 7 -3
BITMAP
80
80
80
80
80
80
80
80
80
80
80
80
80
80
80
80
ENDCHAR
STARTCHAR 250C
ENCODING 9763
SWIDTH 1600 0
DWIDTH 16 0
BBX 9 8 4 -3
BITMAP
FF80
8000
8000
8000
8000
8000
8000
8000
ENDCHAR
STARTCHAR 2510
ENCODING 9764
SWIDTH 1600 0
DWIDTH 16 0
BBX 9 8 3 -3
BITMAP
FF80
0080
0080
0080
0080
0080
0080
0080
ENDCHAR
STARTCHAR 2518
ENCODING 9765
SWIDTH 1600 0
DWIDTH 16 0
BBX 9 9 3 4
BITMAP
0080
0080
0080
0080
0080
0080
0080
0080
FF80
ENDCHAR
STARTCHAR 2514
ENCODING 9766
SWIDTH 1600 0
DWIDTH 16 0
BBX 9 9 4 4
BITMAP
8000
8000
8000
8000
8000
8000
8000
8000
FF80
ENDCHAR
STARTCHAR 251C
ENCODING 9767
SWIDTH 1600 0
DWIDTH 16 0
BBX 9 16 4 -3
BITMAP
8000
8000
8000
8000
8000
8000
8000
8000
FF80
8000
8000
8000
8000
8000
8000
8000
ENDCHAR
STARTCHAR 252C
ENCODING 9768
SWIDTH 1600 0
DWIDTH 16 0
BBX 17 8 -1 -3
BITMAP
FFFF80
008000
008000
008000
008000
008000
008000
008000
ENDCHAR
STARTCHAR 2524
ENCODING 9769
SWIDTH 1600 0
DWIDTH 16 0
BBX 9 16 3 -3
BITMAP
0080
0080
0080
0080
0080
0080
0080
0080
FF80
0080
0080
0080
0080
0080
0080
0080
ENDCHAR
STARTCHAR 2534
ENCODING 9770
SWIDTH 1600 0
DWIDTH 16 0
BBX 17 9 -1 4
BITMAP
008000
008000
008000
008000
008000
008000
008000
008000
FFFF80
ENDCHAR
STARTCHAR 253C
ENCODING 9771
SWIDTH 1600 0
DWIDTH 16 0
BBX 17 16 -1 -3
BITMAP
008000
008000
008000
008000
008000
008000
008000
008000
FFFF80
008000
008000
008000
008000
008000
008000
008000
ENDCHAR
STARTCHAR 2501
ENCODING 9772
SWIDTH 1600 0
DWIDTH 16 0
BBX 16 1 0 4
BITMAP
FFFF
ENDCHAR
STARTCHAR 2503
ENCODING 9773
SWIDTH 1600 0
DWIDTH 16 0
BBX 1 16 7 -3
BITMAP
80
80
80
80
80
80
80
80
80
80
80
80
80
80
80
80
ENDCHAR
STARTCHAR 250F
ENCODING 9774
SWIDTH 1600 0
DWIDTH 16 0
BBX 8 8 4 -3
BITMAP
FF
80
80
80
80
80
80
80
ENDCHAR
STARTCHAR 2513
ENCODING 9775
SWIDTH 1600 0
DWIDTH 16 0
BBX 8 8 4 -3
BITMAP
FF
01
01
01
01
01
01
01
ENDCHAR
STARTCHAR 251B
ENCODING 9776
SWIDTH 1600 0
DWIDTH 16 0
BBX 8 9 4 4
BITMAP
01
01
01
01
01
01
01
01
FF
ENDCHAR
STARTCHAR 2517
ENCODING 9777
SWIDTH 1600 0
DWIDTH 16 0
BBX 8 9 4 4
BITMAP
80
80
80
80
80
80
80
80
FF
ENDCHAR
STARTCHAR 2523
ENCODING 9778
SWIDTH 1600 0
DWIDTH 16 0
BBX 8 16 4 -3
BITMAP
80
80
80
80
80
80
80
80
FF
80
80
80
80
80
80
80
ENDCHAR
STARTCHAR 2533
ENCODING 9779
SWIDTH 1600 0
DWIDTH 16 0
BBX 15 8 0 -3
BITMAP
FFFE
0100
0100
0100
0100
0100
0100
0100
ENDCHAR
STARTCHAR 252B
ENCODING 9780
SWIDTH 1600 0
DWIDTH 16 0
BBX 8 16 4 -3
BITMAP
01
01
01
01
01
01
01
01
FF
01
01
01
01
01
01
01
ENDCHAR
STARTCHAR 253B
ENCODING 9781
SWIDTH 1600 0
DWIDTH 16 0
BBX 15 9 1 4
BITMAP
0100
0100
0100
0100
0100
0100
0100
0100
FFFE
ENDCHAR
STARTCHAR 254B
ENCODING 9782
SWIDTH 1600 0
DWIDTH 16 0
BBX 15 16 1 -3
BITMAP
0100
0100
0100
0100
0100
0100
0100
0100
FFFE
0100
0100
0100
0100
0100
0100
0100
ENDCHAR
STARTCHAR 2520
ENCODING 9783
SWIDTH 1600 0
DWIDTH 16 0
BBX 8 16 4 -3
BITMAP
80
80
80
80
80
80
80
80
FF
80
80
80
80
80
80
80
ENDCHAR
STARTCHAR 252F
ENCODING 9784
SWIDTH 1600 0
DWIDTH 16 0
BBX 17 8 -1 -3
BITMAP
FFFF80
008000
008000
008000
008000
008000
008000
008000
ENDCHAR
STARTCHAR 2528
ENCODING 9785
SWIDTH 1600 0
DWIDTH 16 0
BBX 9 16 3 -3
BITMAP
0080
0080
0080
0080
0080
0080
0080
0080
FF80
0080
0080
0080
0080
0080
0080
0080
ENDCHAR
STARTCHAR 2537
ENCODING 9786
SWIDTH 1600 0
DWIDTH 16 0
BBX 17 9 -1 4
BITMAP
008000
008000
008000
008000
008000
008000
008000
008000
FFFF80
ENDCHAR
STARTCHAR 253F
ENCODING 9787
SWIDTH 1600 0
DWIDTH 16 0
BBX 17 16 -1 -3
BITMAP
008000
008000
008000
008000
008000
008000
008000
008000
FFFF80
008000
008000
008000
008000
008000
008000
008000
ENDCHAR
STARTCHAR 251D
ENCODING 9788
SWIDTH 1600 0
DWIDTH 16 0
BBX 9 16 4 -3
BITMAP
8000
8000
8000
8000
8000
8000
8000
8000
FF80
8000
8000
8000
8000
8000
8000
8000
ENDCHAR
STARTCHAR 2530
ENCODING 9789
SWIDTH 1600 0
DWIDTH 16 0
BBX 15 8 0 -3
BITMAP
FFFE
0100
0100
0100
0100
0100
0100
0100
ENDCHAR
STARTCHAR 2525
ENCODING 9790
SWIDTH 1600 0
DWIDTH 16 0
BBX 9 16 3 -3
BITMAP
0080
0080
0080
0080
0080
0080
0080
0080
FF80
0080
0080
0080
0080
0080
0080
0080
ENDCHAR
STARTCHAR 2538
ENCODING 9791
SWIDTH 1600 0
DWIDTH 16 0
BBX 15 9 0 4
BITMAP
0100
0100
0100
0100
0100
0100
0100
0100
FFFE
ENDCHAR
STARTCHAR 2542
ENCODING 9792
SWIDTH 1600 0
DWIDTH 16 0
BBX 15 16 0 -3
BITMAP
0100
0100
0100
0100
0100
0100
0100
0100
FFFE
0100
0100
0100
0100
0100
0100
0100
ENDCHAR
STARTCHAR 2512
ENCODING 9793
SWIDTH 1600 0
DWIDTH 16 0
BBX 8 8 4 -3
BITMAP
FF
01
01
01
01
01
01
01
ENDCHAR
STARTCHAR 2511
ENCODING 9794
SWIDTH 1600 0
DWIDTH 16 0
BBX 9 8 3 -3
BITMAP
FF80
0080
0080
0080
0080
0080
0080
0080
ENDCHAR
STARTCHAR 251A
ENCODING 9795
SWIDTH 1600 0
DWIDTH 16 0
BBX 8 9 4 4
BITMAP
01
01
01
01
01
01
01
01
FF
ENDCHAR
STARTCHAR 2519
ENCODING 9796
SWIDTH 1600 0
DWIDTH 16 0
BBX 9 9 3 4
BITMAP
0080
0080
0080
0080
0080
0080
0080
0080
FF80
ENDCHAR
STARTCHAR 2516
ENCODING 9797
SWIDTH 1600 0
DWIDTH 16 0
BBX 8 9 4 4
BITMAP
80
80
80
80
80
80
80
80
FF
ENDCHAR
STARTCHAR 2515
ENCODING 9798
SWIDTH 1600 0
DWIDTH 16 0
BBX 9 9 4 4
BITMAP
8000
8000
8000
8000
8000
8000
8000
8000
FF80
ENDCHAR
STARTCHAR 250E
ENCODING 9799
SWIDTH 1600 0
DWIDTH 16 0
BBX 8 8 4 -3
BITMAP
FF
80
80
80
80
80
80
80
ENDCHAR
STARTCHAR 250D
ENCODING 9800
SWIDTH 1600 0
DWIDTH 16 0
BBX 9 8 4 -3
BITMAP
FF80
8000
8000
8000
8000
8000
8000
8000
ENDCHAR
STARTCHAR 251E
ENCODING 9801
SWIDTH 1600 0
DWIDTH 16 0
BBX 8 16 4 -3
BITMAP
80
80
80
80
80
80
80
80
FF
80
80
80
80
80
80
80
ENDCHAR
STARTCHAR 251F
ENCODING 9802
SWIDTH 1600 0
DWIDTH 16 0
BBX 8 16 4 -3
BITMAP
80
80
80
80
80
80
80
80
FF
80
80
80
80
80
80
80
ENDCHAR
STARTCHAR 2521
ENCODING 9803
SWIDTH 1600 0
DWIDTH 16 0
BBX 8 16 4 -3
BITMAP
80
80
80
80
80
80
80
80
FF
80
80
80
80
80
80
80
ENDCHAR
STARTCHAR 2522
ENCODING 9804
SWIDTH 1600 0
DWIDTH 16 0
BBX 8 16 4 -3
BITMAP
80
80
80
80
80
80
80
80
FF
80
80
80
80
80
80
80
ENDCHAR
STARTCHAR 2526
ENCODING 9805
SWIDTH 1600 0
DWIDTH 16 0
BBX 8 16 4 -3
BITMAP
01
01
01
01
01
01
01
01
FF
01
01
01
01
01
01
01
ENDCHAR
STARTCHAR 2527
ENCODING 9806
SWIDTH 1600 0
DWIDTH 16 0
BBX 8 16 4 -3
BITMAP
01
01
01
01
01
01
01
01
FF
01
01
01
01
01
01
01
ENDCHAR
STARTCHAR 2529
ENCODING 9807
SWIDTH 1600 0
DWIDTH 16 0
BBX 8 16 4 -3
BITMAP
01
01
01
01
01
01
01
01
FF
01
01
01
01
01
01
01
ENDCHAR
STARTCHAR 252A
ENCODING 9808
SWIDTH 1600 0
DWIDTH 16 0
BBX 9 16 3 -3
BITMAP
0080
0080
0080
0080
0080
0080
0080
0080
FF80
0080
0080
0080
0080
0080
0080
0080
ENDCHAR
STARTCHAR 252D
ENCODING 9809
SWIDTH 1600 0
DWIDTH 16 0
BBX 17 8 -1 -3
BITMAP
FFFF80
008000
008000
008000
008000
008000
008000
008000
ENDCHAR
STARTCHAR 252E
ENCODING 9810
SWIDTH 1600 0
DWIDTH 16 0
BBX 17 8 -1 -3
BITMAP
FFFF80
008000
008000
008000
008000
008000
008000
008000
ENDCHAR
STARTCHAR 2531
ENCODING 9811
SWIDTH 1600 0
DWIDTH 16 0
BBX 15 8 0 -3
BITMAP
FFFE
0100
0100
0100
0100
0100
0100
0100
ENDCHAR
STARTCHAR 2532
ENCODING 9812
SWIDTH 1600 0
DWIDTH 16 0
BBX 15 8 0 -3
BITMAP
FFFE
0100
0100
0100
0100
0100
0100
0100
ENDCHAR
STARTCHAR 2535
ENCODING 9813
SWIDTH 1600 0
DWIDTH 16 0
BBX 17 9 -1 4
BITMAP
008000
008000
008000
008000
008000
008000
008000
008000
FFFF80
ENDCHAR
STARTCHAR 2536
ENCODING 9814
SWIDTH 1600 0
DWIDTH 16 0
BBX 17 9 -1 4
BITMAP
008000
008000
008000
008000
008000
008000
008000
008000
FFFF80
ENDCHAR
STARTCHAR 2539
ENCODING 9815
SWIDTH 1600 0
DWIDTH 16 0
BBX 15 9 0 4
BITMAP
0100
0100
0100
0100
0100
0100
0100
0100
FFFE
ENDCHAR
STARTCHAR 253A
ENCODING 9816
SWIDTH 1600 0
DWIDTH 16 0
BBX 15 9 0 4
BITMAP
0100
0100
0100
0100
0100
0100
0100
0100
FFFE
ENDCHAR
STARTCHAR 253D
ENCODING 9817
SWIDTH 1600 0
DWIDTH 16 0
BBX 17 16 -1 -3
BITMAP
008000
008000
008000
008000
008000
008000
008000
008000
FFFF80
008000
008000
008000
008000
008000
008000
008000
ENDCHAR
STARTCHAR 253E
ENCODING 9818
SWIDTH 1600 0
DWIDTH 16 0
BBX 17 16 -1 -3
BITMAP
008000
008000
008000
008000
008000
008000
008000
008000
FFFF80
008000
008000
008000
008000
008000
008000
008000
ENDCHAR
STARTCHAR 2540
ENCODING 9819
SWIDTH 1600 0
DWIDTH 16 0
BBX 15 16 0 -3
BITMAP
0100
0100
0100
0100
0100
0100
0100
0100
FFFE
0100
0100
0100
0100
0100
0100
0100
ENDCHAR
STARTCHAR 2541
ENCODING 9820
SWIDTH 1600 0
DWIDTH 16 0
BBX 15 16 0 -3
BITMAP
0100
0100
0100
0100
0100
0100
0100
0100
FFFE
0100
0100
0100
0100
0100
0100
0100
ENDCHAR
STARTCHAR 2543
ENCODING 9821
SWIDTH 1600 0
DWIDTH 16 0
BBX 15 16 0 -3
BITMAP
0100
0100
0100
0100
0100
0100
0100
0100
FFFE
0100
0100
0100
0100
0100
0100
0100
ENDCHAR
STARTCHAR 2544
ENCODING 9822
SWIDTH 1600 0
DWIDTH 16 0
BBX 15 16 0 -3
BITMAP
0100
0100
0100
0100
0100
0100
0100
0100
FFFE
0100
0100
0100
0100
0100
0100
0100
ENDCHAR
STARTCHAR 2545
ENCODING 9823
SWIDTH 1600 0
DWIDTH 16 0
BBX 15 16 0 -3
BITMAP
0100
0100
0100
0100
0100
0100
0100
0100
FFFE
0100
0100
0100
0100
0100
0100
0100
ENDCHAR
STARTCHAR 2546
ENCODING 9824
SWIDTH 1600 0
DWIDTH 16 0
BBX 15 16 0 -3
BITMAP
0100
0100
0100
0100
0100
0100
0100
0100
FFFE
0100
0100
0100
0100
0100
0100
0100
ENDCHAR
STARTCHAR 2547
ENCODING 9825
SWIDTH 1600 0
DWIDTH 16 0
BBX 15 16 1 -3
BITMAP
0100
0100
0100
0100
0100
0100
0100
0100
FFFE
0200
0200
0200
0200
0200
0200
0200
ENDCHAR
STARTCHAR 2548
ENCODING 9826
SWIDTH 1600 0
DWIDTH 16 0
BBX 15 16 1 -3
BITMAP
0200
0200
0200
0200
0200
0200
0200
0200
FFFE
0100
0100
0100
0100
0100
0100
0100
ENDCHAR
STARTCHAR 2549
ENCODING 9827
SWIDTH 1600 0
DWIDTH 16 0
BBX 15 16 0 -3
BITMAP
0100
0100
0100
0100
0100
0100
0100
0100
FFFE
0100
0100
0100
0100
0100
0100
0100
ENDCHAR
STARTCHAR 254A
ENCODING 9828
SWIDTH 1600 0
DWIDTH 16 0
BBX 15 16 0 -3
BITMAP
0100
0100
0100
0100
0100
0100
0100
0100
FFFE
0100
0100
0100
0100
0100
0100
0100
ENDCHAR
STARTCHAR 3395
ENCODING 10017
SWIDTH 1600 0
DWIDTH 16 0
BBX 14 13 1 -2
BITMAP
001C
0024
0024
0044
2148
2148
4248
4250
4220
4664
AA1C
9000
8000
ENDCHAR
STARTCHAR 3396
ENCODING 10018
SWIDTH 1600 0
DWIDTH 16 0
BBX 14 12 1 -1
BITMAP
0038
0048
0048
FE48
9248
9250
9250
9260
9240
92C4
9228
0010
ENDCHAR
STARTCHAR 3397
ENCODING 10019
SWIDTH 1600 0
DWIDTH 16 0
BBX 14 11 1 0
BITMAP
0238
0228
0248
3A48
4648
8248
8250
8260
8260
46C4
3E38
ENDCHAR
STARTCHAR 2113
ENCODING 10020
SWIDTH 1600 0
DWIDTH 16 0
BBX 6 11 5 0
BITMAP
38
48
48
48
48
48
50
50
64
C4
38
ENDCHAR
STARTCHAR 3398
ENCODING 10021
SWIDTH 1600 0
DWIDTH 16 0
BBX 13 12 1 -1
BITMAP
8070
8050
8090
8490
8890
B090
E0A0
90A0
88C0
8988
8450
0020
ENDCHAR
STARTCHAR 33C4
ENCODING 10022
SWIDTH 1600 0
DWIDTH 16 0
BBX 14 9 1 -1
BITMAP
7878
4484
8480
8100
8100
8084
8484
4878
3000
ENDCHAR
STARTCHAR 33A3
ENCODING 10023
SWIDTH 1600 0
DWIDTH 16 0
BBX 15 13 0 -1
BITMAP
0006
0002
0002
0000
20AC
DCD2
9492
9492
9492
9492
9492
9092
0092
ENDCHAR
STARTCHAR 33A4
ENCODING 10024
SWIDTH 1600 0
DWIDTH 16 0
BBX 16 12 0 0
BITMAP
0001
0002
0001
0000
3CAE
40D2
8092
8092
8092
8292
4492
3892
ENDCHAR
STARTCHAR 33A5
ENCODING 10025
SWIDTH 1600 0
DWIDTH 16 0
BBX 12 12 2 0
BITMAP
0010
0010
0010
0000
BBC0
C420
8420
8420
8420
8420
8420
8420
ENDCHAR
STARTCHAR 33A6
ENCODING 10026
SWIDTH 1600 0
DWIDTH 16 0
BBX 15 12 0 0
BITMAP
0006
8002
8002
8000
85DC
8924
9124
A124
D124
8924
8924
8524
ENDCHAR
STARTCHAR 3399
ENCODING 10027
SWIDTH 1600 0
DWIDTH 16 0
BBX 12 12 2 -1
BITMAP
4000
4000
4000
E3A0
44D0
4490
4490
4490
4490
4490
4490
0090
ENDCHAR
STARTCHAR 339A
ENCODING 10028
SWIDTH 1600 0
DWIDTH 16 0
BBX 14 8 1 0
BITMAP
B1FC
C924
8924
8924
8924
8924
8924
8924
ENDCHAR
STARTCHAR 339B
ENCODING 10029
SWIDTH 1600 0
DWIDTH 16 0
BBX 15 10 1 -2
BITMAP
02FE
2292
2292
4492
4492
4492
4892
D092
A000
8000
ENDCHAR
STARTCHAR 339C
ENCODING 10030
SWIDTH 1600 0
DWIDTH 16 0
BBX 14 8 1 0
BITMAP
ECEC
94B4
94A4
94A4
94A4
94A4
94A4
9084
ENDCHAR
STARTCHAR 339D
ENCODING 10031
SWIDTH 1600 0
DWIDTH 16 0
BBX 14 8 1 0
BITMAP
795C
85A4
8524
8124
8124
8524
8524
7924
ENDCHAR
STARTCHAR 339E
ENCODING 10032
SWIDTH 1600 0
DWIDTH 16 0
BBX 14 11 1 0
BITMAP
8000
8000
8000
85FC
8924
9124
A124
D124
8924
8924
8524
ENDCHAR
STARTCHAR 339F
ENCODING 10033
SWIDTH 1600 0
DWIDTH 16 0
BBX 15 12 0 0
BITMAP
0006
0002
0004
0000
ECEC
9494
9494
9494
9494
9494
9494
9090
ENDCHAR
STARTCHAR 33A0
ENCODING 10034
SWIDTH 1600 0
DWIDTH 16 0
BBX 16 12 0 0
BITMAP
0001
0002
0000
0002
38A4
44DA
8292
8092
8092
8292
4492
3892
ENDCHAR
STARTCHAR 33A1
ENCODING 10035
SWIDTH 1600 0
DWIDTH 16 0
BBX 12 12 2 0
BITMAP
0030
0010
0020
0000
BBC0
C420
8420
8420
8420
8420
8420
8420
ENDCHAR
STARTCHAR 33A2
ENCODING 10036
SWIDTH 1600 0
DWIDTH 16 0
BBX 15 12 0 0
BITMAP
0006
8002
8004
8004
85FC
8924
9124
A124
D124
8924
8924
8524
ENDCHAR
STARTCHAR 33CA
ENCODING 10037
SWIDTH 1600 0
DWIDTH 16 0
BBX 13 10 1 0
BITMAP
8000
8000
B8F0
4410
4408
8478
8488
8508
8518
04E8
ENDCHAR
STARTCHAR 338D
ENCODING 10038
SWIDTH 1600 0
DWIDTH 16 0
BBX 15 11 1 -3
BITMAP
227E
2488
4488
4488
4478
4880
4870
B18C
8104
8104
00F8
ENDCHAR
STARTCHAR 338E
ENCODING 10039
SWIDTH 1600 0
DWIDTH 16 0
BBX 15 11 1 -3
BITMAP
B626
DAD8
9288
9288
9258
92F0
9280
9378
0104
0104
00FC
ENDCHAR
STARTCHAR 338F
ENCODING 10040
SWIDTH 1600 0
DWIDTH 16 0
BBX 14 14 1 -3
BITMAP
8000
8000
8000
84FC
8910
9110
A110
D090
8960
89C0
8538
0208
0108
00F0
ENDCHAR
STARTCHAR 33CF
ENCODING 10041
SWIDTH 1600 0
DWIDTH 16 0
BBX 10 11 3 0
BITMAP
8000
8100
8100
87C0
8900
9100
A100
D100
8900
8900
8480
ENDCHAR
STARTCHAR 3388
ENCODING 10042
SWIDTH 1600 0
DWIDTH 16 0
BBX 15 12 0 -1
BITMAP
0002
0002
0002
1862
2492
4512
401A
80EA
410A
410A
24FA
1868
ENDCHAR
STARTCHAR 3389
ENCODING 10043
SWIDTH 1600 0
DWIDTH 16 0
BBX 14 12 1 -1
BITMAP
8004
8004
8004
9674
9814
A814
D034
F054
B094
9894
9A6C
0400
ENDCHAR
STARTCHAR 33C8
ENCODING 10044
SWIDTH 1600 0
DWIDTH 16 0
BBX 16 11 0 0
BITMAP
027C
0246
0242
3A42
4642
427E
8241
8241
4241
4243
3E7E
ENDCHAR
STARTCHAR 33A7
ENCODING 10045
SWIDTH 1600 0
DWIDTH 16 0
BBX 15 14 0 -2
BITMAP
B300
CC80
8882
8884
8888
8890
0020
005E
00A2
0320
041C
0802
1022
201E
ENDCHAR
STARTCHAR 33A8
ENCODING 10046
SWIDTH 1600 0
DWIDTH 16 0
BBX 15 14 0 -2
BITMAP
F700
C880
8882
8884
8888
8892
88A2
005A
00A4
0320
0418
0804
1024
2018
ENDCHAR
STARTCHAR 33B0
ENCODING 10047
SWIDTH 1600 0
DWIDTH 16 0
BBX 14 11 1 -3
BITMAP
B878
C480
8480
8240
8238
8404
C484
F858
8020
8000
8000
ENDCHAR
STARTCHAR 33B1
ENCODING 10048
SWIDTH 1600 0
DWIDTH 16 0
BBX 13 8 1 0
BITMAP
38F8
4508
8480
8460
8418
8508
8508
04F0
ENDCHAR
STARTCHAR 33B2
ENCODING 10049
SWIDTH 1600 0
DWIDTH 16 0
BBX 16 11 0 -3
BITMAP
109E
10A0
1120
2118
2106
2101
6221
5C1E
4000
8000
8000
ENDCHAR
STARTCHAR 33B3
ENCODING 10050
SWIDTH 1600 0
DWIDTH 16 0
BBX 14 8 1 0
BITMAP
FE78
9284
9280
9260
921C
9284
9284
9278
ENDCHAR
STARTCHAR 33B4
ENCODING 10051
SWIDTH 1600 0
DWIDTH 16 0
BBX 14 14 1 -3
BITMAP
0204
0108
0108
B908
C508
8490
8490
8490
8460
8460
F860
8000
8000
8000
ENDCHAR
STARTCHAR 33B5
ENCODING 10052
SWIDTH 1600 0
DWIDTH 16 0
BBX 13 11 1 0
BITMAP
0200
0208
0108
3910
4510
8510
8490
84A0
84A0
84A0
0440
ENDCHAR
STARTCHAR 33B6
ENCODING 10053
SWIDTH 1600 0
DWIDTH 16 0
BBX 16 14 0 -3
BITMAP
0041
0042
0022
00A2
10A2
10A4
2114
2114
2114
2318
5C08
4000
4000
8000
ENDCHAR
STARTCHAR 33B7
ENCODING 10054
SWIDTH 1600 0
DWIDTH 16 0
BBX 14 11 1 0
BITMAP
0104
0104
0104
EC88
9488
9488
9490
9450
9450
9460
9420
ENDCHAR
STARTCHAR 33B8
ENCODING 10055
SWIDTH 1600 0
DWIDTH 16 0
BBX 14 11 1 0
BITMAP
8204
8108
8108
8508
8910
B090
E090
9090
88A0
8860
8460
ENDCHAR
STARTCHAR 33B9
ENCODING 10056
SWIDTH 1600 0
DWIDTH 16 0
BBX 15 11 0 0
BITMAP
8140
C142
C342
C522
C524
A524
A524
A914
9918
9918
8908
ENDCHAR
STARTCHAR 3380
ENCODING 10057
SWIDTH 1600 0
DWIDTH 16 0
BBX 13 14 1 -3
BITMAP
0020
0060
0060
B890
C490
8490
8290
82F8
8308
C508
BD00
8000
8000
8000
ENDCHAR
STARTCHAR 3381
ENCODING 10058
SWIDTH 1600 0
DWIDTH 16 0
BBX 13 11 1 0
BITMAP
0020
0060
0060
B850
C890
8490
8490
84F8
8508
8508
8500
ENDCHAR
STARTCHAR 3382
ENCODING 10059
SWIDTH 1600 0
DWIDTH 16 0
BBX 14 14 1 -3
BITMAP
0060
0060
0050
1150
1250
2288
22F8
2488
4488
4504
7D04
8000
8000
8000
ENDCHAR
STARTCHAR 3383
ENCODING 10060
SWIDTH 1600 0
DWIDTH 16 0
BBX 14 11 1 0
BITMAP
0020
0030
0050
FE50
9248
9248
9278
9288
9284
9284
9204
ENDCHAR
STARTCHAR 3384
ENCODING 10061
SWIDTH 1600 0
DWIDTH 16 0
BBX 14 12 1 -1
BITMAP
8020
8060
8060
8450
8890
B090
E090
90F8
8888
8908
8508
0104
ENDCHAR
STARTCHAR 33BA
ENCODING 10062
SWIDTH 1600 0
DWIDTH 16 0
BBX 15 13 0 -2
BITMAP
0110
0112
0132
3932
C4B2
42B4
82CC
82CC
42CC
4244
BC44
8000
8000
ENDCHAR
STARTCHAR 33BB
ENCODING 10063
SWIDTH 1600 0
DWIDTH 16 0
BBX 14 11 1 0
BITMAP
0244
0244
0264
BA68
CAA8
8AA8
89A8
89A8
8998
8998
8090
ENDCHAR
STARTCHAR 33BC
ENCODING 10064
SWIDTH 1600 0
DWIDTH 16 0
BBX 16 14 0 -3
BITMAP
0011
0091
0092
11AA
12AA
22AA
22AA
22AA
446C
4444
6C44
5000
8000
8000
ENDCHAR
STARTCHAR 33BD
ENCODING 10065
SWIDTH 1600 0
DWIDTH 16 0
BBX 15 12 0 -1
BITMAP
0110
0112
0112
AEB2
D2B2
92AA
92AC
92AC
92CC
9244
9244
8000
ENDCHAR
STARTCHAR 33BE
ENCODING 10066
SWIDTH 1600 0
DWIDTH 16 0
BBX 14 11 1 0
BITMAP
8224
8224
8264
8664
8A64
9168
E1A8
9198
8998
8898
8488
ENDCHAR
STARTCHAR 33BF
ENCODING 10067
SWIDTH 1600 0
DWIDTH 16 0
BBX 15 11 0 0
BITMAP
8310
C712
C712
C6B2
CAB2
CAAA
AAAC
AACC
AACC
B244
9244
ENDCHAR
STARTCHAR 3390
ENCODING 10068
SWIDTH 1600 0
DWIDTH 16 0
BBX 14 11 1 0
BITMAP
8200
8200
8200
82FC
8208
FE08
8210
8220
8240
8280
82FC
ENDCHAR
STARTCHAR 3391
ENCODING 10069
SWIDTH 1600 0
DWIDTH 16 0
BBX 15 11 0 0
BITMAP
8440
8440
8440
945E
9442
A7C4
E444
E448
A450
9450
945E
ENDCHAR
STARTCHAR 3392
ENCODING 10070
SWIDTH 1600 0
DWIDTH 16 0
BBX 15 11 0 0
BITMAP
8520
8520
CD20
CD2E
D522
D5E4
D524
D524
B528
B528
B52E
ENDCHAR
STARTCHAR 3393
ENCODING 10071
SWIDTH 1600 0
DWIDTH 16 0
BBX 17 11 -1 0
BITMAP
111000
291000
491000
451700
411100
9DF200
851200
451400
451400
451800
3D1F80
ENDCHAR
STARTCHAR 3394
ENCODING 10072
SWIDTH 1600 0
DWIDTH 16 0
BBX 16 12 0 0
BITMAP
0040
FC40
2440
2440
245E
27C2
2444
2444
2448
2448
2450
245F
ENDCHAR
STARTCHAR 2126
ENCODING 10073
SWIDTH 1600 0
DWIDTH 16 0
BBX 12 11 2 0
BITMAP
1F80
2060
4020
4020
8020
4020
4020
2040
1980
0900
F9F0
ENDCHAR
STARTCHAR 33C0
ENCODING 10074
SWIDTH 1600 0
DWIDTH 16 0
BBX 14 12 1 0
BITMAP
0070
8088
8104
8104
8504
8904
B104
E108
9088
8850
8850
85DC
ENDCHAR
STARTCHAR 33C1
ENCODING 10075
SWIDTH 1600 0
DWIDTH 16 0
BBX 14 12 1 0
BITMAP
0070
8488
8504
CD04
CD04
CD04
D504
D508
D488
B450
B450
95DC
ENDCHAR
STARTCHAR 338A
ENCODING 10076
SWIDTH 1600 0
DWIDTH 16 0
BBX 14 14 1 -3
BITMAP
00FC
0080
0080
B880
C480
82F8
8280
8280
8280
C480
BC80
8000
8000
8000
ENDCHAR
STARTCHAR 338B
ENCODING 10077
SWIDTH 1600 0
DWIDTH 16 0
BBX 14 11 1 0
BITMAP
00FC
0080
0080
B880
C480
84F8
8480
8480
8480
8480
8480
ENDCHAR
STARTCHAR 338C
ENCODING 10078
SWIDTH 1600 0
DWIDTH 16 0
BBX 16 14 0 -3
BITMAP
003F
0020
0020
00A0
10A0
10BE
2120
2120
2120
2320
5420
4800
4000
8000
ENDCHAR
STARTCHAR 33D6
ENCODING 10079
SWIDTH 1600 0
DWIDTH 16 0
BBX 14 11 1 0
BITMAP
0004
0004
0004
FE64
9294
9294
9294
9294
9294
9294
9264
ENDCHAR
STARTCHAR 33C5
ENCODING 10080
SWIDTH 1600 0
DWIDTH 16 0
BBX 14 12 1 -1
BITMAP
0004
0004
0004
3874
448C
8104
8104
8104
8304
448C
6CD4
1020
ENDCHAR
STARTCHAR 33AD
ENCODING 10081
SWIDTH 1600 0
DWIDTH 16 0
BBX 14 11 1 0
BITMAP
0004
0004
0004
B714
C92C
8144
8344
8D44
9144
9144
8EBC
ENDCHAR
STARTCHAR 33AE
ENCODING 10082
SWIDTH 1600 0
DWIDTH 16 0
BBX 14 15 1 -3
BITMAP
0080
0080
BB80
CA80
8C80
BC80
AA88
1130
0040
0180
063C
0820
301C
4024
0018
ENDCHAR
STARTCHAR 33AF
ENCODING 10083
SWIDTH 1600 0
DWIDTH 16 0
BBX 15 15 0 -3
BITMAP
0040
0040
ADC0
C640
8640
9E42
954C
0892
0060
009C
0310
0408
1804
0014
0008
ENDCHAR
STARTCHAR 33DB
ENCODING 10084
SWIDTH 1600 0
DWIDTH 16 0
BBX 11 8 3 0
BITMAP
F960
8180
8100
6100
1900
0500
8500
7900
ENDCHAR
STARTCHAR 33A9
ENCODING 10085
SWIDTH 1600 0
DWIDTH 16 0
BBX 14 11 1 0
BITMAP
FC00
8200
8200
8270
8688
FC88
8038
80C8
8088
8088
8074
ENDCHAR
STARTCHAR 33AA
ENCODING 10086
SWIDTH 1600 0
DWIDTH 16 0
BBX 15 11 1 0
BITMAP
8F00
8880
8880
88B8
9984
AF04
A81C
E824
A844
9844
983E
ENDCHAR
STARTCHAR 33AB
ENCODING 10087
SWIDTH 1600 0
DWIDTH 16 0
BBX 16 12 0 0
BITMAP
85C0
8520
CD20
CD20
CD2E
D552
D582
D506
B50A
B512
B512
000D
ENDCHAR
STARTCHAR 33AC
ENCODING 10088
SWIDTH 1600 0
DWIDTH 16 0
BBX 17 12 -1 0
BITMAP
380000
49E000
451000
451000
411700
813900
9DE100
850300
850500
450900
450900
3D0680
ENDCHAR
STARTCHAR 33DD
ENCODING 10089
SWIDTH 1600 0
DWIDTH 16 0
BBX 16 12 0 -1
BITMAP
8840
8940
9940
595E
5923
5541
5541
5641
6641
2222
2214
0008
ENDCHAR
STARTCHAR 33D0
ENCODING 10090
SWIDTH 1600 0
DWIDTH 16 0
BBX 10 11 3 0
BITMAP
8000
8000
8000
9FC0
9240
9240
9240
9240
9240
9240
9240
ENDCHAR
STARTCHAR 33D3
ENCODING 10091
SWIDTH 1600 0
DWIDTH 16 0
BBX 9 11 3 0
BITMAP
8000
8000
8000
9080
8900
8500
8600
8600
8900
8880
9000
ENDCHAR
STARTCHAR 33C3
ENCODING 10092
SWIDTH 1600 0
DWIDTH 16 0
BBX 14 15 1 -3
BITMAP
F800
8800
8400
8400
8400
F8FC
8484
8504
8504
8504
8484
F8CC
0074
0004
0004
ENDCHAR
STARTCHAR 33C9
ENCODING 10093
SWIDTH 1600 0
DWIDTH 16 0
BBX 14 14 1 -3
BITMAP
3800
4400
4200
8084
8088
8048
8E48
8250
8250
4230
4620
3820
0020
00C0
ENDCHAR
STARTCHAR 33DC
ENCODING 10094
SWIDTH 1600 0
DWIDTH 16 0
BBX 14 12 1 0
BITMAP
3800
4400
8200
8000
4004
3084
0C88
0288
8248
8250
8250
7C20
ENDCHAR
STARTCHAR 33C6
ENCODING 10095
SWIDTH 1600 0
DWIDTH 16 0
BBX 15 15 0 -3
BITMAP
C100
8200
8200
8400
8400
8900
6900
0900
111E
11D2
214C
2150
411E
4022
401E
ENDCHAR
STARTCHAR 00C6
ENCODING 10273
SWIDTH 1600 0
DWIDTH 16 0
BBX 15 11 1 0
BITMAP
03FC
0500
0500
0900
1100
11FC
3F00
2100
4100
4100
81FE
ENDCHAR
STARTCHAR 00D0
ENCODING 10274
SWIDTH 1600 0
DWIDTH 16 0
BBX 12 11 2 0
BITMAP
3FC0
2060
2020
2010
2010
FC10
2010
2010
2020
2020
3FC0
ENDCHAR
STARTCHAR 00AA
ENCODING 10275
SWIDTH 1600 0
DWIDTH 16 0
BBX 8 10 4 0
BITMAP
7C
42
02
3E
42
82
86
7B
00
FF
ENDCHAR
STARTCHAR 0126
ENCODING 10276
SWIDTH 1600 0
DWIDTH 16 0
BBX 12 13 2 -1
BITMAP
0040
2040
FFF0
2040
2040
2040
3FC0
2040
2040
2040
2040
2040
2000
ENDCHAR
STARTCHAR 0132
ENCODING 10278
SWIDTH 1600 0
DWIDTH 16 0
BBX 8 11 4 0
BITMAP
81
81
81
81
81
81
81
A1
A1
A1
9E
ENDCHAR
STARTCHAR 013F
ENCODING 10280
SWIDTH 1600 0
DWIDTH 16 0
BBX 7 11 4 0
BITMAP
80
80
80
80
8C
8C
80
80
80
80
FE
ENDCHAR
STARTCHAR 0141
ENCODING 10281
SWIDTH 1600 0
DWIDTH 16 0
BBX 9 11 4 0
BITMAP
2000
2000
2800
3000
3000
2000
6000
A000
2000
2000
3F80
ENDCHAR
STARTCHAR 00D8
ENCODING 10282
SWIDTH 1600 0
DWIDTH 16 0
BBX 12 13 2 -1
BITMAP
0710
18A0
2040
60A0
4120
4220
4620
4420
4820
3020
2040
5980
8600
ENDCHAR
STARTCHAR 0152
ENCODING 10283
SWIDTH 1600 0
DWIDTH 16 0
BBX 15 11 0 0
BITMAP
3FFE
6080
4080
8080
8080
80FE
8080
4080
4080
2080
1FFE
ENDCHAR
STARTCHAR 00BA
ENCODING 10284
SWIDTH 1600 0
DWIDTH 16 0
BBX 8 10 4 0
BITMAP
3C
42
81
81
81
81
42
3C
00
FF
ENDCHAR
STARTCHAR 00DE
ENCODING 10285
SWIDTH 1600 0
DWIDTH 16 0
BBX 8 11 4 0
BITMAP
80
80
80
FE
81
81
81
83
FE
80
80
ENDCHAR
STARTCHAR 0166
ENCODING 10286
SWIDTH 1600 0
DWIDTH 16 0
BBX 9 11 3 0
BITMAP
FF80
0800
0800
0800
0800
7F00
0800
0800
0800
0800
0800
ENDCHAR
STARTCHAR 014A
ENCODING 10287
SWIDTH 1600 0
DWIDTH 16 0
BBX 8 11 4 0
BITMAP
BC
C2
81
81
81
81
81
81
81
83
0E
ENDCHAR
STARTCHAR 3260
ENCODING 10289
SWIDTH 1600 0
DWIDTH 16 0
BBX 15 15 0 -3
BITMAP
07E0
1818
2004
4004
5FF2
8012
8012
8012
8012
8012
4014
2004
1008
0830
07C0
ENDCHAR
STARTCHAR 3261
ENCODING 10290
SWIDTH 1600 0
DWIDTH 16 0
BBX 15 15 0 -3
BITMAP
07E0
1818
2004
4804
4802
8802
8802
8802
8802
8FFA
4004
2004
1008
0830
07C0
ENDCHAR
STARTCHAR 3262
ENCODING 10291
SWIDTH 1600 0
DWIDTH 16 0
BBX 15 15 0 -3
BITMAP
07E0
1818
2004
4004
4FFA
8802
8802
8802
8802
8FFA
4004
2004
1008
0830
07C0
ENDCHAR
STARTCHAR 3263
ENCODING 10292
SWIDTH 1600 0
DWIDTH 16 0
BBX 15 15 0 -3
BITMAP
07E0
1818
2004
4004
4FF2
8012
8012
8FF2
8802
8802
4FFC
4004
2008
1830
07C0
ENDCHAR
STARTCHAR 3264
ENCODING 10293
SWIDTH 1600 0
DWIDTH 16 0
BBX 15 15 0 -3
BITMAP
07E0
1818
2004
4004
4FF2
8812
8812
8812
8812
8FF2
4004
4004
2008
1830
07C0
ENDCHAR
STARTCHAR 3265
ENCODING 10294
SWIDTH 1600 0
DWIDTH 16 0
BBX 15 15 0 -3
BITMAP
07E0
1818
2004
4004
4812
8812
8FF2
8812
8812
8FF2
4004
4004
2008
1830
07C0
ENDCHAR
STARTCHAR 3266
ENCODING 10295
SWIDTH 1600 0
DWIDTH 16 0
BBX 15 15 0 -3
BITMAP
07E0
1818
2004
4004
4102
8182
8282
8242
8422
981A
4004
4004
2008
1830
07C0
ENDCHAR
STARTCHAR 3267
ENCODING 10296
SWIDTH 1600 0
DWIDTH 16 0
BBX 15 15 0 -3
BITMAP
07E0
1818
2004
4004
43C2
8C32
8812
8812
8812
8C32
43C4
4004
2008
1830
07C0
ENDCHAR
STARTCHAR 3268
ENCODING 10297
SWIDTH 1600 0
DWIDTH 16 0
BBX 15 15 0 -3
BITMAP
07E0
1818
2004
4004
4FF2
8102
8182
8282
8242
8432
580C
4004
2008
1830
07C0
ENDCHAR
STARTCHAR 3269
ENCODING 10298
SWIDTH 1600 0
DWIDTH 16 0
BBX 15 15 0 -3
BITMAP
07E0
1818
2004
43C4
4002
8FF2
8102
8182
8242
8432
580C
4004
2008
1830
07C0
ENDCHAR
STARTCHAR 326A
ENCODING 10299
SWIDTH 1600 0
DWIDTH 16 0
BBX 15 15 0 -3
BITMAP
07E0
1818
2004
4004
5FF2
8012
8012
9F92
8012
8012
4004
4004
2008
1830
07C0
ENDCHAR
STARTCHAR 326B
ENCODING 10300
SWIDTH 1600 0
DWIDTH 16 0
BBX 15 14 0 -2
BITMAP
07E0
1818
2004
4004
8FFA
8802
8FF2
8802
8802
8802
4FFC
2004
1008
0C30
ENDCHAR
STARTCHAR 326C
ENCODING 10301
SWIDTH 1600 0
DWIDTH 16 0
BBX 15 15 0 -3
BITMAP
07E0
1818
2004
4004
4FF2
8002
8422
8422
8442
8442
5FFC
4004
2008
1830
07C0
ENDCHAR
STARTCHAR 326D
ENCODING 10302
SWIDTH 1600 0
DWIDTH 16 0
BBX 15 15 0 -3
BITMAP
07E0
1818
2004
43C4
4002
9FFA
83C2
8662
8422
8422
4644
43C4
2008
1830
07C0
ENDCHAR
STARTCHAR 326E
ENCODING 10303
SWIDTH 1600 0
DWIDTH 16 0
BBX 15 15 0 -3
BITMAP
07E0
1818
2014
4014
5F12
8112
8112
821E
8212
8412
5814
4014
2008
1830
07C0
ENDCHAR
STARTCHAR 326F
ENCODING 10304
SWIDTH 1600 0
DWIDTH 16 0
BBX 15 15 0 -3
BITMAP
07E0
1818
2014
4014
4812
8812
8812
881E
8812
8F92
4014
4014
2008
1830
07C0
ENDCHAR
STARTCHAR 3270
ENCODING 10305
SWIDTH 1600 0
DWIDTH 16 0
BBX 15 15 0 -3
BITMAP
07E0
1818
2014
4014
5F92
9012
9012
901E
9012
9F92
4014
4014
2018
1820
07C0
ENDCHAR
STARTCHAR 3271
ENCODING 10306
SWIDTH 1600 0
DWIDTH 16 0
BBX 15 15 0 -3
BITMAP
07E0
1818
2014
4014
5F12
8112
9F12
901E
9012
9192
4E14
4014
2008
1830
07C0
ENDCHAR
STARTCHAR 3272
ENCODING 10307
SWIDTH 1600 0
DWIDTH 16 0
BBX 15 15 0 -3
BITMAP
07E0
1818
2014
4014
5F92
9092
9092
909E
9092
9F92
4014
4014
2018
1820
07C0
ENDCHAR
STARTCHAR 3273
ENCODING 10308
SWIDTH 1600 0
DWIDTH 16 0
BBX 15 15 0 -3
BITMAP
07E0
1818
2014
4014
5112
9112
9F12
911E
9112
9F12
4014
4014
2008
1830
07C0
ENDCHAR
STARTCHAR 3274
ENCODING 10309
SWIDTH 1600 0
DWIDTH 16 0
BBX 15 15 0 -3
BITMAP
07E0
1818
2014
4214
4212
8212
8612
851E
8892
9052
4014
4014
2008
1830
07C0
ENDCHAR
STARTCHAR 3275
ENCODING 10310
SWIDTH 1600 0
DWIDTH 16 0
BBX 15 15 1 -3
BITMAP
0FC0
3030
4028
9E24
B324
2124
2122
213C
2124
3324
9E24
4028
2030
1040
0F80
ENDCHAR
STARTCHAR 3276
ENCODING 10311
SWIDTH 1600 0
DWIDTH 16 0
BBX 15 15 0 -3
BITMAP
07E0
1818
2024
4024
4FA2
8222
8222
863A
8522
88A2
5024
4024
2008
1830
07C0
ENDCHAR
STARTCHAR 3277
ENCODING 10312
SWIDTH 1600 0
DWIDTH 16 0
BBX 15 15 0 -3
BITMAP
07E0
1818
2024
4724
4022
9FA2
8222
823A
8622
8922
50A4
4024
2008
1830
07C0
ENDCHAR
STARTCHAR 3278
ENCODING 10313
SWIDTH 1600 0
DWIDTH 16 0
BBX 15 15 0 -3
BITMAP
07E0
1818
2014
4014
4F92
8092
8112
8F1E
8212
8212
4C14
4014
2008
1830
07C0
ENDCHAR
STARTCHAR 3279
ENCODING 10314
SWIDTH 1600 0
DWIDTH 16 0
BBX 15 15 0 -3
BITMAP
07E0
1818
2004
4014
4F92
8812
8F92
881E
8812
89D2
4614
4014
2018
1820
07C0
ENDCHAR
STARTCHAR 327A
ENCODING 10315
SWIDTH 1600 0
DWIDTH 16 0
BBX 15 15 0 -3
BITMAP
07E0
1818
2024
4024
5FA2
8922
8922
893A
8922
BFE2
4024
4024
2008
1830
07C0
ENDCHAR
STARTCHAR 327B
ENCODING 10316
SWIDTH 1600 0
DWIDTH 16 0
BBX 15 15 0 -3
BITMAP
07E0
1818
2024
4624
4022
9FA2
8F22
90BA
90A2
90A2
4F24
4024
2008
1830
07C0
ENDCHAR
STARTCHAR 24D0
ENCODING 10317
SWIDTH 1600 0
DWIDTH 16 0
BBX 15 15 0 -3
BITMAP
07E0
1818
2004
4384
4442
8042
81C2
8642
8842
88C2
4704
4004
2008
1830
07C0
ENDCHAR
STARTCHAR 24D1
ENCODING 10318
SWIDTH 1600 0
DWIDTH 16 0
BBX 15 15 0 -3
BITMAP
07E0
1818
2404
4404
4402
85C2
8622
8412
8412
8412
4414
4624
21C8
1830
07C0
ENDCHAR
STARTCHAR 24D2
ENCODING 10319
SWIDTH 1600 0
DWIDTH 16 0
BBX 15 15 0 -3
BITMAP
07E0
1818
2004
4084
4342
8422
8402
8402
8422
8222
41C4
4004
2008
1830
07C0
ENDCHAR
STARTCHAR 24D3
ENCODING 10320
SWIDTH 1600 0
DWIDTH 16 0
BBX 15 15 0 -3
BITMAP
07E0
1818
2024
4024
4022
87A2
8462
8822
8822
8822
4464
43A4
2008
1830
07C0
ENDCHAR
STARTCHAR 24D4
ENCODING 10321
SWIDTH 1600 0
DWIDTH 16 0
BBX 15 15 0 -3
BITMAP
07E0
1818
2004
4004
43C2
8422
8422
87E2
8402
8422
4244
4184
2008
1830
07C0
ENDCHAR
STARTCHAR 24D5
ENCODING 10322
SWIDTH 1600 0
DWIDTH 16 0
BBX 15 15 0 -3
BITMAP
07E0
1818
2084
4104
4102
8382
8102
8102
8102
8102
4104
4104
2008
1830
07C0
ENDCHAR
STARTCHAR 24D6
ENCODING 10323
SWIDTH 1600 0
DWIDTH 16 0
BBX 15 15 0 -3
BITMAP
07E0
1818
2004
43E4
4422
8422
8422
8422
8422
83E2
4424
42C4
2108
1830
07C0
ENDCHAR
STARTCHAR 24D7
ENCODING 10324
SWIDTH 1600 0
DWIDTH 16 0
BBX 15 15 0 -3
BITMAP
07E0
1818
2404
4404
4402
87C2
8422
8422
8422
8422
4424
4424
2008
1830
07C0
ENDCHAR
STARTCHAR 24D8
ENCODING 10325
SWIDTH 1600 0
DWIDTH 16 0
BBX 15 15 0 -3
BITMAP
07E0
1818
2104
4004
4002
8102
8102
8102
8102
8102
4104
4104
2008
1830
07C0
ENDCHAR
STARTCHAR 24D9
ENCODING 10326
SWIDTH 1600 0
DWIDTH 16 0
BBX 15 15 0 -3
BITMAP
07E0
1898
2004
4004
4082
8082
8082
8082
8082
8082
4084
4084
2108
1830
07C0
ENDCHAR
STARTCHAR 24DA
ENCODING 10327
SWIDTH 1600 0
DWIDTH 16 0
BBX 15 15 0 -3
BITMAP
07E0
1818
2204
4204
4202
8222
8242
8382
8242
8242
4224
4214
2008
1830
07C0
ENDCHAR
STARTCHAR 24DB
ENCODING 10328
SWIDTH 1600 0
DWIDTH 16 0
BBX 15 15 0 -3
BITMAP
07E0
1818
2104
4104
4102
8102
8102
8102
8102
8102
4104
4104
2008
1830
07C0
ENDCHAR
STARTCHAR 24DC
ENCODING 10329
SWIDTH 1600 0
DWIDTH 16 0
BBX 15 15 0 -3
BITMAP
07E0
1818
2004
4004
4FFA
908A
908A
908A
908A
908A
408C
4004
2008
1830
07C0
ENDCHAR
STARTCHAR 24DD
ENCODING 10330
SWIDTH 1600 0
DWIDTH 16 0
BBX 15 15 0 -3
BITMAP
07E0
1818
2004
4004
47C2
8422
8422
8422
8422
8422
4424
4004
2008
1830
07C0
ENDCHAR
STARTCHAR 24DE
ENCODING 10331
SWIDTH 1600 0
DWIDTH 16 0
BBX 15 15 0 -3
BITMAP
07E0
1818
2004
43C4
4662
8422
8422
8422
8422
8662
43C4
4004
2008
1830
07C0
ENDCHAR
STARTCHAR 24DF
ENCODING 10332
SWIDTH 1600 0
DWIDTH 16 0
BBX 15 15 0 -3
BITMAP
07E0
1818
2004
45E4
4612
8412
8412
8612
8622
85C2
4404
4404
2008
1830
07C0
ENDCHAR
STARTCHAR 24E0
ENCODING 10333
SWIDTH 1600 0
DWIDTH 16 0
BBX 15 15 0 -3
BITMAP
07E0
1818
2304
44E4
4822
8822
8822
8822
8462
83A2
4024
4024
2008
1830
07C0
ENDCHAR
STARTCHAR 24E1
ENCODING 10334
SWIDTH 1600 0
DWIDTH 16 0
BBX 15 15 0 -3
BITMAP
07E0
1818
2004
4004
4142
8182
8102
8102
8102
8102
4104
4004
2008
1830
07C0
ENDCHAR
STARTCHAR 24E2
ENCODING 10335
SWIDTH 1600 0
DWIDTH 16 0
BBX 15 15 0 -3
BITMAP
07E0
1818
2004
41C4
4262
8402
8302
80E2
8422
8222
41C4
4004
2008
1830
07C0
ENDCHAR
STARTCHAR 24E3
ENCODING 10336
SWIDTH 1600 0
DWIDTH 16 0
BBX 15 15 0 -3
BITMAP
07E0
1818
2104
4104
4382
8102
8102
8102
8102
8102
4104
4004
2008
1830
07C0
ENDCHAR
STARTCHAR 24E4
ENCODING 10337
SWIDTH 1600 0
DWIDTH 16 0
BBX 15 15 0 -3
BITMAP
07E0
1818
2004
4004
4422
8422
8422
8422
8422
8422
43E4
4004
2008
1830
07C0
ENDCHAR
STARTCHAR 24E5
ENCODING 10338
SWIDTH 1600 0
DWIDTH 16 0
BBX 15 15 0 -3
BITMAP
07E0
1818
2004
4004
4422
8422
8242
8242
8282
8182
4184
4004
2008
1830
07C0
ENDCHAR
STARTCHAR 24E6
ENCODING 10339
SWIDTH 1600 0
DWIDTH 16 0
BBX 15 15 0 -3
BITMAP
07E0
1818
2004
4004
408A
888A
8992
8952
8652
8662
4624
4004
2008
1830
07C0
ENDCHAR
STARTCHAR 24E7
ENCODING 10340
SWIDTH 1600 0
DWIDTH 16 0
BBX 15 15 0 -3
BITMAP
07E0
1818
2004
4004
4202
8242
8182
8182
8242
8242
4424
4004
2008
1830
07C0
ENDCHAR
STARTCHAR 24E8
ENCODING 10341
SWIDTH 1600 0
DWIDTH 16 0
BBX 15 15 0 -3
BITMAP
07E0
1818
2004
4024
4222
8242
8142
8142
8082
8082
4104
4104
2008
1830
07C0
ENDCHAR
STARTCHAR 24E9
ENCODING 10342
SWIDTH 1600 0
DWIDTH 16 0
BBX 15 15 0 -3
BITMAP
07E0
1818
2004
4004
47E2
8042
8082
8102
8202
8202
47E4
4004
2008
1830
07C0
ENDCHAR
STARTCHAR 2460
ENCODING 10343
SWIDTH 1600 0
DWIDTH 16 0
BBX 15 15 0 -3
BITMAP
07E0
1818
2084
4084
4382
8082
8082
8082
8082
8082
4084
4084
2008
1830
07C0
ENDCHAR
STARTCHAR 2461
ENCODING 10344
SWIDTH 1600 0
DWIDTH 16 0
BBX 15 15 0 -3
BITMAP
07E0
1818
23C4
4424
4422
8022
8042
8082
8302
8402
4404
47E4
2008
1830
07C0
ENDCHAR
STARTCHAR 2462
ENCODING 10345
SWIDTH 1600 0
DWIDTH 16 0
BBX 15 15 0 -3
BITMAP
07E0
1818
23C4
4444
4422
8022
80C2
8042
8022
8422
4424
4244
2188
1830
07C0
ENDCHAR
STARTCHAR 2463
ENCODING 10346
SWIDTH 1600 0
DWIDTH 16 0
BBX 15 15 0 -3
BITMAP
07E0
1818
2044
40C4
40C2
8142
8242
8242
8442
87E2
4044
4044
2048
1830
07C0
ENDCHAR
STARTCHAR 2464
ENCODING 10347
SWIDTH 1600 0
DWIDTH 16 0
BBX 15 15 0 -3
BITMAP
07E0
1818
23C4
4204
4402
8402
87C2
8022
8022
8422
4424
43C4
2008
1830
07C0
ENDCHAR
STARTCHAR 2465
ENCODING 10348
SWIDTH 1600 0
DWIDTH 16 0
BBX 15 15 0 -3
BITMAP
07E0
1818
21C4
4264
4422
8402
87C2
8422
8422
8422
4424
43C4
2008
1830
07C0
ENDCHAR
STARTCHAR 2466
ENCODING 10349
SWIDTH 1600 0
DWIDTH 16 0
BBX 15 15 0 -3
BITMAP
07E0
1818
2004
47E4
4022
8042
8082
8082
8102
8102
4104
4104
2008
1830
07C0
ENDCHAR
STARTCHAR 2467
ENCODING 10350
SWIDTH 1600 0
DWIDTH 16 0
BBX 15 15 0 -3
BITMAP
07E0
1818
21C4
4224
4422
8422
8342
84E2
8822
8822
4424
42C4
2108
1830
07C0
ENDCHAR
STARTCHAR 2468
ENCODING 10351
SWIDTH 1600 0
DWIDTH 16 0
BBX 15 15 0 -3
BITMAP
07E0
1818
21C4
4224
4422
8422
8422
8262
81A2
8022
4424
43C4
2008
1830
07C0
ENDCHAR
STARTCHAR 2469
ENCODING 10352
SWIDTH 1600 0
DWIDTH 16 0
BBX 15 15 0 -3
BITMAP
07E0
1810
2008
4474
448A
8C8A
848A
848A
848A
848A
4454
4024
2008
1830
07C0
ENDCHAR
STARTCHAR 246A
ENCODING 10353
SWIDTH 1600 0
DWIDTH 16 0
BBX 15 15 0 -3
BITMAP
07E0
1818
2004
4414
4412
9C72
8412
8412
8412
8412
4414
4414
2008
1830
07C0
ENDCHAR
STARTCHAR 246B
ENCODING 10354
SWIDTH 1600 0
DWIDTH 16 0
BBX 15 15 0 -3
BITMAP
07E0
1818
2004
44F4
448A
8C0A
8412
8422
84C2
8482
44FC
4004
2008
1830
07C0
ENDCHAR
STARTCHAR 246C
ENCODING 10355
SWIDTH 1600 0
DWIDTH 16 0
BBX 15 15 0 -3
BITMAP
07E0
1810
2008
4464
4492
8C0A
8412
8432
840A
840A
449C
4064
2008
1830
07C0
ENDCHAR
STARTCHAR 246D
ENCODING 10356
SWIDTH 1600 0
DWIDTH 16 0
BBX 15 15 0 -3
BITMAP
07E0
1818
2004
4414
4432
8C52
8492
8492
84FA
8412
4414
4004
2008
1830
07C0
ENDCHAR
STARTCHAR 246E
ENCODING 10357
SWIDTH 1600 0
DWIDTH 16 0
BBX 15 15 0 -3
BITMAP
07E0
1810
2008
4474
4C82
8482
84F2
848A
840A
848A
4494
4064
2008
1830
07C0
ENDCHAR
STARTCHAR 00BD
ENCODING 10358
SWIDTH 1600 0
DWIDTH 16 0
BBX 12 11 2 -1
BITMAP
2080
E100
2100
2200
24E0
2510
2810
0820
10C0
1100
21F0
ENDCHAR
STARTCHAR 2153
ENCODING 10359
SWIDTH 1600 0
DWIDTH 16 0
BBX 12 11 2 -1
BITMAP
2000
E100
2200
2200
24E0
2510
2820
0860
1010
2110
20E0
ENDCHAR
STARTCHAR 2154
ENCODING 10360
SWIDTH 1600 0
DWIDTH 16 0
BBX 12 11 2 -1
BITMAP
7000
9080
1100
2100
42E0
8210
F420
0460
0810
1110
10E0
ENDCHAR
STARTCHAR 00BC
ENCODING 10361
SWIDTH 1600 0
DWIDTH 16 0
BBX 10 11 2 -1
BITMAP
2080
E080
2100
2100
2240
24C0
2540
0A40
0A40
11C0
1040
ENDCHAR
STARTCHAR 00BE
ENCODING 10362
SWIDTH 1600 0
DWIDTH 16 0
BBX 12 12 2 -1
BITMAP
7000
0840
0880
3080
0900
8920
52E0
22A0
0520
09F0
0820
0020
ENDCHAR
STARTCHAR 215B
ENCODING 10363
SWIDTH 1600 0
DWIDTH 16 0
BBX 12 11 2 -1
BITMAP
2000
E100
2200
2200
24E0
2520
2920
08E0
1110
2110
20E0
ENDCHAR
STARTCHAR 215C
ENCODING 10364
SWIDTH 1600 0
DWIDTH 16 0
BBX 13 12 1 -1
BITMAP
7000
8840
1040
3080
0900
8938
7248
0248
0478
0448
0848
0878
ENDCHAR
STARTCHAR 215D
ENCODING 10365
SWIDTH 1600 0
DWIDTH 16 0
BBX 12 12 2 -1
BITMAP
F000
8080
8080
F100
1100
12F0
F490
0490
08F0
0890
1090
10F0
ENDCHAR
STARTCHAR 215E
ENCODING 10366
SWIDTH 1600 0
DWIDTH 16 0
BBX 12 12 2 -2
BITMAP
F800
1100
1200
2200
24E0
4520
4920
08E0
1110
2120
2120
00C0
ENDCHAR
STARTCHAR 00E6
ENCODING 10529
SWIDTH 1600 0
DWIDTH 16 0
BBX 12 8 2 0
BITMAP
79C0
C630
8410
7FF0
8400
8410
8A30
79C0
ENDCHAR
STARTCHAR 0111
ENCODING 10530
SWIDTH 1600 0
DWIDTH 16 0
BBX 9 11 4 0
BITMAP
0200
1F80
0200
7A00
8600
8200
8200
8200
8200
8600
7E00
ENDCHAR
STARTCHAR 00F0
ENCODING 10531
SWIDTH 1600 0
DWIDTH 16 0
BBX 7 12 4 -1
BITMAP
64
18
28
04
04
7E
82
82
82
82
7C
38
ENDCHAR
STARTCHAR 0127
ENCODING 10532
SWIDTH 1600 0
DWIDTH 16 0
BBX 8 11 4 0
BITMAP
40
FC
40
5E
61
41
41
41
41
41
41
ENDCHAR
STARTCHAR 0131
ENCODING 10533
SWIDTH 1600 0
DWIDTH 16 0
BBX 1 8 8 0
BITMAP
80
80
80
80
80
80
80
80
ENDCHAR
STARTCHAR 0133
ENCODING 10534
SWIDTH 1600 0
DWIDTH 16 0
BBX 6 14 5 -3
BITMAP
84
00
00
84
84
84
84
84
84
84
84
04
04
18
ENDCHAR
STARTCHAR 0138
ENCODING 10535
SWIDTH 1600 0
DWIDTH 16 0
BBX 6 8 5 0
BITMAP
88
90
A0
E0
90
88
88
84
ENDCHAR
STARTCHAR 0140
ENCODING 10536
SWIDTH 1600 0
DWIDTH 16 0
BBX 4 11 6 0
BITMAP
80
80
80
80
80
B0
B0
80
80
80
80
ENDCHAR
STARTCHAR 0142
ENCODING 10537
SWIDTH 1600 0
DWIDTH 16 0
BBX 6 11 5 0
BITMAP
10
10
14
14
18
10
30
50
90
10
10
ENDCHAR
STARTCHAR 00F8
ENCODING 10538
SWIDTH 1600 0
DWIDTH 16 0
BBX 8 9 4 -1
BITMAP
19
66
45
49
51
61
42
BE
18
ENDCHAR
STARTCHAR 0153
ENCODING 10539
SWIDTH 1600 0
DWIDTH 16 0
BBX 13 8 1 0
BITMAP
3CF0
4708
8308
83F8
8200
8208
4508
28F0
ENDCHAR
STARTCHAR 00DF
ENCODING 10540
SWIDTH 1600 0
DWIDTH 16 0
BBX 7 11 4 0
BITMAP
7C
84
84
84
88
84
82
82
82
82
8C
ENDCHAR
STARTCHAR 00FE
ENCODING 10541
SWIDTH 1600 0
DWIDTH 16 0
BBX 8 13 4 -2
BITMAP
40
40
40
5C
62
41
41
81
41
43
66
58
40
ENDCHAR
STARTCHAR 0167
ENCODING 10542
SWIDTH 1600 0
DWIDTH 16 0
BBX 3 10 6 0
BITMAP
40
40
E0
40
E0
40
40
40
40
40
ENDCHAR
STARTCHAR 014B
ENCODING 10543
SWIDTH 1600 0
DWIDTH 16 0
BBX 6 11 5 -3
BITMAP
B8
C4
84
84
84
84
84
84
04
04
1C
ENDCHAR
STARTCHAR 0149
ENCODING 10544
SWIDTH 1600 0
DWIDTH 16 0
BBX 9 10 4 0
BITMAP
C000
8000
AF00
3080
2080
2080
2080
2080
2080
2080
ENDCHAR
STARTCHAR 3200
ENCODING 10545
SWIDTH 1600 0
DWIDTH 16 0
BBX 16 12 0 -2
BITMAP
6004
4002
9FF2
8011
8011
8011
8011
8011
8012
4004
4004
2000
ENDCHAR
STARTCHAR 3201
ENCODING 10546
SWIDTH 1600 0
DWIDTH 16 0
BBX 16 12 0 -2
BITMAP
6004
4002
8802
8801
8801
8801
8801
8801
8FFA
4004
4004
2000
ENDCHAR
STARTCHAR 3202
ENCODING 10547
SWIDTH 1600 0
DWIDTH 16 0
BBX 16 12 0 -2
BITMAP
6004
4002
8FFA
8801
8801
8801
8801
8801
8FFA
4004
4004
2000
ENDCHAR
STARTCHAR 3203
ENCODING 10548
SWIDTH 1600 0
DWIDTH 16 0
BBX 16 12 0 -2
BITMAP
6004
4002
8FF2
8011
8FF1
8801
8801
8801
8FFA
4004
4004
2000
ENDCHAR
STARTCHAR 3204
ENCODING 10549
SWIDTH 1600 0
DWIDTH 16 0
BBX 16 12 0 -2
BITMAP
6004
4002
8FF2
8811
8811
8811
8811
8FF1
8002
4004
4004
2000
ENDCHAR
STARTCHAR 3205
ENCODING 10550
SWIDTH 1600 0
DWIDTH 16 0
BBX 16 12 0 -2
BITMAP
6004
4002
8812
8811
8FF1
8811
8811
8FF1
8002
4004
4004
2000
ENDCHAR
STARTCHAR 3206
ENCODING 10551
SWIDTH 1600 0
DWIDTH 16 0
BBX 16 12 0 -2
BITMAP
6004
4082
8102
8101
8181
8241
8421
8811
900A
4004
4004
2000
ENDCHAR
STARTCHAR 3207
ENCODING 10552
SWIDTH 1600 0
DWIDTH 16 0
BBX 16 13 0 -2
BITMAP
1000
2004
4002
43C2
8C31
8811
8811
8811
8C31
83C2
4004
4004
2000
ENDCHAR
STARTCHAR 3208
ENCODING 10553
SWIDTH 1600 0
DWIDTH 16 0
BBX 16 12 0 -2
BITMAP
6004
4002
8FF2
8101
8181
8181
8241
8421
981A
4004
4004
2000
ENDCHAR
STARTCHAR 3209
ENCODING 10554
SWIDTH 1600 0
DWIDTH 16 0
BBX 16 12 0 -2
BITMAP
6004
43C2
8002
8FF1
8101
8181
8241
8421
981A
4004
4004
2000
ENDCHAR
STARTCHAR 320A
ENCODING 10555
SWIDTH 1600 0
DWIDTH 16 0
BBX 16 12 0 -2
BITMAP
6004
4002
9FF2
8011
8011
8F91
8011
8011
8022
4024
4004
2000
ENDCHAR
STARTCHAR 320B
ENCODING 10556
SWIDTH 1600 0
DWIDTH 16 0
BBX 16 12 0 -2
BITMAP
6004
4002
8FFA
8801
8801
8FF1
8801
8801
4FFA
4004
2004
1000
ENDCHAR
STARTCHAR 320C
ENCODING 10557
SWIDTH 1600 0
DWIDTH 16 0
BBX 16 12 0 -2
BITMAP
6004
4002
8FF2
8001
8421
8421
8421
8441
9FFA
4004
4004
2000
ENDCHAR
STARTCHAR 320D
ENCODING 10558
SWIDTH 1600 0
DWIDTH 16 0
BBX 16 12 0 -2
BITMAP
6004
43C2
8002
9FF9
8001
83C1
8421
8421
8422
43C4
4004
2000
ENDCHAR
STARTCHAR 320E
ENCODING 10559
SWIDTH 1600 0
DWIDTH 16 0
BBX 16 12 0 -2
BITMAP
6014
4012
9F12
8111
8211
821D
8411
8411
9812
4014
4014
2000
ENDCHAR
STARTCHAR 320F
ENCODING 10560
SWIDTH 1600 0
DWIDTH 16 0
BBX 16 12 0 -2
BITMAP
6014
4012
9012
9011
9011
901D
9011
9F11
8012
4014
4014
2000
ENDCHAR
STARTCHAR 3210
ENCODING 10561
SWIDTH 1600 0
DWIDTH 16 0
BBX 16 12 0 -2
BITMAP
6024
4022
9FA2
9021
9021
9039
9021
97A1
8822
4024
4024
2000
ENDCHAR
STARTCHAR 3211
ENCODING 10562
SWIDTH 1600 0
DWIDTH 16 0
BBX 16 12 0 -2
BITMAP
6024
4022
9F22
8121
9F21
9039
9021
90A1
8F22
4024
4024
2000
ENDCHAR
STARTCHAR 3212
ENCODING 10563
SWIDTH 1600 0
DWIDTH 16 0
BBX 16 12 0 -2
BITMAP
6024
4022
9F22
9121
9121
9139
9121
9F21
8022
4024
4024
2000
ENDCHAR
STARTCHAR 3213
ENCODING 10564
SWIDTH 1600 0
DWIDTH 16 0
BBX 16 12 0 -2
BITMAP
6014
4012
9112
9111
9F11
911D
9111
9F11
8012
4014
4014
2000
ENDCHAR
STARTCHAR 3214
ENCODING 10565
SWIDTH 1600 0
DWIDTH 16 0
BBX 16 12 0 -2
BITMAP
6024
4022
8422
8621
8621
8A39
8921
90A1
8022
4024
4024
2000
ENDCHAR
STARTCHAR 3215
ENCODING 10566
SWIDTH 1600 0
DWIDTH 16 0
BBX 16 12 0 -2
BITMAP
6024
4E22
9B22
9121
9121
9139
9121
9B21
8E22
4024
4024
2000
ENDCHAR
STARTCHAR 3216
ENCODING 10567
SWIDTH 1600 0
DWIDTH 16 0
BBX 16 12 0 -2
BITMAP
6024
4022
9FA2
8221
8221
8639
8521
88A1
90A2
4024
4024
2000
ENDCHAR
STARTCHAR 3217
ENCODING 10568
SWIDTH 1600 0
DWIDTH 16 0
BBX 16 12 0 -2
BITMAP
6024
4722
8022
9FA1
8221
8239
8621
8921
90A2
4024
4024
2000
ENDCHAR
STARTCHAR 3218
ENCODING 10569
SWIDTH 1600 0
DWIDTH 16 0
BBX 16 12 0 -2
BITMAP
6024
4022
9F22
8121
8121
9F39
8221
8421
8822
4024
4024
2000
ENDCHAR
STARTCHAR 3219
ENCODING 10570
SWIDTH 1600 0
DWIDTH 16 0
BBX 16 13 0 -2
BITMAP
1000
2014
4012
4F92
8811
8F91
881D
8811
89D1
8612
4014
4014
2000
ENDCHAR
STARTCHAR 321A
ENCODING 10571
SWIDTH 1600 0
DWIDTH 16 0
BBX 16 12 0 -2
BITMAP
6024
5FA2
8022
8921
8921
8939
8921
BFE1
8022
4024
4024
2000
ENDCHAR
STARTCHAR 321B
ENCODING 10572
SWIDTH 1600 0
DWIDTH 16 0
BBX 16 11 0 -1
BITMAP
6024
4622
8022
9FA1
8021
8F39
90A1
90A1
4F22
4024
2024
ENDCHAR
STARTCHAR 249C
ENCODING 10573
SWIDTH 1600 0
DWIDTH 16 0
BBX 16 12 0 -2
BITMAP
6004
4382
8442
8441
81C1
8741
8441
84C1
8302
4004
4004
2000
ENDCHAR
STARTCHAR 249D
ENCODING 10574
SWIDTH 1600 0
DWIDTH 16 0
BBX 16 12 0 -2
BITMAP
6004
4402
8402
85E1
8211
8411
8411
8411
8232
41E4
4004
2000
ENDCHAR
STARTCHAR 249E
ENCODING 10575
SWIDTH 1600 0
DWIDTH 16 0
BBX 16 12 0 -2
BITMAP
6004
4082
8342
8421
8401
8401
8421
8421
83C2
4004
4004
2000
ENDCHAR
STARTCHAR 249F
ENCODING 10576
SWIDTH 1600 0
DWIDTH 16 0
BBX 16 12 0 -2
BITMAP
6024
4022
8022
87A1
8861
8821
8821
8821
8462
43A4
4004
2000
ENDCHAR
STARTCHAR 24A0
ENCODING 10577
SWIDTH 1600 0
DWIDTH 16 0
BBX 16 12 0 -2
BITMAP
6004
4002
8182
8641
8421
87E1
8401
8421
8242
4184
4004
2000
ENDCHAR
STARTCHAR 24A1
ENCODING 10578
SWIDTH 1600 0
DWIDTH 16 0
BBX 16 12 0 -2
BITMAP
6084
4102
8102
8381
8101
8101
8101
8101
8102
4104
4004
2000
ENDCHAR
STARTCHAR 24A2
ENCODING 10579
SWIDTH 1600 0
DWIDTH 16 0
BBX 16 12 0 -2
BITMAP
6104
46E2
8422
8821
8821
8821
8461
83A1
8022
47C4
4004
2000
ENDCHAR
STARTCHAR 24A3
ENCODING 10580
SWIDTH 1600 0
DWIDTH 16 0
BBX 16 12 0 -2
BITMAP
6004
4402
8402
85E1
8221
8421
8421
8421
8422
4024
4004
2000
ENDCHAR
STARTCHAR 24A4
ENCODING 10581
SWIDTH 1600 0
DWIDTH 16 0
BBX 16 12 0 -2
BITMAP
6104
4002
8002
8101
8101
8101
8101
8101
8102
4104
4004
2000
ENDCHAR
STARTCHAR 24A5
ENCODING 10582
SWIDTH 1600 0
DWIDTH 16 0
BBX 16 12 0 -2
BITMAP
6004
4002
8002
8101
8101
8101
8101
8101
8102
4104
4104
2300
ENDCHAR
STARTCHAR 24A6
ENCODING 10583
SWIDTH 1600 0
DWIDTH 16 0
BBX 16 12 0 -2
BITMAP
6404
4402
8402
8441
8481
8501
8681
8481
8442
4404
4004
2000
ENDCHAR
STARTCHAR 24A7
ENCODING 10584
SWIDTH 1600 0
DWIDTH 16 0
BBX 16 12 0 -2
BITMAP
6104
4102
8102
8101
8101
8101
8101
8101
8102
4104
4004
2000
ENDCHAR
STARTCHAR 24A8
ENCODING 10585
SWIDTH 1600 0
DWIDTH 16 0
BBX 16 12 0 -2
BITMAP
6004
4232
8DCA
9089
9089
9089
9089
9089
808A
4004
4004
2000
ENDCHAR
STARTCHAR 24A9
ENCODING 10586
SWIDTH 1600 0
DWIDTH 16 0
BBX 16 12 0 -2
BITMAP
6004
4002
87E2
8421
8421
8421
8421
8421
8422
4004
4004
2000
ENDCHAR
STARTCHAR 24AA
ENCODING 10587
SWIDTH 1600 0
DWIDTH 16 0
BBX 16 11 0 -1
BITMAP
6004
43C2
8662
8421
8421
8421
8421
8661
43C2
4004
2004
ENDCHAR
STARTCHAR 24AB
ENCODING 10588
SWIDTH 1600 0
DWIDTH 16 0
BBX 16 12 0 -2
BITMAP
6004
45E2
8612
8411
8411
8411
8621
85C1
8402
4404
4004
2000
ENDCHAR
STARTCHAR 24AC
ENCODING 10589
SWIDTH 1600 0
DWIDTH 16 0
BBX 16 12 0 -2
BITMAP
6004
47A2
8462
8821
8821
8821
8461
83A1
8022
4024
4004
2000
ENDCHAR
STARTCHAR 24AD
ENCODING 10590
SWIDTH 1600 0
DWIDTH 16 0
BBX 16 12 0 -2
BITMAP
6004
4002
81C2
8101
8101
8101
8101
8101
8102
4004
4004
2000
ENDCHAR
STARTCHAR 24AE
ENCODING 10591
SWIDTH 1600 0
DWIDTH 16 0
BBX 16 12 0 -2
BITMAP
6004
4382
8442
8401
8301
80C1
8421
8241
8182
4004
4004
2000
ENDCHAR
STARTCHAR 24AF
ENCODING 10592
SWIDTH 1600 0
DWIDTH 16 0
BBX 16 12 0 -2
BITMAP
6004
4102
8102
8381
8101
8101
8101
8101
8102
4104
4004
2000
ENDCHAR
STARTCHAR 24B0
ENCODING 10593
SWIDTH 1600 0
DWIDTH 16 0
BBX 16 12 0 -2
BITMAP
6004
4002
8422
8421
8421
8421
8421
8421
83E2
4004
4004
2000
ENDCHAR
STARTCHAR 24B1
ENCODING 10594
SWIDTH 1600 0
DWIDTH 16 0
BBX 16 12 0 -2
BITMAP
6004
4002
8422
8421
8441
8241
8281
8181
8182
4004
4004
2000
ENDCHAR
STARTCHAR 24B2
ENCODING 10595
SWIDTH 1600 0
DWIDTH 16 0
BBX 16 12 0 -2
BITMAP
6004
4002
808A
8991
8991
8A51
8A61
8661
8622
4004
4004
2000
ENDCHAR
STARTCHAR 24B3
ENCODING 10596
SWIDTH 1600 0
DWIDTH 16 0
BBX 16 12 0 -2
BITMAP
6004
4002
8242
8241
8181
8181
8241
8241
8422
4004
4004
2000
ENDCHAR
STARTCHAR 24B4
ENCODING 10597
SWIDTH 1600 0
DWIDTH 16 0
BBX 16 12 0 -2
BITMAP
6004
4422
8422
8241
8241
8141
8181
8081
8102
4104
4204
2000
ENDCHAR
STARTCHAR 24B5
ENCODING 10598
SWIDTH 1600 0
DWIDTH 16 0
BBX 16 12 0 -2
BITMAP
6004
4002
87E2
8041
8081
8101
8201
8401
87E2
4004
4004
2000
ENDCHAR
STARTCHAR 2474
ENCODING 10599
SWIDTH 1600 0
DWIDTH 16 0
BBX 16 12 0 -2
BITMAP
6084
4082
8382
8081
8081
8081
8081
8081
8082
4084
4004
2000
ENDCHAR
STARTCHAR 2475
ENCODING 10600
SWIDTH 1600 0
DWIDTH 16 0
BBX 16 12 0 -2
BITMAP
63C4
4422
8422
8021
8041
8081
8301
8401
8402
47E4
4004
2000
ENDCHAR
STARTCHAR 2476
ENCODING 10601
SWIDTH 1600 0
DWIDTH 16 0
BBX 16 12 0 -2
BITMAP
63C4
4442
8422
8021
80C1
8041
8021
8421
8422
4244
4184
2000
ENDCHAR
STARTCHAR 2477
ENCODING 10602
SWIDTH 1600 0
DWIDTH 16 0
BBX 16 12 0 -2
BITMAP
6004
4182
8182
8281
8481
8481
8881
8FC1
8082
4084
4084
2000
ENDCHAR
STARTCHAR 2478
ENCODING 10603
SWIDTH 1600 0
DWIDTH 16 0
BBX 16 12 0 -2
BITMAP
67C4
4402
8402
8401
87C1
8021
8021
8421
8462
43C4
4004
2000
ENDCHAR
STARTCHAR 2479
ENCODING 10604
SWIDTH 1600 0
DWIDTH 16 0
BBX 16 12 0 -2
BITMAP
6184
4242
8422
8401
8BC1
8421
8821
8821
8422
42C4
4104
2000
ENDCHAR
STARTCHAR 247A
ENCODING 10605
SWIDTH 1600 0
DWIDTH 16 0
BBX 16 12 0 -2
BITMAP
6004
47E2
8022
8041
8081
8081
8101
8101
8102
4104
4204
2000
ENDCHAR
STARTCHAR 247B
ENCODING 10606
SWIDTH 1600 0
DWIDTH 16 0
BBX 16 12 0 -2
BITMAP
63C4
4422
8422
8441
8381
8441
8821
8821
8462
43C4
4004
2000
ENDCHAR
STARTCHAR 247C
ENCODING 10607
SWIDTH 1600 0
DWIDTH 16 0
BBX 16 12 0 -2
BITMAP
6184
4642
8422
8421
8421
8261
81A1
8021
8042
42C4
4104
2000
ENDCHAR
STARTCHAR 247D
ENCODING 10608
SWIDTH 1600 0
DWIDTH 16 0
BBX 16 12 0 -2
BITMAP
6474
4CDA
848A
8489
8489
8489
8489
8489
848A
4454
4034
2000
ENDCHAR
STARTCHAR 247E
ENCODING 10609
SWIDTH 1600 0
DWIDTH 16 0
BBX 16 12 0 -2
BITMAP
6424
4C62
8422
8421
8421
8421
8421
8421
8422
4424
4004
2000
ENDCHAR
STARTCHAR 247F
ENCODING 10610
SWIDTH 1600 0
DWIDTH 16 0
BBX 16 12 0 -2
BITMAP
6474
4C92
8492
8411
8411
8421
8441
8481
8482
4484
40F4
2000
ENDCHAR
STARTCHAR 2480
ENCODING 10611
SWIDTH 1600 0
DWIDTH 16 0
BBX 16 12 0 -2
BITMAP
6474
4C4A
840A
8411
8421
8411
8409
8409
840A
4454
4034
2000
ENDCHAR
STARTCHAR 2481
ENCODING 10612
SWIDTH 1600 0
DWIDTH 16 0
BBX 16 12 0 -2
BITMAP
6414
4C32
8452
8451
8451
8491
8491
84F9
8412
4414
4004
2000
ENDCHAR
STARTCHAR 2482
ENCODING 10613
SWIDTH 1600 0
DWIDTH 16 0
BBX 16 12 0 -2
BITMAP
64F4
4C82
8482
8481
84F1
8489
8409
8409
840A
440C
4074
2000
ENDCHAR
STARTCHAR 00B9
ENCODING 10614
SWIDTH 1600 0
DWIDTH 16 0
BBX 3 6 6 6
BITMAP
20
E0
20
20
20
20
ENDCHAR
STARTCHAR 00B2
ENCODING 10615
SWIDTH 1600 0
DWIDTH 16 0
BBX 4 7 6 5
BITMAP
70
90
10
30
40
80
F0
ENDCHAR
STARTCHAR 00B3
ENCODING 10616
SWIDTH 1600 0
DWIDTH 16 0
BBX 5 7 5 5
BITMAP
70
08
30
08
88
50
20
ENDCHAR
STARTCHAR 2074
ENCODING 10617
SWIDTH 1600 0
DWIDTH 16 0
BBX 5 6 6 6
BITMAP
10
30
50
90
F8
10
ENDCHAR
STARTCHAR 207F
ENCODING 10618
SWIDTH 1600 0
DWIDTH 16 0
BBX 4 6 6 6
BITMAP
20
D0
90
90
90
90
ENDCHAR
STARTCHAR 2081
ENCODING 10619
SWIDTH 1600 0
DWIDTH 16 0
BBX 3 7 6 -3
BITMAP
20
E0
20
20
20
20
20
ENDCHAR
STARTCHAR 2082
ENCODING 10620
SWIDTH 1600 0
DWIDTH 16 0
BBX 4 7 6 -3
BITMAP
70
90
10
20
C0
80
F0
ENDCHAR
STARTCHAR 2083
ENCODING 10621
SWIDTH 1600 0
DWIDTH 16 0
BBX 5 7 5 -3
BITMAP
70
88
10
30
08
88
70
ENDCHAR
STARTCHAR 2084
ENCODING 10622
SWIDTH 1600 0
DWIDTH 16 0
BBX 5 7 6 -3
BITMAP
10
30
50
90
F8
10
10
ENDCHAR
STARTCHAR 3041
ENCODING 10785
SWIDTH 1600 0
DWIDTH 16 0
BBX 8 9 4 -2
BITMAP
10
2C
30
24
7B
A9
91
F1
06
ENDCHAR
STARTCHAR 3042
ENCODING 10786
SWIDTH 1600 0
DWIDTH 16 0
BBX 12 13 2 -2
BITMAP
0C00
0800
0F80
3800
0900
0FC0
1920
6A10
8A10
8C10
9810
F420
00C0
ENDCHAR
STARTCHAR 3043
ENCODING 10787
SWIDTH 1600 0
DWIDTH 16 0
BBX 8 7 4 -2
BITMAP
80
80
82
81
81
50
20
ENDCHAR
STARTCHAR 3044
ENCODING 10788
SWIDTH 1600 0
DWIDTH 16 0
BBX 12 9 2 1
BITMAP
8000
8000
8040
8060
8020
8030
4010
4800
3800
ENDCHAR
STARTCHAR 3045
ENCODING 10789
SWIDTH 1600 0
DWIDTH 16 0
BBX 5 10 6 -2
BITMAP
60
00
00
20
D0
08
08
10
10
20
ENDCHAR
STARTCHAR 3046
ENCODING 10790
SWIDTH 1600 0
DWIDTH 16 0
BBX 7 13 5 -2
BITMAP
20
1C
00
18
E4
02
02
02
02
04
04
08
10
ENDCHAR
STARTCHAR 3047
ENCODING 10791
SWIDTH 1600 0
DWIDTH 16 0
BBX 8 9 4 -2
BITMAP
18
00
00
78
10
38
28
48
87
ENDCHAR
STARTCHAR 3048
ENCODING 10792
SWIDTH 1600 0
DWIDTH 16 0
BBX 12 12 2 -1
BITMAP
0400
0300
0000
0300
3D00
0200
0400
0C00
1A00
2100
6100
C1F0
ENDCHAR
STARTCHAR 3049
ENCODING 10793
SWIDTH 1600 0
DWIDTH 16 0
BBX 8 9 4 -2
BITMAP
20
2A
F1
20
3F
61
A1
A2
40
ENDCHAR
STARTCHAR 304A
ENCODING 10794
SWIDTH 1600 0
DWIDTH 16 0
BBX 12 12 2 -1
BITMAP
1000
1000
1060
7C10
1000
1000
17C0
3820
5020
9020
9020
70C0
ENDCHAR
STARTCHAR 304B
ENCODING 10795
SWIDTH 1600 0
DWIDTH 16 0
BBX 13 12 1 -1
BITMAP
0C00
0800
0800
1F10
7098
1088
1080
2080
2100
4100
C300
0400
ENDCHAR
STARTCHAR 304C
ENCODING 10796
SWIDTH 1600 0
DWIDTH 16 0
BBX 14 13 1 -1
BITMAP
0008
0814
0808
0800
0F10
7110
1088
1080
2100
2100
4100
C100
0E00
ENDCHAR
STARTCHAR 304D
ENCODING 10797
SWIDTH 1600 0
DWIDTH 16 0
BBX 9 13 3 -2
BITMAP
0800
0900
3E00
0480
0700
7A00
0100
1C80
6380
8000
4000
3800
0400
ENDCHAR
STARTCHAR 304E
ENCODING 10798
SWIDTH 1600 0
DWIDTH 16 0
BBX 12 13 2 -2
BITMAP
0820
0B50
7C00
0480
0700
7A00
0100
3D00
4380
8000
4000
3A00
0400
ENDCHAR
STARTCHAR 304F
ENCODING 10799
SWIDTH 1600 0
DWIDTH 16 0
BBX 6 12 5 -1
BITMAP
08
08
10
20
40
80
40
20
10
18
08
04
ENDCHAR
STARTCHAR 3050
ENCODING 10800
SWIDTH 1600 0
DWIDTH 16 0
BBX 9 13 3 -2
BITMAP
0800
0800
1080
2100
2000
4000
C000
4000
2000
1000
0800
0800
0400
ENDCHAR
STARTCHAR 3051
ENCODING 10801
SWIDTH 1600 0
DWIDTH 16 0
BBX 12 13 2 -1
BITMAP
0080
4080
4080
80F0
8780
8080
8080
8080
8080
8080
C080
4100
4200
ENDCHAR
STARTCHAR 3052
ENCODING 10802
SWIDTH 1600 0
DWIDTH 16 0
BBX 13 14 1 -2
BITMAP
0008
4010
4040
4040
8070
87C0
8040
8040
8040
8040
4080
4080
4180
0100
ENDCHAR
STARTCHAR 3053
ENCODING 10803
SWIDTH 1600 0
DWIDTH 16 0
BBX 10 10 3 0
BITMAP
3F80
0000
0000
0000
0000
0000
8000
8000
4000
3FC0
ENDCHAR
STARTCHAR 3054
ENCODING 10804
SWIDTH 1600 0
DWIDTH 16 0
BBX 13 10 1 0
BITMAP
1F80
0008
0010
0000
0000
0000
4000
8000
4000
3FC0
ENDCHAR
STARTCHAR 3055
ENCODING 10805
SWIDTH 1600 0
DWIDTH 16 0
BBX 9 12 3 -1
BITMAP
0800
0400
0780
7E00
0200
0100
0080
7F80
8000
8000
4000
3E00
ENDCHAR
STARTCHAR 3056
ENCODING 10806
SWIDTH 1600 0
DWIDTH 16 0
BBX 12 13 2 -1
BITMAP
0020
0850
0820
0780
7C00
0200
0200
0100
7F80
8000
8000
C000
3E00
ENDCHAR
STARTCHAR 3057
ENCODING 10807
SWIDTH 1600 0
DWIDTH 16 0
BBX 8 12 4 -1
BITMAP
80
80
80
80
80
80
80
80
81
81
82
7C
ENDCHAR
STARTCHAR 3058
ENCODING 10808
SWIDTH 1600 0
DWIDTH 16 0
BBX 8 13 4 -2
BITMAP
80
82
84
80
80
80
80
80
80
81
83
86
78
ENDCHAR
STARTCHAR 3059
ENCODING 10809
SWIDTH 1600 0
DWIDTH 16 0
BBX 13 13 1 -2
BITMAP
0100
0100
0FF8
F100
0100
0F00
1100
1100
0B00
0500
0200
0200
0C00
ENDCHAR
STARTCHAR 305A
ENCODING 10810
SWIDTH 1600 0
DWIDTH 16 0
BBX 13 15 1 -2
BITMAP
0008
0000
0110
0100
7FF8
8100
0100
0F00
1100
1100
0B00
0500
0200
0200
0C00
ENDCHAR
STARTCHAR 305B
ENCODING 10811
SWIDTH 1600 0
DWIDTH 16 0
BBX 13 12 1 -1
BITMAP
0040
1040
1040
1078
FFC0
1040
1040
1180
1000
1000
0800
07E0
ENDCHAR
STARTCHAR 305C
ENCODING 10812
SWIDTH 1600 0
DWIDTH 16 0
BBX 13 12 1 -1
BITMAP
0008
1048
1040
1040
1FF8
F040
1080
1080
1180
1000
1000
0FE0
ENDCHAR
STARTCHAR 305D
ENCODING 10813
SWIDTH 1600 0
DWIDTH 16 0
BBX 12 12 2 -1
BITMAP
00C0
1080
0100
0200
07F0
F900
0200
0400
0400
0400
0200
0180
ENDCHAR
STARTCHAR 305E
ENCODING 10814
SWIDTH 1600 0
DWIDTH 16 0
BBX 13 12 1 -1
BITMAP
00C8
1090
0100
0200
07F0
F900
0200
0400
0400
0400
0200
0180
ENDCHAR
STARTCHAR 305F
ENCODING 10815
SWIDTH 1600 0
DWIDTH 16 0
BBX 12 12 2 -1
BITMAP
1800
1000
1400
F800
11E0
2000
2000
2000
2000
4400
4200
41F0
ENDCHAR
STARTCHAR 3060
ENCODING 10816
SWIDTH 1600 0
DWIDTH 16 0
BBX 12 12 2 -1
BITMAP
1010
1000
2020
F000
23E0
2000
2000
4000
4000
4800
8400
83E0
ENDCHAR
STARTCHAR 3061
ENCODING 10817
SWIDTH 1600 0
DWIDTH 16 0
BBX 10 12 3 -1
BITMAP
2000
2000
2E00
F000
2000
2000
2FC0
5040
2040
0040
0080
0F00
ENDCHAR
STARTCHAR 3062
ENCODING 10818
SWIDTH 1600 0
DWIDTH 16 0
BBX 12 12 2 -1
BITMAP
1000
1010
1F20
F000
2000
2000
27C0
3820
2020
0020
0040
0780
ENDCHAR
STARTCHAR 3063
ENCODING 10819
SWIDTH 1600 0
DWIDTH 16 0
BBX 8 6 4 -2
BITMAP
3E
C1
01
01
02
0C
ENDCHAR
STARTCHAR 3064
ENCODING 10820
SWIDTH 1600 0
DWIDTH 16 0
BBX 12 9 2 0
BITMAP
0FC0
F030
0010
0010
0010
0010
0020
00C0
0300
ENDCHAR
STARTCHAR 3065
ENCODING 10821
SWIDTH 1600 0
DWIDTH 16 0
BBX 14 11 1 0
BITMAP
0008
0014
0FC0
F030
8010
0010
0010
0010
0020
00C0
0300
ENDCHAR
STARTCHAR 3066
ENCODING 10822
SWIDTH 1600 0
DWIDTH 16 0
BBX 12 11 2 -1
BITMAP
01F0
FE80
0100
0200
0400
0400
0400
0400
0200
0100
00C0
ENDCHAR
STARTCHAR 3067
ENCODING 10823
SWIDTH 1600 0
DWIDTH 16 0
BBX 14 11 1 -1
BITMAP
01F0
FE80
0108
0214
0400
0400
0400
0400
0200
0100
00C0
ENDCHAR
STARTCHAR 3068
ENCODING 10824
SWIDTH 1600 0
DWIDTH 16 0
BBX 8 12 4 -1
BITMAP
40
20
23
26
18
20
40
80
80
80
63
1C
ENDCHAR
STARTCHAR 3069
ENCODING 10825
SWIDTH 1600 0
DWIDTH 16 0
BBX 12 12 2 -1
BITMAP
2020
2050
2000
1300
1C00
1000
6000
4000
8000
8000
4080
3F00
ENDCHAR
STARTCHAR 306A
ENCODING 10826
SWIDTH 1600 0
DWIDTH 16 0
BBX 12 13 2 -2
BITMAP
1800
1000
1C60
F010
2100
2100
4100
4100
8100
0F80
1160
1900
0600
ENDCHAR
STARTCHAR 306B
ENCODING 10827
SWIDTH 1600 0
DWIDTH 16 0
BBX 12 11 2 -1
BITMAP
4000
47E0
4000
8000
8000
8000
8000
8400
C400
43F0
4000
ENDCHAR
STARTCHAR 306C
ENCODING 10828
SWIDTH 1600 0
DWIDTH 16 0
BBX 13 12 1 -1
BITMAP
0200
0200
4380
2E60
3210
2410
5410
4C10
8C10
8DF0
7128
00C0
ENDCHAR
STARTCHAR 306D
ENCODING 10829
SWIDTH 1600 0
DWIDTH 16 0
BBX 12 12 2 -1
BITMAP
2000
2000
2000
F3E0
2C20
3020
6020
6020
A1E0
2230
2240
2180
ENDCHAR
STARTCHAR 306E
ENCODING 10830
SWIDTH 1600 0
DWIDTH 16 0
BBX 13 10 1 0
BITMAP
0FE0
1910
2108
4208
4208
8408
8408
4408
4810
3060
ENDCHAR
STARTCHAR 306F
ENCODING 10831
SWIDTH 1600 0
DWIDTH 16 0
BBX 12 12 2 -1
BITMAP
4080
4080
8090
87E0
8080
8080
8080
8080
A380
C4F0
4880
4700
ENDCHAR
STARTCHAR 3070
ENCODING 10832
SWIDTH 1600 0
DWIDTH 16 0
BBX 13 13 1 -1
BITMAP
0008
4080
4080
4080
4FE0
8080
8080
8080
8080
8080
CF60
4C90
4780
ENDCHAR
STARTCHAR 3071
ENCODING 10833
SWIDTH 1600 0
DWIDTH 16 0
BBX 14 13 1 -1
BITMAP
001C
6094
409C
4080
4FE0
8080
8080
8080
8080
8080
6760
4C90
4780
ENDCHAR
STARTCHAR 3072
ENCODING 10834
SWIDTH 1600 0
DWIDTH 16 0
BBX 12 12 2 -1
BITMAP
1080
F0C0
20C0
40A0
4090
4080
8080
8080
8080
4100
2200
1C00
ENDCHAR
STARTCHAR 3073
ENCODING 10835
SWIDTH 1600 0
DWIDTH 16 0
BBX 14 12 1 -1
BITMAP
0008
1854
F040
2060
2050
4040
4040
4080
4080
4080
2100
1E00
ENDCHAR
STARTCHAR 3074
ENCODING 10836
SWIDTH 1600 0
DWIDTH 16 0
BBX 14 12 1 -1
BITMAP
003C
1864
F05C
2060
2050
4040
4040
4040
4080
4080
2100
1E00
ENDCHAR
STARTCHAR 3075
ENCODING 10837
SWIDTH 1600 0
DWIDTH 16 0
BBX 12 12 2 -1
BITMAP
0400
0200
0000
0000
0800
0800
0400
0220
8210
A110
C500
0200
ENDCHAR
STARTCHAR 3076
ENCODING 10838
SWIDTH 1600 0
DWIDTH 16 0
BBX 12 12 2 -1
BITMAP
0400
0200
0010
0020
0800
0800
0400
0220
8210
A110
C500
0200
ENDCHAR
STARTCHAR 3077
ENCODING 10839
SWIDTH 1600 0
DWIDTH 16 0
BBX 12 12 2 -1
BITMAP
0400
0200
0070
0050
0870
0800
0400
0220
8210
A110
C500
0200
ENDCHAR
STARTCHAR 3078
ENCODING 10840
SWIDTH 1600 0
DWIDTH 16 0
BBX 14 6 1 2
BITMAP
0C00
1300
6080
C060
0018
000C
ENDCHAR
STARTCHAR 3079
ENCODING 10841
SWIDTH 1600 0
DWIDTH 16 0
BBX 14 7 1 2
BITMAP
0010
0C20
1300
6080
C060
0018
000C
ENDCHAR
STARTCHAR 307A
ENCODING 10842
SWIDTH 1600 0
DWIDTH 16 0
BBX 14 7 1 2
BITMAP
0038
0C28
1328
6090
C060
0018
000C
ENDCHAR
STARTCHAR 307B
ENCODING 10843
SWIDTH 1600 0
DWIDTH 16 0
BBX 12 12 2 -1
BITMAP
40E0
4780
8080
8080
8FC0
8080
8080
8080
8780
CCE0
C8B0
0700
ENDCHAR
STARTCHAR 307C
ENCODING 10844
SWIDTH 1600 0
DWIDTH 16 0
BBX 13 12 1 -1
BITMAP
6020
4FC8
4090
4080
8BE0
8480
8080
8080
8080
CFC0
48A0
4F00
ENDCHAR
STARTCHAR 307D
ENCODING 10845
SWIDTH 1600 0
DWIDTH 16 0
BBX 14 12 1 -1
BITMAP
0020
4FFC
40A4
409C
80A0
8FC0
8080
8080
8080
CF80
48E0
4F80
ENDCHAR
STARTCHAR 307E
ENCODING 10846
SWIDTH 1600 0
DWIDTH 16 0
BBX 8 12 4 -1
BITMAP
08
08
0E
78
08
FE
08
08
08
FC
8B
F8
ENDCHAR
STARTCHAR 307F
ENCODING 10847
SWIDTH 1600 0
DWIDTH 16 0
BBX 13 12 2 -1
BITMAP
0200
3E00
0200
0420
0420
0820
3FC0
4860
9058
9080
E180
0300
ENDCHAR
STARTCHAR 3080
ENCODING 10848
SWIDTH 1600 0
DWIDTH 16 0
BBX 13 12 1 -1
BITMAP
0800
0800
7E10
0808
0800
7800
8800
8800
4800
3010
1030
0FC0
ENDCHAR
STARTCHAR 3081
ENCODING 10849
SWIDTH 1600 0
DWIDTH 16 0
BBX 12 12 2 -1
BITMAP
0100
0100
4100
2EC0
3220
6210
9410
8C10
8810
9420
E060
0180
ENDCHAR
STARTCHAR 3082
ENCODING 10850
SWIDTH 1600 0
DWIDTH 16 0
BBX 10 12 3 -1
BITMAP
1000
1000
1000
7C00
2000
2000
FC80
2080
2040
2040
2080
1F00
ENDCHAR
STARTCHAR 3083
ENCODING 10851
SWIDTH 1600 0
DWIDTH 16 0
BBX 8 8 4 -1
BITMAP
10
00
07
59
E1
2F
20
10
ENDCHAR
STARTCHAR 3084
ENCODING 10852
SWIDTH 1600 0
DWIDTH 16 0
BBX 12 11 2 0
BITMAP
0400
4240
23B0
2C10
7010
9010
09E0
0800
0400
0400
0600
ENDCHAR
STARTCHAR 3085
ENCODING 10853
SWIDTH 1600 0
DWIDTH 16 0
BBX 9 9 3 -2
BITMAP
0200
4200
8D00
B480
C480
4480
4D00
4A00
0800
ENDCHAR
STARTCHAR 3086
ENCODING 10854
SWIDTH 1600 0
DWIDTH 16 0
BBX 12 12 2 -1
BITMAP
0100
4100
87C0
8920
9110
A110
C110
C110
8520
83C0
0200
0400
ENDCHAR
STARTCHAR 3087
ENCODING 10855
SWIDTH 1600 0
DWIDTH 16 0
BBX 7 9 4 -2
BITMAP
08
08
0E
08
08
08
78
8E
78
ENDCHAR
STARTCHAR 3088
ENCODING 10856
SWIDTH 1600 0
DWIDTH 16 0
BBX 10 12 3 -1
BITMAP
0400
0400
0400
07C0
0400
0400
0400
0400
3C00
C780
8440
7800
ENDCHAR
STARTCHAR 3089
ENCODING 10857
SWIDTH 1600 0
DWIDTH 16 0
BBX 9 12 4 -1
BITMAP
6000
1000
8000
8000
8000
8E00
B100
C100
8080
0100
0300
1C00
ENDCHAR
STARTCHAR 308A
ENCODING 10858
SWIDTH 1600 0
DWIDTH 16 0
BBX 8 12 4 -1
BITMAP
42
42
42
81
81
A2
C2
42
02
04
04
08
ENDCHAR
STARTCHAR 308B
ENCODING 10859
SWIDTH 1600 0
DWIDTH 16 0
BBX 10 12 3 -1
BITMAP
0200
7E00
0400
0800
1000
3F80
4040
8040
1840
2440
2280
1F00
ENDCHAR
STARTCHAR 308C
ENCODING 10860
SWIDTH 1600 0
DWIDTH 16 0
BBX 13 12 1 -1
BITMAP
1000
1000
10C0
3B20
5420
1840
3040
3040
5040
9048
1078
1000
ENDCHAR
STARTCHAR 308D
ENCODING 10861
SWIDTH 1600 0
DWIDTH 16 0
BBX 10 12 3 -1
BITMAP
0E00
3200
0400
0800
1000
2F80
7040
C040
8040
0040
0180
0600
ENDCHAR
STARTCHAR 308E
ENCODING 10862
SWIDTH 1600 0
DWIDTH 16 0
BBX 9 9 4 -2
BITMAP
2000
2000
7200
2D00
3080
6080
A080
2100
2000
ENDCHAR
STARTCHAR 308F
ENCODING 10863
SWIDTH 1600 0
DWIDTH 16 0
BBX 12 12 2 -1
BITMAP
1000
1000
1000
7800
17E0
1810
3010
5010
5010
9010
1060
1000
ENDCHAR
STARTCHAR 3090
ENCODING 10864
SWIDTH 1600 0
DWIDTH 16 0
BBX 12 12 2 -1
BITMAP
0200
3E00
0200
0400
0780
1C60
6810
4810
9010
9710
A4A0
67C0
ENDCHAR
STARTCHAR 3091
ENCODING 10865
SWIDTH 1600 0
DWIDTH 16 0
BBX 12 12 2 -1
BITMAP
0100
1F00
0200
0400
0FC0
3040
2E40
0640
0980
31C0
5A20
8410
ENDCHAR
STARTCHAR 3092
ENCODING 10866
SWIDTH 1600 0
DWIDTH 16 0
BBX 10 12 3 -1
BITMAP
0800
1200
FC00
2000
4000
7CC0
8300
8E00
1200
2000
2000
1F00
ENDCHAR
STARTCHAR 3093
ENCODING 10867
SWIDTH 1600 0
DWIDTH 16 0
BBX 12 12 2 -1
BITMAP
0400
0400
0C00
0800
1800
1000
2C00
3200
6200
4110
C120
80C0
ENDCHAR
STARTCHAR 30A1
ENCODING 11041
SWIDTH 1600 0
DWIDTH 16 0
BBX 8 8 4 -2
BITMAP
FF
02
14
10
10
20
20
40
ENDCHAR
STARTCHAR 30A2
ENCODING 11042
SWIDTH 1600 0
DWIDTH 16 0
BBX 12 10 2 0
BITMAP
FFE0
0030
0440
0480
0500
0800
0800
0800
1000
6000
ENDCHAR
STARTCHAR 30A3
ENCODING 11043
SWIDTH 1600 0
DWIDTH 16 0
BBX 6 9 5 -2
BITMAP
04
04
18
30
D0
10
10
10
10
ENDCHAR
STARTCHAR 30A4
ENCODING 11044
SWIDTH 1600 0
DWIDTH 16 0
BBX 9 12 4 -1
BITMAP
0080
0180
0300
0400
1C00
6400
8400
0400
0400
0400
0400
0400
ENDCHAR
STARTCHAR 30A5
ENCODING 11045
SWIDTH 1600 0
DWIDTH 16 0
BBX 8 8 4 -2
BITMAP
10
FF
81
81
02
02
04
18
ENDCHAR
STARTCHAR 30A6
ENCODING 11046
SWIDTH 1600 0
DWIDTH 16 0
BBX 10 12 3 -1
BITMAP
0800
0800
FFC0
8040
8080
8080
0080
0100
0100
0200
0400
0800
ENDCHAR
STARTCHAR 30A7
ENCODING 11047
SWIDTH 1600 0
DWIDTH 16 0
BBX 9 6 3 -2
BITMAP
7F00
0800
0800
0800
0800
FF80
ENDCHAR
STARTCHAR 30A8
ENCODING 11048
SWIDTH 1600 0
DWIDTH 16 0
BBX 12 8 2 1
BITMAP
7FC0
0400
0400
0400
0400
0400
0400
FFF0
ENDCHAR
STARTCHAR 30A9
ENCODING 11049
SWIDTH 1600 0
DWIDTH 16 0
BBX 8 8 5 -2
BITMAP
08
FF
18
28
28
C8
08
18
ENDCHAR
STARTCHAR 30AA
ENCODING 11050
SWIDTH 1600 0
DWIDTH 16 0
BBX 12 12 2 -1
BITMAP
0100
0100
0100
7FF0
0300
0500
0D00
1900
3100
C100
0100
0700
ENDCHAR
STARTCHAR 30AB
ENCODING 11051
SWIDTH 1600 0
DWIDTH 16 0
BBX 11 11 2 -1
BITMAP
0400
0400
7FE0
0420
0420
0820
0820
1020
2040
C040
0180
ENDCHAR
STARTCHAR 30AC
ENCODING 11052
SWIDTH 1600 0
DWIDTH 16 0
BBX 13 12 1 -1
BITMAP
0408
0410
0400
7FE0
0420
0420
0820
0820
1020
2040
C040
0180
ENDCHAR
STARTCHAR 30AD
ENCODING 11053
SWIDTH 1600 0
DWIDTH 16 0
BBX 10 12 3 -1
BITMAP
0800
0800
0B80
FC00
0800
0800
1FC0
E400
0400
0400
0400
0400
ENDCHAR
STARTCHAR 30AE
ENCODING 11054
SWIDTH 1600 0
DWIDTH 16 0
BBX 12 12 2 0
BITMAP
0010
0800
0820
0B80
7C00
0800
0400
1FC0
E400
0400
0400
0400
ENDCHAR
STARTCHAR 30AF
ENCODING 11055
SWIDTH 1600 0
DWIDTH 16 0
BBX 10 12 3 -1
BITMAP
0400
0800
1FC0
3080
6080
8100
0100
0200
0400
0800
3000
C000
ENDCHAR
STARTCHAR 30B0
ENCODING 11056
SWIDTH 1600 0
DWIDTH 16 0
BBX 12 13 2 -1
BITMAP
0010
0C00
0820
1F80
2080
4080
8100
0200
0600
0C00
1800
2000
C000
ENDCHAR
STARTCHAR 30B1
ENCODING 11057
SWIDTH 1600 0
DWIDTH 16 0
BBX 12 12 2 -1
BITMAP
0800
0800
1000
1FF0
2100
4100
8100
0100
0200
0600
0C00
0800
ENDCHAR
STARTCHAR 30B2
ENCODING 11058
SWIDTH 1600 0
DWIDTH 16 0
BBX 14 13 1 -1
BITMAP
0008
0814
0808
1000
1FF0
2100
4100
8100
0100
0200
0200
0400
0800
ENDCHAR
STARTCHAR 30B3
ENCODING 11059
SWIDTH 1600 0
DWIDTH 16 0
BBX 9 9 4 0
BITMAP
FF80
0080
0080
0080
0080
0080
0080
FF80
0080
ENDCHAR
STARTCHAR 30B4
ENCODING 11060
SWIDTH 1600 0
DWIDTH 16 0
BBX 12 12 2 0
BITMAP
0020
0010
0000
FF80
0080
0080
0080
0080
0080
0080
FF80
0080
ENDCHAR
STARTCHAR 30B5
ENCODING 11061
SWIDTH 1600 0
DWIDTH 16 0
BBX 12 12 2 -1
BITMAP
1080
1080
1080
FFF0
1080
1080
1080
1100
0100
0300
0200
0400
ENDCHAR
STARTCHAR 30B6
ENCODING 11062
SWIDTH 1600 0
DWIDTH 16 0
BBX 13 13 1 -1
BITMAP
0008
1050
1050
1040
FFF8
1040
1040
1040
1080
0080
0100
0200
0400
ENDCHAR
STARTCHAR 30B7
ENCODING 11063
SWIDTH 1600 0
DWIDTH 16 0
BBX 11 10 2 0
BITMAP
1000
0800
0000
C000
2020
0040
0080
0300
0C00
3000
ENDCHAR
STARTCHAR 30B8
ENCODING 11064
SWIDTH 1600 0
DWIDTH 16 0
BBX 11 11 2 0
BITMAP
0020
1080
0840
0000
C000
2020
0040
0080
0300
0400
3800
ENDCHAR
STARTCHAR 30B9
ENCODING 11065
SWIDTH 1600 0
DWIDTH 16 0
BBX 10 10 3 0
BITMAP
7F80
0100
0100
0200
0200
0600
0900
1080
6040
8000
ENDCHAR
STARTCHAR 30BA
ENCODING 11066
SWIDTH 1600 0
DWIDTH 16 0
BBX 12 12 2 0
BITMAP
0010
0020
0000
7F80
0100
0100
0200
0600
0D00
1080
2040
C000
ENDCHAR
STARTCHAR 30BB
ENCODING 11067
SWIDTH 1600 0
DWIDTH 16 0
BBX 11 11 3 0
BITMAP
1000
1000
1000
17E0
F840
1040
1080
1000
1000
1000
0FE0
ENDCHAR
STARTCHAR 30BC
ENCODING 11068
SWIDTH 1600 0
DWIDTH 16 0
BBX 12 13 2 -1
BITMAP
0010
1000
1020
1000
13E0
7C20
9040
1080
1100
1000
1000
19E0
0600
ENDCHAR
STARTCHAR 30BD
ENCODING 11069
SWIDTH 1600 0
DWIDTH 16 0
BBX 10 11 3 -1
BITMAP
8040
C040
4080
0080
0100
0100
0200
0600
0C00
1800
2000
ENDCHAR
STARTCHAR 30BE
ENCODING 11070
SWIDTH 1600 0
DWIDTH 16 0
BBX 12 13 2 -1
BITMAP
0010
0020
0040
8080
4080
4080
0100
0100
0200
0400
0800
1000
2000
ENDCHAR
STARTCHAR 30BF
ENCODING 11071
SWIDTH 1600 0
DWIDTH 16 0
BBX 10 12 3 -1
BITMAP
0400
0800
1FC0
3040
6080
C880
0500
0200
0400
0800
3000
C000
ENDCHAR
STARTCHAR 30C0
ENCODING 11072
SWIDTH 1600 0
DWIDTH 16 0
BBX 12 13 2 -1
BITMAP
0010
0840
0820
1F80
20C0
4080
9900
0500
0200
0400
1800
2000
C000
ENDCHAR
STARTCHAR 30C1
ENCODING 11073
SWIDTH 1600 0
DWIDTH 16 0
BBX 12 12 2 -1
BITMAP
0080
7F00
0200
0200
0200
FFF0
0200
0200
0400
0C00
1800
2000
ENDCHAR
STARTCHAR 30C2
ENCODING 11074
SWIDTH 1600 0
DWIDTH 16 0
BBX 14 12 1 -1
BITMAP
00C8
3F04
0210
0200
0200
FFF0
0200
0200
0400
0400
1800
2000
ENDCHAR
STARTCHAR 30C3
ENCODING 11075
SWIDTH 1600 0
DWIDTH 16 0
BBX 8 8 4 -2
BITMAP
10
91
81
02
02
04
08
30
ENDCHAR
STARTCHAR 30C4
ENCODING 11076
SWIDTH 1600 0
DWIDTH 16 0
BBX 12 11 2 -1
BITMAP
0800
8410
4420
4020
0040
0040
0080
0100
0200
0400
1800
ENDCHAR
STARTCHAR 30C5
ENCODING 11077
SWIDTH 1600 0
DWIDTH 16 0
BBX 14 13 1 -1
BITMAP
0008
000C
0800
8410
4420
4020
0060
0040
0080
0180
0300
0400
0800
ENDCHAR
STARTCHAR 30C6
ENCODING 11078
SWIDTH 1600 0
DWIDTH 16 0
BBX 12 11 2 -1
BITMAP
3FC0
0000
0000
FFF0
0200
0200
0200
0400
0C00
1800
2000
ENDCHAR
STARTCHAR 30C7
ENCODING 11079
SWIDTH 1600 0
DWIDTH 16 0
BBX 14 12 1 -1
BITMAP
0008
3FD4
0008
0000
FFF0
0200
0200
0200
0400
0400
1800
3000
ENDCHAR
STARTCHAR 30C8
ENCODING 11080
SWIDTH 1600 0
DWIDTH 16 0
BBX 5 12 5 -1
BITMAP
C0
80
80
80
80
F0
88
80
80
80
80
80
ENDCHAR
STARTCHAR 30C9
ENCODING 11081
SWIDTH 1600 0
DWIDTH 16 0
BBX 7 12 4 -1
BITMAP
C2
84
80
80
A0
D0
88
80
80
80
80
80
ENDCHAR
STARTCHAR 30CA
ENCODING 11082
SWIDTH 1600 0
DWIDTH 16 0
BBX 12 12 2 -1
BITMAP
0200
0200
0200
FFF0
0200
0200
0400
0400
0400
0800
1000
2000
ENDCHAR
STARTCHAR 30CB
ENCODING 11083
SWIDTH 1600 0
DWIDTH 16 0
BBX 12 8 2 1
BITMAP
3FC0
0000
0000
0000
0000
0000
0000
FFF0
ENDCHAR
STARTCHAR 30CC
ENCODING 11084
SWIDTH 1600 0
DWIDTH 16 0
BBX 10 11 3 -1
BITMAP
7FC0
0080
0080
1080
0D00
0300
0300
04C0
1800
2000
C000
ENDCHAR
STARTCHAR 30CD
ENCODING 11085
SWIDTH 1600 0
DWIDTH 16 0
BBX 10 12 3 -1
BITMAP
0400
0400
7F80
0080
0100
0200
0C80
3440
C400
0400
0400
0400
ENDCHAR
STARTCHAR 30CE
ENCODING 11086
SWIDTH 1600 0
DWIDTH 16 0
BBX 10 11 3 -1
BITMAP
00C0
0080
0080
0100
0100
0200
0400
0800
1000
2000
C000
ENDCHAR
STARTCHAR 30CF
ENCODING 11087
SWIDTH 1600 0
DWIDTH 16 0
BBX 12 8 2 1
BITMAP
0080
1040
1040
1020
2030
4010
C010
8000
ENDCHAR
STARTCHAR 30D0
ENCODING 11088
SWIDTH 1600 0
DWIDTH 16 0
BBX 14 10 1 1
BITMAP
0008
0014
0008
0840
0820
1020
1010
2010
4008
8000
ENDCHAR
STARTCHAR 30D1
ENCODING 11089
SWIDTH 1600 0
DWIDTH 16 0
BBX 14 10 1 1
BITMAP
001C
0014
001C
0840
0860
1020
1010
2010
4018
8000
ENDCHAR
STARTCHAR 30D2
ENCODING 11090
SWIDTH 1600 0
DWIDTH 16 0
BBX 8 11 4 0
BITMAP
80
80
83
8C
F0
80
80
80
80
80
FF
ENDCHAR
STARTCHAR 30D3
ENCODING 11091
SWIDTH 1600 0
DWIDTH 16 0
BBX 11 12 2 0
BITMAP
0020
C040
8000
8180
8600
B800
C000
8000
8000
8000
4080
7F80
ENDCHAR
STARTCHAR 30D4
ENCODING 11092
SWIDTH 1600 0
DWIDTH 16 0
BBX 11 12 3 0
BITMAP
00E0
80A0
80E0
8100
8E00
B000
C000
8000
8000
8000
8080
7F00
ENDCHAR
STARTCHAR 30D5
ENCODING 11093
SWIDTH 1600 0
DWIDTH 16 0
BBX 11 10 2 -1
BITMAP
FFE0
0020
0020
0040
0080
0080
0100
0200
0C00
1000
ENDCHAR
STARTCHAR 30D6
ENCODING 11094
SWIDTH 1600 0
DWIDTH 16 0
BBX 12 13 2 -1
BITMAP
0010
0020
0000
FFC0
0040
0040
0080
0080
0100
0200
0400
1800
2000
ENDCHAR
STARTCHAR 30D7
ENCODING 11095
SWIDTH 1600 0
DWIDTH 16 0
BBX 13 14 1 -1
BITMAP
0038
0028
0028
0010
FFE0
0020
0020
0040
0080
0080
0100
0200
0C00
1000
ENDCHAR
STARTCHAR 30D8
ENCODING 11096
SWIDTH 1600 0
DWIDTH 16 0
BBX 13 6 1 2
BITMAP
0E00
1100
2080
C060
0030
0008
ENDCHAR
STARTCHAR 30D9
ENCODING 11097
SWIDTH 1600 0
DWIDTH 16 0
BBX 13 9 1 2
BITMAP
0020
0040
0020
0E00
1100
2080
C060
0030
0008
ENDCHAR
STARTCHAR 30DA
ENCODING 11098
SWIDTH 1600 0
DWIDTH 16 0
BBX 13 9 1 2
BITMAP
00E0
00A0
00A0
0E40
1100
2080
C060
0030
0008
ENDCHAR
STARTCHAR 30DB
ENCODING 11099
SWIDTH 1600 0
DWIDTH 16 0
BBX 12 11 2 -1
BITMAP
0200
0200
7FF0
0200
0200
2240
6220
4230
8210
0200
0C00
ENDCHAR
STARTCHAR 30DC
ENCODING 11100
SWIDTH 1600 0
DWIDTH 16 0
BBX 12 13 2 -1
BITMAP
0010
0200
0220
0200
7FF0
0200
0200
2240
6220
4230
8210
0200
0C00
ENDCHAR
STARTCHAR 30DD
ENCODING 11101
SWIDTH 1600 0
DWIDTH 16 0
BBX 12 13 2 -1
BITMAP
0070
0250
0250
0220
7FF0
0200
0200
2240
2220
4230
8210
0200
0C00
ENDCHAR
STARTCHAR 30DE
ENCODING 11102
SWIDTH 1600 0
DWIDTH 16 0
BBX 12 9 2 0
BITMAP
FFF0
0020
0060
0040
1080
0B00
0600
0200
0300
ENDCHAR
STARTCHAR 30DF
ENCODING 11103
SWIDTH 1600 0
DWIDTH 16 0
BBX 6 11 5 -1
BITMAP
60
18
00
80
70
08
00
00
C0
38
04
ENDCHAR
STARTCHAR 30E0
ENCODING 11104
SWIDTH 1600 0
DWIDTH 16 0
BBX 12 10 2 0
BITMAP
0600
0400
0400
0800
0800
1080
1040
2020
E3E0
9C10
ENDCHAR
STARTCHAR 30E1
ENCODING 11105
SWIDTH 1600 0
DWIDTH 16 0
BBX 10 11 3 -1
BITMAP
0040
0080
0080
1900
0500
0200
0700
0480
1800
2000
C000
ENDCHAR
STARTCHAR 30E2
ENCODING 11106
SWIDTH 1600 0
DWIDTH 16 0
BBX 12 10 2 0
BITMAP
3FE0
0400
0400
0400
FFF0
0400
0400
0400
0400
07F0
ENDCHAR
STARTCHAR 30E3
ENCODING 11107
SWIDTH 1600 0
DWIDTH 16 0
BBX 7 7 5 -1
BITMAP
40
42
FE
44
20
20
20
ENDCHAR
STARTCHAR 30E4
ENCODING 11108
SWIDTH 1600 0
DWIDTH 16 0
BBX 12 12 2 -1
BITMAP
1000
1000
0820
0FD0
F820
0840
0880
0400
0400
0400
0400
0400
ENDCHAR
STARTCHAR 30E5
ENCODING 11109
SWIDTH 1600 0
DWIDTH 16 0
BBX 8 6 4 -1
BITMAP
7C
04
04
04
04
FF
ENDCHAR
STARTCHAR 30E6
ENCODING 11110
SWIDTH 1600 0
DWIDTH 16 0
BBX 12 8 2 1
BITMAP
3F80
0080
0080
0080
0080
0100
0100
FFF0
ENDCHAR
STARTCHAR 30E7
ENCODING 11111
SWIDTH 1600 0
DWIDTH 16 0
BBX 7 7 4 -2
BITMAP
7E
02
02
7E
02
FE
02
ENDCHAR
STARTCHAR 30E8
ENCODING 11112
SWIDTH 1600 0
DWIDTH 16 0
BBX 9 10 4 0
BITMAP
FF80
0080
0080
0080
FF80
0080
0080
0080
0080
FF80
ENDCHAR
STARTCHAR 30E9
ENCODING 11113
SWIDTH 1600 0
DWIDTH 16 0
BBX 10 11 3 -1
BITMAP
7F00
0000
0000
FFC0
0080
0080
0100
0200
0600
0800
3000
ENDCHAR
STARTCHAR 30EA
ENCODING 11114
SWIDTH 1600 0
DWIDTH 16 0
BBX 7 12 4 -1
BITMAP
82
82
82
82
82
82
82
02
04
04
08
10
ENDCHAR
STARTCHAR 30EB
ENCODING 11115
SWIDTH 1600 0
DWIDTH 16 0
BBX 13 10 1 0
BITMAP
1100
1100
1100
1100
1100
1108
1110
2120
6140
C180
ENDCHAR
STARTCHAR 30EC
ENCODING 11116
SWIDTH 1600 0
DWIDTH 16 0
BBX 10 10 3 0
BITMAP
8000
8000
8000
8000
8040
8080
8100
8600
9800
E000
ENDCHAR
STARTCHAR 30ED
ENCODING 11117
SWIDTH 1600 0
DWIDTH 16 0
BBX 8 9 4 0
BITMAP
FF
81
81
81
81
81
81
FF
81
ENDCHAR
STARTCHAR 30EE
ENCODING 11118
SWIDTH 1600 0
DWIDTH 16 0
BBX 7 8 4 -2
BITMAP
FE
82
82
82
02
04
08
10
ENDCHAR
STARTCHAR 30EF
ENCODING 11119
SWIDTH 1600 0
DWIDTH 16 0
BBX 10 11 3 -1
BITMAP
FFC0
8040
8040
8040
8040
0040
0080
0080
0100
0200
0400
ENDCHAR
STARTCHAR 30F0
ENCODING 11120
SWIDTH 1600 0
DWIDTH 16 0
BBX 13 12 1 -1
BITMAP
0080
0080
0080
7FF0
1080
1080
1080
FFF8
0080
0080
0080
0080
ENDCHAR
STARTCHAR 30F1
ENCODING 11121
SWIDTH 1600 0
DWIDTH 16 0
BBX 13 9 1 1
BITMAP
3FF0
0030
0060
0280
0200
0200
0200
0200
FFF8
ENDCHAR
STARTCHAR 30F2
ENCODING 11122
SWIDTH 1600 0
DWIDTH 16 0
BBX 10 11 3 -1
BITMAP
FFC0
0040
0080
0080
FF80
0100
0100
0200
0400
1800
6000
ENDCHAR
STARTCHAR 30F3
ENCODING 11123
SWIDTH 1600 0
DWIDTH 16 0
BBX 10 10 3 0
BITMAP
8000
4000
2000
0000
00C0
0180
0200
0C00
3000
C000
ENDCHAR
STARTCHAR 30F4
ENCODING 11124
SWIDTH 1600 0
DWIDTH 16 0
BBX 12 12 2 -1
BITMAP
0050
0820
0800
FFC0
8040
8080
8080
0080
0100
0200
0400
1800
ENDCHAR
STARTCHAR 30F5
ENCODING 11125
SWIDTH 1600 0
DWIDTH 16 0
BBX 8 8 4 -2
BITMAP
08
10
7F
11
11
21
22
C6
ENDCHAR
STARTCHAR 30F6
ENCODING 11126
SWIDTH 1600 0
DWIDTH 16 0
BBX 8 8 4 -2
BITMAP
20
20
3F
44
84
08
08
30
ENDCHAR
STARTCHAR 0410
ENCODING 11297
SWIDTH 1600 0
DWIDTH 16 0
BBX 9 11 4 0
BITMAP
1800
1800
1400
2400
2400
4200
4200
7E00
8100
8100
8080
ENDCHAR
STARTCHAR 0411
ENCODING 11298
SWIDTH 1600 0
DWIDTH 16 0
BBX 8 11 4 0
BITMAP
FE
80
80
80
80
FE
83
81
81
83
FE
ENDCHAR
STARTCHAR 0412
ENCODING 11299
SWIDTH 1600 0
DWIDTH 16 0
BBX 8 11 4 0
BITMAP
FE
82
82
82
82
FE
83
81
81
81
86
ENDCHAR
STARTCHAR 0413
ENCODING 11300
SWIDTH 1600 0
DWIDTH 16 0
BBX 6 11 5 0
BITMAP
FC
80
80
80
80
80
80
80
80
80
80
ENDCHAR
STARTCHAR 0414
ENCODING 11301
SWIDTH 1600 0
DWIDTH 16 0
BBX 10 14 3 -3
BITMAP
3F80
2080
2080
2080
2080
2080
2080
2080
2080
6080
FFC0
8040
8040
8040
ENDCHAR
STARTCHAR 0415
ENCODING 11302
SWIDTH 1600 0
DWIDTH 16 0
BBX 8 11 4 0
BITMAP
FE
80
80
80
80
FE
80
80
80
80
FF
ENDCHAR
STARTCHAR 0401
ENCODING 11303
SWIDTH 1600 0
DWIDTH 16 0
BBX 8 12 4 0
BITMAP
44
00
FF
80
80
80
FE
80
80
80
80
FF
ENDCHAR
STARTCHAR 0416
ENCODING 11304
SWIDTH 1600 0
DWIDTH 16 0
BBX 11 11 2 0
BITMAP
C460
4440
2480
2480
3580
7FC0
8420
8420
8420
8420
8420
ENDCHAR
STARTCHAR 0417
ENCODING 11305
SWIDTH 1600 0
DWIDTH 16 0
BBX 9 11 3 0
BITMAP
3E00
6100
C080
8180
0100
0F00
0180
0080
C080
4180
3E00
ENDCHAR
STARTCHAR 0418
ENCODING 11306
SWIDTH 1600 0
DWIDTH 16 0
BBX 8 11 4 0
BITMAP
81
83
85
85
89
91
91
A1
A1
C1
81
ENDCHAR
STARTCHAR 0419
ENCODING 11307
SWIDTH 1600 0
DWIDTH 16 0
BBX 8 12 4 0
BITMAP
24
18
81
83
85
89
89
91
A1
A1
C1
81
ENDCHAR
STARTCHAR 041A
ENCODING 11308
SWIDTH 1600 0
DWIDTH 16 0
BBX 7 11 4 0
BITMAP
82
84
8C
88
88
FC
86
82
82
82
82
ENDCHAR
STARTCHAR 041B
ENCODING 11309
SWIDTH 1600 0
DWIDTH 16 0
BBX 10 11 3 0
BITMAP
3FC0
2040
2040
2040
2040
2040
2040
2040
2040
2040
C040
ENDCHAR
STARTCHAR 041C
ENCODING 11310
SWIDTH 1600 0
DWIDTH 16 0
BBX 10 11 3 0
BITMAP
C0C0
C0C0
C140
A140
A140
A240
9240
9240
9440
8C40
8C40
ENDCHAR
STARTCHAR 041D
ENCODING 11311
SWIDTH 1600 0
DWIDTH 16 0
BBX 8 12 4 -1
BITMAP
81
81
81
81
81
FF
81
81
81
81
81
80
ENDCHAR
STARTCHAR 041E
ENCODING 11312
SWIDTH 1600 0
DWIDTH 16 0
BBX 10 12 3 0
BITMAP
1E00
6180
4080
8040
8040
8040
8040
8040
8040
4080
6180
1E00
ENDCHAR
STARTCHAR 041F
ENCODING 11313
SWIDTH 1600 0
DWIDTH 16 0
BBX 8 11 4 0
BITMAP
FF
81
81
81
81
81
81
81
81
81
81
ENDCHAR
STARTCHAR 0420
ENCODING 11314
SWIDTH 1600 0
DWIDTH 16 0
BBX 8 11 4 0
BITMAP
FE
83
81
81
81
FE
80
80
80
80
80
ENDCHAR
STARTCHAR 0421
ENCODING 11315
SWIDTH 1600 0
DWIDTH 16 0
BBX 10 12 3 0
BITMAP
0C00
3300
4080
C080
8000
8000
8000
8000
8040
4040
6080
1F00
ENDCHAR
STARTCHAR 0422
ENCODING 11316
SWIDTH 1600 0
DWIDTH 16 0
BBX 9 11 4 0
BITMAP
FF80
0800
0800
0800
0800
0800
0800
0800
0800
0800
0800
ENDCHAR
STARTCHAR 0423
ENCODING 11317
SWIDTH 1600 0
DWIDTH 16 0
BBX 8 11 4 0
BITMAP
81
81
42
42
24
24
18
18
08
10
30
ENDCHAR
STARTCHAR 0424
ENCODING 11318
SWIDTH 1600 0
DWIDTH 16 0
BBX 12 11 2 0
BITMAP
0400
3F80
6460
C420
8410
8410
8410
8420
4460
3F80
0400
ENDCHAR
STARTCHAR 0425
ENCODING 11319
SWIDTH 1600 0
DWIDTH 16 0
BBX 8 11 4 0
BITMAP
81
42
66
24
18
18
18
24
42
42
81
ENDCHAR
STARTCHAR 0426
ENCODING 11320
SWIDTH 1600 0
DWIDTH 16 0
BBX 10 14 3 -3
BITMAP
8080
8080
8080
8080
8080
8080
8080
8080
8080
8080
FFC0
0040
0040
0040
ENDCHAR
STARTCHAR 0427
ENCODING 11321
SWIDTH 1600 0
DWIDTH 16 0
BBX 7 11 5 0
BITMAP
82
82
82
82
82
86
7A
02
02
02
02
ENDCHAR
STARTCHAR 0428
ENCODING 11322
SWIDTH 1600 0
DWIDTH 16 0
BBX 10 11 3 0
BITMAP
8840
8840
8840
8840
8840
8840
8840
8840
8840
8840
FFC0
ENDCHAR
STARTCHAR 0429
ENCODING 11323
SWIDTH 1600 0
DWIDTH 16 0
BBX 12 14 2 -3
BITMAP
8420
8420
8420
8420
8420
8420
8420
8420
8420
8420
FFF0
0010
0010
0010
ENDCHAR
STARTCHAR 042A
ENCODING 11324
SWIDTH 1600 0
DWIDTH 16 0
BBX 10 11 3 0
BITMAP
E000
2000
2000
2000
2000
3F80
20C0
2040
2040
20C0
3F80
ENDCHAR
STARTCHAR 042B
ENCODING 11325
SWIDTH 1600 0
DWIDTH 16 0
BBX 10 11 3 0
BITMAP
8040
8040
8040
8040
8040
FC40
8640
8240
8240
8240
8C40
ENDCHAR
STARTCHAR 042C
ENCODING 11326
SWIDTH 1600 0
DWIDTH 16 0
BBX 8 11 4 0
BITMAP
80
80
80
80
80
FC
82
81
81
82
84
ENDCHAR
STARTCHAR 042D
ENCODING 11327
SWIDTH 1600 0
DWIDTH 16 0
BBX 10 11 3 0
BITMAP
3F00
4080
80C0
0040
0040
0FC0
0040
0040
8080
4180
3E00
ENDCHAR
STARTCHAR 042E
ENCODING 11328
SWIDTH 1600 0
DWIDTH 16 0
BBX 14 12 1 -1
BITMAP
83E0
8418
8808
8804
9804
F804
9804
9804
8C0C
8C18
87F0
81E0
ENDCHAR
STARTCHAR 042F
ENCODING 11329
SWIDTH 1600 0
DWIDTH 16 0
BBX 8 11 4 0
BITMAP
7F
81
81
81
C1
7F
C1
81
81
81
81
ENDCHAR
STARTCHAR 0430
ENCODING 11345
SWIDTH 1600 0
DWIDTH 16 0
BBX 7 9 4 -1
BITMAP
78
44
84
04
7C
84
84
FC
22
ENDCHAR
STARTCHAR 0431
ENCODING 11346
SWIDTH 1600 0
DWIDTH 16 0
BBX 8 12 4 0
BITMAP
19
26
40
40
9C
A6
C1
C1
81
41
42
34
ENDCHAR
STARTCHAR 0432
ENCODING 11347
SWIDTH 1600 0
DWIDTH 16 0
BBX 6 8 5 0
BITMAP
F8
88
84
F8
84
84
84
F8
ENDCHAR
STARTCHAR 0433
ENCODING 11348
SWIDTH 1600 0
DWIDTH 16 0
BBX 5 8 6 0
BITMAP
F8
80
80
80
80
80
80
80
ENDCHAR
STARTCHAR 0434
ENCODING 11349
SWIDTH 1600 0
DWIDTH 16 0
BBX 8 11 4 -3
BITMAP
7E
42
42
42
42
42
42
FF
81
81
81
ENDCHAR
STARTCHAR 0435
ENCODING 11350
SWIDTH 1600 0
DWIDTH 16 0
BBX 7 8 5 0
BITMAP
78
84
82
FE
80
82
C6
38
ENDCHAR
STARTCHAR 0451
ENCODING 11351
SWIDTH 1600 0
DWIDTH 16 0
BBX 8 10 4 0
BITMAP
24
00
3E
43
81
7F
40
41
63
1C
ENDCHAR
STARTCHAR 0436
ENCODING 11352
SWIDTH 1600 0
DWIDTH 16 0
BBX 9 8 3 0
BITMAP
C980
4900
6900
3E00
4900
8880
8880
8880
ENDCHAR
STARTCHAR 0437
ENCODING 11353
SWIDTH 1600 0
DWIDTH 16 0
BBX 6 9 5 0
BITMAP
78
84
84
04
38
04
84
84
78
ENDCHAR
STARTCHAR 0438
ENCODING 11354
SWIDTH 1600 0
DWIDTH 16 0
BBX 6 8 5 0
BITMAP
84
8C
94
94
A4
C4
C4
84
ENDCHAR
STARTCHAR 0439
ENCODING 11355
SWIDTH 1600 0
DWIDTH 16 0
BBX 6 11 5 0
BITMAP
44
78
00
84
8C
94
94
A4
C4
C4
84
ENDCHAR
STARTCHAR 043A
ENCODING 11356
SWIDTH 1600 0
DWIDTH 16 0
BBX 6 9 5 0
BITMAP
80
8C
90
90
E0
98
88
88
88
ENDCHAR
STARTCHAR 043B
ENCODING 11357
SWIDTH 1600 0
DWIDTH 16 0
BBX 7 8 5 0
BITMAP
7E
42
42
42
42
42
42
C2
ENDCHAR
STARTCHAR 043C
ENCODING 11358
SWIDTH 1600 0
DWIDTH 16 0
BBX 8 8 4 0
BITMAP
C3
C3
C5
A5
A5
99
99
89
ENDCHAR
STARTCHAR 043D
ENCODING 11359
SWIDTH 1600 0
DWIDTH 16 0
BBX 6 9 5 0
BITMAP
04
84
84
84
FC
84
84
84
84
ENDCHAR
STARTCHAR 043E
ENCODING 11360
SWIDTH 1600 0
DWIDTH 16 0
BBX 8 9 4 0
BITMAP
18
66
43
81
81
81
81
42
3C
ENDCHAR
STARTCHAR 043F
ENCODING 11361
SWIDTH 1600 0
DWIDTH 16 0
BBX 6 8 5 0
BITMAP
FC
84
84
84
84
84
84
84
ENDCHAR
STARTCHAR 0440
ENCODING 11362
SWIDTH 1600 0
DWIDTH 16 0
BBX 8 11 4 -2
BITMAP
1C
A2
41
81
81
81
41
A2
9C
80
80
ENDCHAR
STARTCHAR 0441
ENCODING 11363
SWIDTH 1600 0
DWIDTH 16 0
BBX 7 9 4 -1
BITMAP
3C
42
82
80
80
80
82
44
38
ENDCHAR
STARTCHAR 0442
ENCODING 11364
SWIDTH 1600 0
DWIDTH 16 0
BBX 7 8 4 0
BITMAP
FE
10
10
10
10
10
10
10
ENDCHAR
STARTCHAR 0443
ENCODING 11365
SWIDTH 1600 0
DWIDTH 16 0
BBX 6 10 5 -3
BITMAP
84
84
48
48
48
30
30
20
20
60
ENDCHAR
STARTCHAR 0444
ENCODING 11366
SWIDTH 1600 0
DWIDTH 16 0
BBX 12 12 2 -2
BITMAP
0400
0400
3DC0
4620
8410
8410
8410
8610
4620
7DE0
0400
0400
ENDCHAR
STARTCHAR 0445
ENCODING 11367
SWIDTH 1600 0
DWIDTH 16 0
BBX 6 8 5 0
BITMAP
84
48
50
30
30
48
48
84
ENDCHAR
STARTCHAR 0446
ENCODING 11368
SWIDTH 1600 0
DWIDTH 16 0
BBX 8 11 4 -3
BITMAP
82
82
82
82
82
82
82
FF
01
01
01
ENDCHAR
STARTCHAR 0447
ENCODING 11369
SWIDTH 1600 0
DWIDTH 16 0
BBX 6 8 5 0
BITMAP
84
84
84
44
7C
04
04
04
ENDCHAR
STARTCHAR 0448
ENCODING 11370
SWIDTH 1600 0
DWIDTH 16 0
BBX 8 8 4 0
BITMAP
89
89
89
89
89
89
89
FF
ENDCHAR
STARTCHAR 0449
ENCODING 11371
SWIDTH 1600 0
DWIDTH 16 0
BBX 10 11 3 -3
BITMAP
8880
8880
8880
8880
8880
8880
8880
FFC0
0040
0040
0040
ENDCHAR
STARTCHAR 044A
ENCODING 11372
SWIDTH 1600 0
DWIDTH 16 0
BBX 9 8 3 0
BITMAP
F000
1000
1000
1F00
1080
1080
1080
1F00
ENDCHAR
STARTCHAR 044B
ENCODING 11373
SWIDTH 1600 0
DWIDTH 16 0
BBX 8 8 4 0
BITMAP
81
81
81
F1
89
89
89
F1
ENDCHAR
STARTCHAR 044C
ENCODING 11374
SWIDTH 1600 0
DWIDTH 16 0
BBX 6 8 5 0
BITMAP
80
80
80
F8
8C
84
84
F8
ENDCHAR
STARTCHAR 044D
ENCODING 11375
SWIDTH 1600 0
DWIDTH 16 0
BBX 7 8 5 0
BITMAP
78
84
02
3E
02
82
44
38
ENDCHAR
STARTCHAR 044E
ENCODING 11376
SWIDTH 1600 0
DWIDTH 16 0
BBX 10 9 3 0
BITMAP
8000
8F00
9080
9040
E040
A040
9040
9080
8F00
ENDCHAR
STARTCHAR 044F
ENCODING 11377
SWIDTH 1600 0
DWIDTH 16 0
BBX 6 8 5 0
BITMAP
7C
44
84
44
7C
44
84
84
ENDCHAR
STARTCHAR AC00
ENCODING 12321
SWIDTH 1600 0
DWIDTH 16 0
BBX 15 15 1 -3
BITMAP
0010
7E10
0210
0210
0210
0410
0410
0C1E
0810
1010
6010
8010
0010
0010
0010
ENDCHAR
STARTCHAR AC01
ENCODING 12322
SWIDTH 1600 0
DWIDTH 16 0
BBX 15 15 1 -3
BITMAP
0010
FE10
0210
0210
0410
081E
3010
C010
0010
7FF0
0010
0010
0010
0010
0010
ENDCHAR
STARTCHAR AC04
ENCODING 12323
SWIDTH 1600 0
DWIDTH 16 0
BBX 15 14 1 -2
BITMAP
0010
FE10
0210
0210
0410
0410
081E
3010
C010
0010
2010
2010
2000
3FF8
ENDCHAR
STARTCHAR AC07
ENCODING 12324
SWIDTH 1600 0
DWIDTH 16 0
BBX 15 14 1 -2
BITMAP
0010
FE10
0210
0210
041E
0810
1010
E010
0000
3FF0
2000
2000
2000
3FF0
ENDCHAR
STARTCHAR AC08
ENCODING 12325
SWIDTH 1600 0
DWIDTH 16 0
BBX 15 14 1 -2
BITMAP
0010
FE10
0210
0210
041E
0810
3010
E010
0000
3FF0
0010
3FF0
2000
3FF8
ENDCHAR
STARTCHAR AC09
ENCODING 12326
SWIDTH 1600 0
DWIDTH 16 0
BBX 15 15 1 -3
BITMAP
0010
FE10
0210
0210
041E
0810
3010
C010
7C00
05F0
0410
7C10
4010
4010
7C10
ENDCHAR
STARTCHAR AC0A
ENCODING 12327
SWIDTH 1600 0
DWIDTH 16 0
BBX 15 15 1 -3
BITMAP
0010
FE10
0210
0410
041E
0810
3010
C010
0000
7DF0
0510
7D10
4110
41F0
7910
ENDCHAR
STARTCHAR AC10
ENCODING 12328
SWIDTH 1600 0
DWIDTH 16 0
BBX 15 15 1 -3
BITMAP
0010
FE10
0210
0210
0410
0C1E
1010
6010
8010
0000
3FF0
2010
2010
3FF0
2010
ENDCHAR
STARTCHAR AC11
ENCODING 12329
SWIDTH 1600 0
DWIDTH 16 0
BBX 15 15 1 -3
BITMAP
0010
FE10
0210
0210
0410
0C1E
1810
E010
0010
2010
2010
3FF0
2010
3FF0
2010
ENDCHAR
STARTCHAR AC12
ENCODING 12330
SWIDTH 1600 0
DWIDTH 16 0
BBX 15 15 1 -3
BITMAP
0010
FE10
0210
0210
041E
0810
3010
C000
2200
2220
3E20
2250
2250
3E88
2200
ENDCHAR
STARTCHAR AC13
ENCODING 12331
SWIDTH 1600 0
DWIDTH 16 0
BBX 15 15 1 -3
BITMAP
0010
FE10
0210
0210
0210
041E
0810
1010
E010
0110
0100
0280
0440
0830
3008
ENDCHAR
STARTCHAR AC14
ENCODING 12332
SWIDTH 1600 0
DWIDTH 16 0
BBX 15 15 1 -3
BITMAP
0010
FE10
0210
0210
0410
041E
0810
3010
C010
0820
0820
0C30
1458
228C
4104
ENDCHAR
STARTCHAR AC15
ENCODING 12333
SWIDTH 1600 0
DWIDTH 16 0
BBX 15 15 1 -3
BITMAP
0010
FE10
0210
0210
0410
041E
0810
3010
C010
0000
1FE0
2010
2010
3030
0FC0
ENDCHAR
STARTCHAR AC16
ENCODING 12334
SWIDTH 1600 0
DWIDTH 16 0
BBX 15 15 1 -3
BITMAP
0010
FE10
0210
0210
0410
081E
1010
E010
0010
7FF0
0200
0300
0580
18C0
6030
ENDCHAR
STARTCHAR AC17
ENCODING 12335
SWIDTH 1600 0
DWIDTH 16 0
BBX 14 15 1 -3
BITMAP
0010
FE10
0210
0410
041C
0810
3010
C780
0000
3FF0
0300
0300
0480
1860
2010
ENDCHAR
STARTCHAR AC19
ENCODING 12336
SWIDTH 1600 0
DWIDTH 16 0
BBX 15 14 1 -2
BITMAP
0010
FE10
0210
0210
041E
0C10
1010
E010
0000
3FF0
2000
3FF0
2000
3FF0
ENDCHAR
STARTCHAR AC1A
ENCODING 12337
SWIDTH 1600 0
DWIDTH 16 0
BBX 15 14 1 -2
BITMAP
0010
FE10
0210
0210
0410
0C1E
1010
E010
0000
3FF0
0880
0880
0880
7FF0
ENDCHAR
STARTCHAR AC1B
ENCODING 12338
SWIDTH 1600 0
DWIDTH 16 0
BBX 15 15 1 -3
BITMAP
0010
FE10
0210
0210
041E
0810
1010
E010
0780
3FF8
0000
1FE0
2010
2010
1FE0
ENDCHAR
STARTCHAR AC1C
ENCODING 12339
SWIDTH 1600 0
DWIDTH 16 0
BBX 12 15 2 -3
BITMAP
0090
FC90
0490
0490
0890
0890
0890
10F0
1090
2090
4090
8090
0090
0090
0010
ENDCHAR
STARTCHAR AC1D
ENCODING 12340
SWIDTH 1600 0
DWIDTH 16 0
BBX 12 15 2 -3
BITMAP
0090
FC90
0490
0890
0890
10F0
3090
6090
8090
7FF0
0010
0010
0010
0010
0010
ENDCHAR
STARTCHAR AC20
ENCODING 12341
SWIDTH 1600 0
DWIDTH 16 0
BBX 13 14 2 -2
BITMAP
0090
FC90
0490
0490
0890
0890
10F0
2090
C090
8090
2090
2010
2000
3FF8
ENDCHAR
STARTCHAR AC24
ENCODING 12342
SWIDTH 1600 0
DWIDTH 16 0
BBX 13 15 2 -3
BITMAP
0090
FC90
0490
0490
08F0
0890
3090
4090
0000
3FF0
0010
3FF0
2000
2000
3FF8
ENDCHAR
STARTCHAR AC2C
ENCODING 12343
SWIDTH 1600 0
DWIDTH 16 0
BBX 13 15 1 -3
BITMAP
0008
7E48
0248
0448
0448
0878
1848
3048
C048
0000
1FF8
1008
1008
1FF8
1008
ENDCHAR
STARTCHAR AC2D
ENCODING 12344
SWIDTH 1600 0
DWIDTH 16 0
BBX 12 15 2 -3
BITMAP
0090
FC90
0490
0890
08F0
1090
3090
C090
0000
2010
2010
3FF0
2010
3FF0
2010
ENDCHAR
STARTCHAR AC2F
ENCODING 12345
SWIDTH 1600 0
DWIDTH 16 0
BBX 12 15 2 -3
BITMAP
0110
F910
0910
0910
0910
11F0
3110
6110
8110
0110
0300
0300
0480
1860
6010
ENDCHAR
STARTCHAR AC30
ENCODING 12346
SWIDTH 1600 0
DWIDTH 16 0
BBX 14 15 1 -3
BITMAP
0048
FC48
0448
0448
0848
0878
1048
2048
C008
0410
0C10
0C30
1430
2048
4084
ENDCHAR
STARTCHAR AC31
ENCODING 12347
SWIDTH 1600 0
DWIDTH 16 0
BBX 13 15 2 -3
BITMAP
0090
FC90
0890
0890
0890
10F0
1090
6090
C090
1FE0
6010
4008
4008
2018
1FE0
ENDCHAR
STARTCHAR AC38
ENCODING 12348
SWIDTH 1600 0
DWIDTH 16 0
BBX 15 15 1 -3
BITMAP
0010
FE10
0210
0210
0210
021E
0410
0410
0810
101E
6010
8010
0010
0010
0010
ENDCHAR
STARTCHAR AC39
ENCODING 12349
SWIDTH 1600 0
DWIDTH 16 0
BBX 14 15 1 -3
BITMAP
0010
FE10
0210
021C
0410
0C10
181C
6010
8010
0000
7FF0
0010
0010
0010
0010
ENDCHAR
STARTCHAR AC3C
ENCODING 12350
SWIDTH 1600 0
DWIDTH 16 0
BBX 15 14 1 -2
BITMAP
0010
FE10
0210
021E
0410
0410
0810
301E
C010
0010
2010
2000
2000
3FF8
ENDCHAR
STARTCHAR AC40
ENCODING 12351
SWIDTH 1600 0
DWIDTH 16 0
BBX 15 14 1 -2
BITMAP
0010
FE10
0210
021E
0410
0810
301E
C010
0000
3FF0
0010
3FF0
2000
3FF8
ENDCHAR
STARTCHAR AC4B
ENCODING 12352
SWIDTH 1600 0
DWIDTH 16 0
BBX 15 15 1 -3
BITMAP
0010
FE10
0210
021E
0410
0410
081E
3010
C010
0110
0180
0380
0240
0C30
3008
ENDCHAR
STARTCHAR AC4D
ENCODING 12353
SWIDTH 1600 0
DWIDTH 16 0
BBX 15 15 1 -3
BITMAP
0010
FE10
0210
021E
0410
0410
081E
3010
C010
1FC0
6030
4010
4010
6020
1FC0
ENDCHAR
STARTCHAR AC54
ENCODING 12354
SWIDTH 1600 0
DWIDTH 16 0
BBX 13 15 2 -3
BITMAP
0008
FC88
0488
0488
0888
08F8
0888
1088
3088
60F8
C088
0088
0088
0088
0088
ENDCHAR
STARTCHAR AC58
ENCODING 12355
SWIDTH 1600 0
DWIDTH 16 0
BBX 13 14 2 -2
BITMAP
0010
FC90
0490
0890
08F0
0890
1090
20F0
4090
8090
2090
2010
2000
3FF8
ENDCHAR
STARTCHAR AC5C
ENCODING 12356
SWIDTH 1600 0
DWIDTH 16 0
BBX 13 15 2 -3
BITMAP
0010
FC90
0490
08F0
0890
1090
30F0
4090
8010
3FF0
0010
3FF0
2000
2000
3FF8
ENDCHAR
STARTCHAR AC70
ENCODING 12357
SWIDTH 1600 0
DWIDTH 16 0
BBX 12 15 2 -3
BITMAP
0010
FE10
0210
0210
0210
0410
05F0
0410
0810
1010
2010
C010
0010
0010
0010
ENDCHAR
STARTCHAR AC71
ENCODING 12358
SWIDTH 1600 0
DWIDTH 16 0
BBX 12 15 2 -3
BITMAP
0010
FE10
0210
0210
05F0
0C10
1810
6010
8010
7FF0
0010
0010
0010
0010
0010
ENDCHAR
STARTCHAR AC74
ENCODING 12359
SWIDTH 1600 0
DWIDTH 16 0
BBX 13 14 2 -2
BITMAP
0010
FE10
0210
0210
0410
05F0
0810
3010
C010
0010
2010
2010
2000
3FF8
ENDCHAR
STARTCHAR AC77
ENCODING 12360
SWIDTH 1600 0
DWIDTH 16 0
BBX 13 14 2 -2
BITMAP
0010
FE10
0210
0410
05F0
0810
1010
6010
8010
0000
3FF8
2000
2000
3FF8
ENDCHAR
STARTCHAR AC78
ENCODING 12361
SWIDTH 1600 0
DWIDTH 16 0
BBX 13 14 2 -2
BITMAP
0010
FE10
0210
0210
05F0
0810
3010
C010
0000
3FF0
0010
3FF0
2000
3FF8
ENDCHAR
STARTCHAR AC7A
ENCODING 12362
SWIDTH 1600 0
DWIDTH 16 0
BBX 12 15 2 -3
BITMAP
0010
FE10
0210
0410
04F0
0810
3010
C010
0000
7DF0
0510
7D10
4110
45F0
3910
ENDCHAR
STARTCHAR AC80
ENCODING 12363
SWIDTH 1600 0
DWIDTH 16 0
BBX 12 15 2 -3
BITMAP
0010
FE10
0210
0210
05F0
0C10
1810
2010
C010
3FF0
2010
2010
2010
3FF0
2010
ENDCHAR
STARTCHAR AC81
ENCODING 12364
SWIDTH 1600 0
DWIDTH 16 0
BBX 12 15 2 -3
BITMAP
0010
FE10
0210
0210
05F0
0C10
1810
6010
8000
2010
2010
3FF0
2010
3FF0
2010
ENDCHAR
STARTCHAR AC83
ENCODING 12365
SWIDTH 1600 0
DWIDTH 16 0
BBX 13 15 1 -3
BITMAP
0008
7F08
0208
0208
02F8
0408
0808
1008
E008
0088
0180
0180
0240
0C30
1008
ENDCHAR
STARTCHAR AC84
ENCODING 12366
SWIDTH 1600 0
DWIDTH 16 0
BBX 14 15 1 -3
BITMAP
0008
7E08
0208
0208
06F8
0408
0808
1008
E000
0810
0830
0C30
1448
22CC
4080
ENDCHAR
STARTCHAR AC85
ENCODING 12367
SWIDTH 1600 0
DWIDTH 16 0
BBX 12 15 2 -3
BITMAP
0010
FE10
0210
0210
05F0
0C10
1810
2010
C000
1FC0
6030
4010
4010
2030
1FC0
ENDCHAR
STARTCHAR AC86
ENCODING 12368
SWIDTH 1600 0
DWIDTH 16 0
BBX 13 15 1 -3
BITMAP
0008
7F08
0108
0208
02F8
0408
1808
E008
0000
3FF8
0100
0180
02C0
0C30
3008
ENDCHAR
STARTCHAR AC89
ENCODING 12369
SWIDTH 1600 0
DWIDTH 16 0
BBX 13 14 2 -2
BITMAP
0010
FE10
0210
03F0
0410
0810
1010
E010
0000
3FF0
2000
3FF0
2000
3FF8
ENDCHAR
STARTCHAR AC8A
ENCODING 12370
SWIDTH 1600 0
DWIDTH 16 0
BBX 13 14 1 -2
BITMAP
0008
7F08
0108
0208
02F8
0408
1808
E008
0000
3FF8
0440
0440
0440
7FF8
ENDCHAR
STARTCHAR AC8B
ENCODING 12371
SWIDTH 1600 0
DWIDTH 16 0
BBX 13 15 2 -3
BITMAP
0010
FE10
0210
0410
05F0
0810
1010
6010
8780
7FF8
0000
0780
3870
2010
1FE0
ENDCHAR
STARTCHAR AC8C
ENCODING 12372
SWIDTH 1600 0
DWIDTH 16 0
BBX 14 15 1 -2
BITMAP
0004
0044
7C44
0444
0444
0444
0444
07C4
0844
1844
1044
2044
C044
0044
0044
ENDCHAR
STARTCHAR AC90
ENCODING 12373
SWIDTH 1600 0
DWIDTH 16 0
BBX 13 14 2 -2
BITMAP
0010
FC90
0490
0490
0890
0890
1790
2090
C090
0090
2090
2000
2000
3FF8
ENDCHAR
STARTCHAR AC94
ENCODING 12374
SWIDTH 1600 0
DWIDTH 16 0
BBX 13 14 2 -2
BITMAP
0090
FC90
0490
0890
0B90
1890
1090
6010
8000
3FF0
0010
3FF0
2000
3FF8
ENDCHAR
STARTCHAR AC9C
ENCODING 12375
SWIDTH 1600 0
DWIDTH 16 0
BBX 12 15 2 -3
BITMAP
0090
FC90
0490
0890
0F90
1890
1090
6090
8010
0000
3FF0
2010
2010
3FF0
2010
ENDCHAR
STARTCHAR AC9D
ENCODING 12376
SWIDTH 1600 0
DWIDTH 16 0
BBX 13 15 1 -3
BITMAP
0048
7E48
0248
0248
07C8
0448
0848
3048
C000
1008
1008
1FF8
1008
1FF8
1008
ENDCHAR
STARTCHAR AC9F
ENCODING 12377
SWIDTH 1600 0
DWIDTH 16 0
BBX 12 15 2 -3
BITMAP
0090
F890
0890
0890
0890
0F90
1090
2090
C090
0010
0100
0300
0480
0860
3010
ENDCHAR
STARTCHAR ACA0
ENCODING 12378
SWIDTH 1600 0
DWIDTH 16 0
BBX 12 15 2 -3
BITMAP
0010
FC90
0490
0490
0790
0890
1090
2090
C010
0820
0820
0C60
1460
2090
4100
ENDCHAR
STARTCHAR ACA1
ENCODING 12379
SWIDTH 1600 0
DWIDTH 16 0
BBX 12 15 2 -3
BITMAP
0090
FC90
0490
0490
0B90
0890
1090
2090
C010
1FC0
6030
4010
4010
2030
1FC0
ENDCHAR
STARTCHAR ACA8
ENCODING 12380
SWIDTH 1600 0
DWIDTH 16 0
BBX 12 15 2 -3
BITMAP
0010
FE10
0210
0210
03F0
0210
0410
0410
09F0
1010
2010
C010
0010
0010
0010
ENDCHAR
STARTCHAR ACA9
ENCODING 12381
SWIDTH 1600 0
DWIDTH 16 0
BBX 12 15 2 -3
BITMAP
0010
FE10
0210
04F0
0410
0810
10F0
E010
0010
7FF0
0010
0010
0010
0010
0010
ENDCHAR
STARTCHAR ACAA
ENCODING 12382
SWIDTH 1600 0
DWIDTH 16 0
BBX 12 15 2 -3
BITMAP
0010
FE10
0210
05F0
0410
0810
11F0
E010
8010
7DF0
0410
0410
0410
0410
0410
ENDCHAR
STARTCHAR ACAC
ENCODING 12383
SWIDTH 1600 0
DWIDTH 16 0
BBX 13 14 2 -2
BITMAP
0010
FE10
0210
03F0
0410
0410
0810
31F0
C010
0010
2010
2010
2000
3FF8
ENDCHAR
STARTCHAR ACAF
ENCODING 12384
SWIDTH 1600 0
DWIDTH 16 0
BBX 13 14 2 -2
BITMAP
0010
FE10
0210
03F0
0410
0810
19F0
2010
C010
0000
3FF8
2000
2000
3FF8
ENDCHAR
STARTCHAR ACB0
ENCODING 12385
SWIDTH 1600 0
DWIDTH 16 0
BBX 13 14 2 -2
BITMAP
0010
FE10
0210
03F0
0410
09F0
1010
E010
0000
3FF0
0010
3FF0
2000
3FF8
ENDCHAR
STARTCHAR ACB8
ENCODING 12386
SWIDTH 1600 0
DWIDTH 16 0
BBX 12 15 2 -3
BITMAP
0010
FE10
0210
03F0
0410
0C10
19F0
6010
8010
0000
3FF0
2010
2010
3FF0
2010
ENDCHAR
STARTCHAR ACB9
ENCODING 12387
SWIDTH 1600 0
DWIDTH 16 0
BBX 12 15 2 -3
BITMAP
0010
FE10
0210
03F0
0410
0C10
19F0
6010
0000
2010
2010
3FF0
2010
3FF0
2010
ENDCHAR
STARTCHAR ACBB
ENCODING 12388
SWIDTH 1600 0
DWIDTH 16 0
BBX 13 15 1 -3
BITMAP
0008
7F08
0108
02F8
0208
0408
08F8
1008
E008
0008
0180
0180
0240
0C30
1008
ENDCHAR
STARTCHAR ACBC
ENCODING 12389
SWIDTH 1600 0
DWIDTH 16 0
BBX 14 15 1 -3
BITMAP
0010
FE10
0210
03F0
0410
0410
09F0
3010
C010
0820
0820
0C30
1650
22C8
4184
ENDCHAR
STARTCHAR ACBD
ENCODING 12390
SWIDTH 1600 0
DWIDTH 16 0
BBX 12 15 2 -3
BITMAP
0010
FE10
0210
02F0
0410
0410
08F0
3010
C010
0700
38E0
4010
4010
2060
1F80
ENDCHAR
STARTCHAR ACC1
ENCODING 12391
SWIDTH 1600 0
DWIDTH 16 0
BBX 13 14 2 -2
BITMAP
0010
FE10
0210
05F0
0410
0810
11F0
E010
0010
3FF8
2000
3FF0
2000
3FF8
ENDCHAR
STARTCHAR ACC4
ENCODING 12392
SWIDTH 1600 0
DWIDTH 16 0
BBX 13 15 2 -3
BITMAP
0008
7C88
0488
0488
0488
0F88
0888
0888
1788
2088
4088
8088
0088
0088
0008
ENDCHAR
STARTCHAR ACC8
ENCODING 12393
SWIDTH 1600 0
DWIDTH 16 0
BBX 14 14 1 -2
BITMAP
0048
7E48
0248
07C8
0448
0848
1BC8
3048
C048
0048
1048
1000
1000
1FFC
ENDCHAR
STARTCHAR ACCC
ENCODING 12394
SWIDTH 1600 0
DWIDTH 16 0
BBX 13 14 2 -2
BITMAP
0010
FC90
0490
0F90
0890
1090
3790
4090
8000
3FF0
0010
3FF0
2000
3FF8
ENDCHAR
STARTCHAR ACD5
ENCODING 12395
SWIDTH 1600 0
DWIDTH 16 0
BBX 12 15 2 -3
BITMAP
0010
FC90
0890
0F90
0890
1790
1090
2090
C000
2010
2010
3FF0
2010
3FF0
2010
ENDCHAR
STARTCHAR ACD7
ENCODING 12396
SWIDTH 1600 0
DWIDTH 16 0
BBX 12 15 2 -3
BITMAP
0090
FC90
0490
0F90
0890
0890
1790
2090
C090
0010
0100
0300
0480
0860
3010
ENDCHAR
STARTCHAR ACE0
ENCODING 12397
SWIDTH 1600 0
DWIDTH 16 0
BBX 15 11 1 -1
BITMAP
3FF8
0008
0010
0010
0210
0210
0210
0210
0200
0200
FFFE
ENDCHAR
STARTCHAR ACE1
ENCODING 12398
SWIDTH 1600 0
DWIDTH 16 0
BBX 14 14 1 -3
BITMAP
3FF0
0010
0010
0210
0210
FFFC
0000
0000
7FF0
0010
0010
0010
0010
0010
ENDCHAR
STARTCHAR ACE4
ENCODING 12399
SWIDTH 1600 0
DWIDTH 16 0
BBX 14 13 1 -2
BITMAP
7FF0
0010
0010
0210
0210
0200
FFFC
0000
2000
2000
2000
2000
3FF8
ENDCHAR
STARTCHAR ACE7
ENCODING 12400
SWIDTH 1600 0
DWIDTH 16 0
BBX 14 13 1 -2
BITMAP
3FF0
0010
0210
0210
0210
FFFC
0000
0000
3FF0
2000
2000
2000
3FF8
ENDCHAR
STARTCHAR ACE8
ENCODING 12401
SWIDTH 1600 0
DWIDTH 16 0
BBX 14 13 1 -2
BITMAP
3FF0
0010
0210
0210
0210
FFFC
0000
3FF0
0010
0010
3FF0
2000
3FF8
ENDCHAR
STARTCHAR ACEA
ENCODING 12402
SWIDTH 1600 0
DWIDTH 16 0
BBX 14 14 1 -3
BITMAP
3FF0
0010
0210
0210
0200
FFFC
0000
0000
7DF0
0510
3D10
2110
3FF0
0110
ENDCHAR
STARTCHAR ACEC
ENCODING 12403
SWIDTH 1600 0
DWIDTH 16 0
BBX 14 14 1 -3
BITMAP
3FF0
0010
0210
0210
0210
FFFC
0000
7C40
0440
0460
3C60
2090
2318
3C00
ENDCHAR
STARTCHAR ACEF
ENCODING 12404
SWIDTH 1600 0
DWIDTH 16 0
BBX 14 15 1 -3
BITMAP
7FF0
0010
0010
0210
0210
0200
FFFC
0000
3CE0
05F0
0400
3CE0
2110
2110
3EE0
ENDCHAR
STARTCHAR ACF0
ENCODING 12405
SWIDTH 1600 0
DWIDTH 16 0
BBX 14 14 1 -3
BITMAP
3FF0
0010
0210
0210
0210
FFFC
0000
0000
3FF0
2010
2010
2010
3FF0
2010
ENDCHAR
STARTCHAR ACF1
ENCODING 12406
SWIDTH 1600 0
DWIDTH 16 0
BBX 14 14 1 -3
BITMAP
3FF0
0010
0210
0210
0210
FFFC
0000
2010
2010
3FF0
2010
2010
3FF0
2010
ENDCHAR
STARTCHAR ACF3
ENCODING 12407
SWIDTH 1600 0
DWIDTH 16 0
BBX 14 15 1 -3
BITMAP
3FF0
0010
0010
0010
0210
0200
0200
FFFC
0000
0300
0300
0300
0480
1860
2018
ENDCHAR
STARTCHAR ACF5
ENCODING 12408
SWIDTH 1600 0
DWIDTH 16 0
BBX 14 14 1 -3
BITMAP
3FF0
0010
0010
0210
0210
0200
FFFC
0000
1FE0
3038
4008
4008
2010
1FE0
ENDCHAR
STARTCHAR ACF6
ENCODING 12409
SWIDTH 1600 0
DWIDTH 16 0
BBX 14 15 1 -3
BITMAP
7FF0
0010
0010
0210
0210
0200
FFFC
0000
0000
7FF0
0300
0300
0480
1840
6038
ENDCHAR
STARTCHAR ACFC
ENCODING 12410
SWIDTH 1600 0
DWIDTH 16 0
BBX 15 15 1 -3
BITMAP
0010
7F10
0110
0110
0110
1110
1110
111E
1010
1050
3F90
C010
0010
0010
0010
ENDCHAR
STARTCHAR ACFD
ENCODING 12411
SWIDTH 1600 0
DWIDTH 16 0
BBX 16 15 0 -3
BITMAP
0008
3F88
0088
0088
0888
088F
0808
FFE8
0008
0000
3FF8
0008
0008
0008
0008
ENDCHAR
STARTCHAR AD00
ENCODING 12412
SWIDTH 1600 0
DWIDTH 16 0
BBX 15 14 1 -2
BITMAP
0010
7F10
0110
0110
1110
1110
111E
1010
FF90
0010
4010
4010
4000
7FF0
ENDCHAR
STARTCHAR AD04
ENCODING 12413
SWIDTH 1600 0
DWIDTH 16 0
BBX 15 14 1 -2
BITMAP
0010
7F10
0110
0910
0910
081E
FFD0
0010
0010
3FF0
0010
3FF0
2000
3FF0
ENDCHAR
STARTCHAR AD06
ENCODING 12414
SWIDTH 1600 0
DWIDTH 16 0
BBX 14 15 1 -3
BITMAP
0010
7F10
0110
1110
111C
1010
11D0
FE10
0000
7DF0
0510
7D10
4110
41F0
7910
ENDCHAR
STARTCHAR AD0C
ENCODING 12577
SWIDTH 1600 0
DWIDTH 16 0
BBX 16 15 0 -3
BITMAP
0008
3F88
0088
0088
0888
088F
0848
FF88
0008
0000
3FF8
2008
2008
3FF8
2008
ENDCHAR
STARTCHAR AD0D
ENCODING 12578
SWIDTH 1600 0
DWIDTH 16 0
BBX 16 15 0 -3
BITMAP
0008
3F88
0088
0088
0888
088F
0828
FFC8
0008
2008
2008
3FF8
2008
3FF8
2008
ENDCHAR
STARTCHAR AD0F
ENCODING 12579
SWIDTH 1600 0
DWIDTH 16 0
BBX 16 15 0 -3
BITMAP
0008
3F88
0088
0088
0888
088F
0808
FFC8
0008
0008
0088
0180
0240
0430
1808
ENDCHAR
STARTCHAR AD11
ENCODING 12580
SWIDTH 1600 0
DWIDTH 16 0
BBX 15 15 1 -3
BITMAP
0010
7F10
0110
0110
1110
111E
1010
FF90
0010
0010
1FC0
6030
4010
6030
1FC0
ENDCHAR
STARTCHAR AD18
ENCODING 12581
SWIDTH 1600 0
DWIDTH 16 0
BBX 12 15 2 -3
BITMAP
0090
7C90
0490
0490
0490
0490
2490
20F0
2090
2090
FE90
0090
0090
0090
0010
ENDCHAR
STARTCHAR AD1C
ENCODING 12582
SWIDTH 1600 0
DWIDTH 16 0
BBX 13 14 1 -2
BITMAP
0008
7E48
0248
0248
0248
1248
1078
1148
FE48
0048
2048
2008
2000
3FF8
ENDCHAR
STARTCHAR AD20
ENCODING 12583
SWIDTH 1600 0
DWIDTH 16 0
BBX 13 15 1 -3
BITMAP
0008
3E48
0248
0248
1248
1078
1048
FE48
0000
3FF8
0008
3FF8
2000
2000
3FF8
ENDCHAR
STARTCHAR AD29
ENCODING 12584
SWIDTH 1600 0
DWIDTH 16 0
BBX 13 15 1 -3
BITMAP
0048
7E48
0248
0248
1248
1078
1048
FE48
0048
2008
2008
3FF8
2008
3FF8
2008
ENDCHAR
STARTCHAR AD2C
ENCODING 12585
SWIDTH 1600 0
DWIDTH 16 0
BBX 13 15 1 -3
BITMAP
0008
7E48
0248
0248
1248
1078
1148
EE48
0048
0020
0420
0C20
0C50
1288
6000
ENDCHAR
STARTCHAR AD2D
ENCODING 12586
SWIDTH 1600 0
DWIDTH 16 0
BBX 14 15 1 -3
BITMAP
0048
3E48
0248
0248
1248
1278
1048
FE48
0048
0008
1FF8
2004
2004
1018
0FE0
ENDCHAR
STARTCHAR AD34
ENCODING 12587
SWIDTH 1600 0
DWIDTH 16 0
BBX 13 15 1 -3
BITMAP
0008
3F88
0088
0088
0088
0888
0888
0888
0808
0868
FF88
0008
0008
0008
0008
ENDCHAR
STARTCHAR AD35
ENCODING 12588
SWIDTH 1600 0
DWIDTH 16 0
BBX 12 15 2 -3
BITMAP
0010
7F10
0110
0110
1110
1110
1010
FF90
0010
0000
7FF0
0010
0010
0010
0010
ENDCHAR
STARTCHAR AD38
ENCODING 12589
SWIDTH 1600 0
DWIDTH 16 0
BBX 12 14 3 -2
BITMAP
0020
FF20
0120
0120
2220
2220
2020
3FA0
C020
0020
4020
4020
4000
7FF0
ENDCHAR
STARTCHAR AD3C
ENCODING 12590
SWIDTH 1600 0
DWIDTH 16 0
BBX 13 14 2 -2
BITMAP
0010
7F10
0110
1110
1110
1110
13D0
EC10
0000
3FF0
0010
3FF0
2000
3FF8
ENDCHAR
STARTCHAR AD44
ENCODING 12591
SWIDTH 1600 0
DWIDTH 16 0
BBX 12 15 2 -3
BITMAP
0010
7F10
0110
0110
1110
1010
1050
FF90
0010
3FF0
2010
2010
2010
3FF0
2010
ENDCHAR
STARTCHAR AD45
ENCODING 12592
SWIDTH 1600 0
DWIDTH 16 0
BBX 12 15 2 -3
BITMAP
0010
7F10
0110
0110
1110
1110
1050
FF90
0010
2010
2010
3FF0
2010
3FF0
2010
ENDCHAR
STARTCHAR AD47
ENCODING 12593
SWIDTH 1600 0
DWIDTH 16 0
BBX 13 15 1 -3
BITMAP
0008
7F88
0088
0088
0888
0888
0808
0828
FFC8
0008
0108
0180
02C0
0C20
3018
ENDCHAR
STARTCHAR AD49
ENCODING 12594
SWIDTH 1600 0
DWIDTH 16 0
BBX 12 15 2 -3
BITMAP
0010
7F10
0110
1110
1110
1110
1010
FF90
0010
0000
3FE0
4010
4010
3060
0F80
ENDCHAR
STARTCHAR AD50
ENCODING 12595
SWIDTH 1600 0
DWIDTH 16 0
BBX 14 11 1 -1
BITMAP
3FF0
0008
0010
0010
0890
0890
0890
0890
0890
0880
FFFC
ENDCHAR
STARTCHAR AD54
ENCODING 12596
SWIDTH 1600 0
DWIDTH 16 0
BBX 14 13 1 -2
BITMAP
3FF0
0010
0890
0890
0890
0880
FFFC
0000
2000
2000
2000
2000
3FF8
ENDCHAR
STARTCHAR AD58
ENCODING 12597
SWIDTH 1600 0
DWIDTH 16 0
BBX 14 13 1 -2
BITMAP
3FF0
0010
0890
0890
0890
FFFC
0000
3FF0
0010
0010
3FF0
2000
3FF8
ENDCHAR
STARTCHAR AD61
ENCODING 12598
SWIDTH 1600 0
DWIDTH 16 0
BBX 14 14 1 -3
BITMAP
3FF0
0010
0890
0890
0890
FFFC
0000
2010
2010
3FF0
2010
2010
3FF0
2010
ENDCHAR
STARTCHAR AD63
ENCODING 12599
SWIDTH 1600 0
DWIDTH 16 0
BBX 14 15 1 -3
BITMAP
3FF0
0010
0010
0890
0890
0880
0880
FFFC
0000
0100
0100
0300
0480
1860
2018
ENDCHAR
STARTCHAR AD6C
ENCODING 12600
SWIDTH 1600 0
DWIDTH 16 0
BBX 15 14 1 -3
BITMAP
3FF8
0008
0010
0010
0010
FFFE
0100
0100
0100
0100
0100
0100
0100
0100
ENDCHAR
STARTCHAR AD6D
ENCODING 12601
SWIDTH 1600 0
DWIDTH 16 0
BBX 15 15 0 -3
BITMAP
3FF8
0008
0008
0008
0010
0010
FFFE
0100
0100
3FF8
0008
0008
0008
0008
0008
ENDCHAR
STARTCHAR AD70
ENCODING 12602
SWIDTH 1600 0
DWIDTH 16 0
BBX 15 13 1 -2
BITMAP
3FF8
0008
0008
0010
0010
FFFE
0100
0100
2100
2100
2000
2000
3FF8
ENDCHAR
STARTCHAR AD73
ENCODING 12603
SWIDTH 1600 0
DWIDTH 16 0
BBX 15 13 0 -2
BITMAP
3FF8
0008
0008
0010
0010
FFFE
0100
0100
1FF8
1000
1000
1000
1FFC
ENDCHAR
STARTCHAR AD74
ENCODING 12604
SWIDTH 1600 0
DWIDTH 16 0
BBX 15 14 0 -2
BITMAP
3FF8
0008
0008
0008
0010
FFFE
0100
0100
3FF8
0008
0008
1FF8
1000
1FFC
ENDCHAR
STARTCHAR AD75
ENCODING 12605
SWIDTH 1600 0
DWIDTH 16 0
BBX 15 14 0 -3
BITMAP
3FF8
0008
0008
0010
FFFE
0100
0100
3EF8
0208
0208
1E08
1008
1008
1F08
ENDCHAR
STARTCHAR AD76
ENCODING 12606
SWIDTH 1600 0
DWIDTH 16 0
BBX 15 14 1 -3
BITMAP
3FF8
0008
0008
0010
FFFE
0100
0100
3EF0
0290
0290
3E90
2090
20F0
3C90
ENDCHAR
STARTCHAR AD7B
ENCODING 12607
SWIDTH 1600 0
DWIDTH 16 0
BBX 15 15 0 -3
BITMAP
3FF8
0008
0008
0008
0010
FFFE
0100
0100
1E70
0200
03F8
1EF8
1088
1088
1E70
ENDCHAR
STARTCHAR AD7C
ENCODING 12608
SWIDTH 1600 0
DWIDTH 16 0
BBX 14 14 1 -3
BITMAP
7FF0
0010
0010
0030
FFFC
0100
0100
0100
3FF0
2010
2010
2010
3FF0
2010
ENDCHAR
STARTCHAR AD7D
ENCODING 12609
SWIDTH 1600 0
DWIDTH 16 0
BBX 15 14 1 -3
BITMAP
3FF8
0008
0010
0010
FFFE
0100
0100
2110
2010
3FF0
2010
2010
3FF0
2010
ENDCHAR
STARTCHAR AD7F
ENCODING 12610
SWIDTH 1600 0
DWIDTH 16 0
BBX 15 15 0 -3
BITMAP
3FF8
0008
0008
0008
0010
0010
FFFE
0100
0100
0000
0100
0180
0240
0C30
300C
ENDCHAR
STARTCHAR AD81
ENCODING 12611
SWIDTH 1600 0
DWIDTH 16 0
BBX 15 15 0 -3
BITMAP
3FF8
0008
0008
0010
0010
FFFE
0100
0100
0100
07E0
0C10
1008
1008
1808
07F0
ENDCHAR
STARTCHAR AD82
ENCODING 12612
SWIDTH 1600 0
DWIDTH 16 0
BBX 15 15 0 -3
BITMAP
3FF8
0008
0008
0008
0010
FFFE
0100
0100
0100
1FF8
0180
0180
0240
0420
381C
ENDCHAR
STARTCHAR AD88
ENCODING 12613
SWIDTH 1600 0
DWIDTH 16 0
BBX 13 15 1 -3
BITMAP
0008
3F88
0088
0088
0088
0088
00E8
FF08
0408
0478
0408
0408
0408
0408
0008
ENDCHAR
STARTCHAR AD89
ENCODING 12614
SWIDTH 1600 0
DWIDTH 16 0
BBX 12 15 2 -3
BITMAP
0010
7F10
0110
0110
0110
FF90
0810
08F0
0810
7FF0
0010
0010
0010
0010
0010
ENDCHAR
STARTCHAR AD8C
ENCODING 12615
SWIDTH 1600 0
DWIDTH 16 0
BBX 13 14 2 -2
BITMAP
0010
7F10
0110
0110
0110
0110
FF90
0810
08F0
0810
2810
2000
2000
3FF8
ENDCHAR
STARTCHAR AD90
ENCODING 12616
SWIDTH 1600 0
DWIDTH 16 0
BBX 14 14 1 -2
BITMAP
0008
7F88
0088
0088
0088
FFE8
0408
0478
0008
3FF8
0008
1FF8
1000
1FFC
ENDCHAR
STARTCHAR AD9C
ENCODING 12617
SWIDTH 1600 0
DWIDTH 16 0
BBX 15 15 0 -3
BITMAP
0004
7F84
0084
0084
0084
FFC4
0404
043C
0404
0208
0208
0614
0526
0862
3040
ENDCHAR
STARTCHAR AD9D
ENCODING 12618
SWIDTH 1600 0
DWIDTH 16 0
BBX 12 15 2 -3
BITMAP
0010
7F10
0110
0110
0110
FFD0
0810
08F0
0810
1FD0
6030
4010
4010
6030
1FC0
ENDCHAR
STARTCHAR ADA4
ENCODING 12619
SWIDTH 1600 0
DWIDTH 16 0
BBX 12 15 2 -3
BITMAP
0010
7E90
0490
0490
0490
0490
0690
F890
1090
1790
1090
1090
1090
0090
0010
ENDCHAR
STARTCHAR ADB7
ENCODING 12620
SWIDTH 1600 0
DWIDTH 16 0
BBX 13 15 1 -3
BITMAP
0048
7C48
0448
0448
0448
0448
F848
13C8
1048
1048
0108
0180
0240
0C30
3008
ENDCHAR
STARTCHAR ADC0
ENCODING 12621
SWIDTH 1600 0
DWIDTH 16 0
BBX 12 15 2 -3
BITMAP
0010
7F10
0110
0110
0110
0110
0210
FFD0
0810
0810
0810
0810
0810
0810
0010
ENDCHAR
STARTCHAR ADC1
ENCODING 12622
SWIDTH 1600 0
DWIDTH 16 0
BBX 12 15 2 -3
BITMAP
0010
FF10
0110
0110
0110
FFD0
0810
0810
0810
0000
7FF0
0010
0010
0010
0010
ENDCHAR
STARTCHAR ADC4
ENCODING 12623
SWIDTH 1600 0
DWIDTH 16 0
BBX 13 14 2 -2
BITMAP
0010
FF10
0110
0110
0110
0210
FF90
0810
0810
0810
2810
2010
2000
3FF8
ENDCHAR
STARTCHAR ADC8
ENCODING 12624
SWIDTH 1600 0
DWIDTH 16 0
BBX 13 14 2 -2
BITMAP
0010
7F10
0110
0110
0110
FFD0
0810
0810
0000
3FF0
0010
3FF0
2000
3FF8
ENDCHAR
STARTCHAR ADD0
ENCODING 12625
SWIDTH 1600 0
DWIDTH 16 0
BBX 12 15 2 -3
BITMAP
0010
7F10
0110
0110
0110
FFD0
0810
0810
0810
0000
3FF0
2010
2010
3FF0
2010
ENDCHAR
STARTCHAR ADD1
ENCODING 12626
SWIDTH 1600 0
DWIDTH 16 0
BBX 13 15 1 -3
BITMAP
0008
7F88
0088
0088
0088
FFE8
0408
0408
0400
1008
1008
1FF8
1008
1FF8
1008
ENDCHAR
STARTCHAR ADD3
ENCODING 12627
SWIDTH 1600 0
DWIDTH 16 0
BBX 12 15 2 -3
BITMAP
0020
7F20
0120
0120
0120
03E0
FC20
0820
0820
0820
0100
0300
0480
0860
3010
ENDCHAR
STARTCHAR ADDC
ENCODING 12628
SWIDTH 1600 0
DWIDTH 16 0
BBX 14 14 1 -3
BITMAP
3FF0
0010
0010
0020
0020
FFFC
0840
0840
0840
0840
0840
0840
0840
0840
ENDCHAR
STARTCHAR ADE0
ENCODING 12629
SWIDTH 1600 0
DWIDTH 16 0
BBX 15 13 0 -2
BITMAP
3FF8
0008
0008
0008
0008
FFFE
0420
0420
1420
1420
1000
1000
1FFC
ENDCHAR
STARTCHAR ADE4
ENCODING 12630
SWIDTH 1600 0
DWIDTH 16 0
BBX 14 14 1 -2
BITMAP
3FF0
0010
0010
0010
0020
FFFC
0840
0840
3FF0
0010
0010
3FF0
2000
3FF8
ENDCHAR
STARTCHAR ADF8
ENCODING 12631
SWIDTH 1600 0
DWIDTH 16 0
BBX 14 11 1 -1
BITMAP
3FF0
0010
0010
0010
0010
0010
0010
0010
0010
0020
FFFC
ENDCHAR
STARTCHAR ADF9
ENCODING 12632
SWIDTH 1600 0
DWIDTH 16 0
BBX 14 14 1 -3
BITMAP
7FF0
0010
0010
0010
0010
FFFC
0000
0000
7FF0
0010
0010
0010
0010
0010
ENDCHAR
STARTCHAR ADFC
ENCODING 12633
SWIDTH 1600 0
DWIDTH 16 0
BBX 14 13 1 -2
BITMAP
3FF0
0010
0010
0010
0010
0010
FFFC
0000
2000
2000
2000
2000
3FF8
ENDCHAR
STARTCHAR ADFF
ENCODING 12634
SWIDTH 1600 0
DWIDTH 16 0
BBX 14 13 1 -2
BITMAP
3FF0
0010
0010
0010
0010
FFFC
0000
0000
3FF8
2000
2000
2000
3FF8
ENDCHAR
STARTCHAR AE00
ENCODING 12635
SWIDTH 1600 0
DWIDTH 16 0
BBX 14 14 1 -2
BITMAP
3FF0
0010
0010
0010
0010
FFFC
0000
0000
3FF0
0010
0010
3FF0
2000
3FF8
ENDCHAR
STARTCHAR AE01
ENCODING 12636
SWIDTH 1600 0
DWIDTH 16 0
BBX 14 15 1 -3
BITMAP
7FF0
0010
0010
0010
0020
FFFC
0000
0000
3FF0
0210
0210
3E10
2010
2010
3F10
ENDCHAR
STARTCHAR AE08
ENCODING 12637
SWIDTH 1600 0
DWIDTH 16 0
BBX 14 14 1 -3
BITMAP
3FF0
0010
0010
0010
0010
FFFC
0000
0000
3FF0
2010
2010
2010
3FF0
2010
ENDCHAR
STARTCHAR AE09
ENCODING 12638
SWIDTH 1600 0
DWIDTH 16 0
BBX 14 14 1 -3
BITMAP
3FF0
0010
0010
0010
0010
FFFC
0000
2010
2010
3FF0
2010
2010
3FF0
2010
ENDCHAR
STARTCHAR AE0B
ENCODING 12639
SWIDTH 1600 0
DWIDTH 16 0
BBX 14 13 1 -2
BITMAP
3FF0
0010
0010
0010
0010
FFFC
0000
0100
0300
0300
0480
1860
6018
ENDCHAR
STARTCHAR AE0D
ENCODING 12640
SWIDTH 1600 0
DWIDTH 16 0
BBX 14 14 1 -3
BITMAP
3FF0
0010
0010
0010
0010
FFFC
0000
0000
0FE0
3018
2008
2008
1810
07E0
ENDCHAR
STARTCHAR AE14
ENCODING 12641
SWIDTH 1600 0
DWIDTH 16 0
BBX 12 15 2 -3
BITMAP
0010
7F10
0110
0110
0110
0110
0110
0110
0010
0050
FF90
0010
0010
0010
0010
ENDCHAR
STARTCHAR AE30
ENCODING 12642
SWIDTH 1600 0
DWIDTH 16 0
BBX 12 15 2 -3
BITMAP
0010
FE10
0210
0210
0210
0410
0410
0810
1810
3010
6010
8010
0010
0010
0010
ENDCHAR
STARTCHAR AE31
ENCODING 12643
SWIDTH 1600 0
DWIDTH 16 0
BBX 12 15 2 -3
BITMAP
0010
FE10
0210
0210
0410
0C10
1810
6010
8010
0000
7FF0
0010
0010
0010
0010
ENDCHAR
STARTCHAR AE34
ENCODING 12644
SWIDTH 1600 0
DWIDTH 16 0
BBX 13 14 2 -2
BITMAP
0010
FE10
0210
0210
0410
0410
1810
3010
C010
0010
2010
2000
2000
3FF8
ENDCHAR
STARTCHAR AE37
ENCODING 12645
SWIDTH 1600 0
DWIDTH 16 0
BBX 13 15 2 -3
BITMAP
0010
FE10
0210
0210
0410
0C10
1810
2010
C010
0000
3FF0
2000
2000
2000
3FF8
ENDCHAR
STARTCHAR AE38
ENCODING 12646
SWIDTH 1600 0
DWIDTH 16 0
BBX 13 14 2 -2
BITMAP
0010
FE10
0210
0210
0410
0C10
1010
E010
0000
3FF0
0010
3FF0
2000
3FF8
ENDCHAR
STARTCHAR AE3A
ENCODING 12647
SWIDTH 1600 0
DWIDTH 16 0
BBX 12 15 2 -3
BITMAP
0010
FE10
0210
0210
0410
0810
3010
C010
0000
3DF0
0510
3D10
2110
21F0
3D10
ENDCHAR
STARTCHAR AE40
ENCODING 12648
SWIDTH 1600 0
DWIDTH 16 0
BBX 12 15 2 -3
BITMAP
0010
FE10
0210
0210
0410
0C10
1810
2010
C010
0000
3FF0
2010
2010
3FF0
2010
ENDCHAR
STARTCHAR AE41
ENCODING 12649
SWIDTH 1600 0
DWIDTH 16 0
BBX 12 15 2 -3
BITMAP
0010
FE10
0210
0210
0410
0C10
1810
6010
8000
2010
2010
3FF0
2010
3FF0
2010
ENDCHAR
STARTCHAR AE43
ENCODING 12650
SWIDTH 1600 0
DWIDTH 16 0
BBX 12 15 2 -3
BITMAP
0010
FE10
0210
0410
0410
0810
1810
3010
C010
0310
0200
0300
0480
1860
6010
ENDCHAR
STARTCHAR AE45
ENCODING 12651
SWIDTH 1600 0
DWIDTH 16 0
BBX 12 15 2 -3
BITMAP
0010
FE10
0210
0210
0210
0410
0810
3010
C010
1FC0
6030
4010
4010
2020
1FC0
ENDCHAR
STARTCHAR AE46
ENCODING 12652
SWIDTH 1600 0
DWIDTH 16 0
BBX 12 15 2 -3
BITMAP
0010
FE10
0210
0210
0410
0810
1010
E010
0000
3FF0
0200
0300
0480
1840
6030
ENDCHAR
STARTCHAR AE4A
ENCODING 12653
SWIDTH 1600 0
DWIDTH 16 0
BBX 12 14 2 -2
BITMAP
0010
FE10
0210
0210
0410
0C10
1810
6010
8000
7FF0
0880
0880
0880
7FF0
ENDCHAR
STARTCHAR AE4C
ENCODING 12654
SWIDTH 1600 0
DWIDTH 16 0
BBX 15 15 1 -3
BITMAP
0010
0010
7790
1090
1110
1110
1110
211E
2110
4210
8210
0410
0810
0010
0010
ENDCHAR
STARTCHAR AE4D
ENCODING 12655
SWIDTH 1600 0
DWIDTH 16 0
BBX 14 15 1 -3
BITMAP
0010
7790
1090
1090
2090
211C
4110
8210
0410
0000
7FF0
0010
0010
0010
0010
ENDCHAR
STARTCHAR AE4E
ENCODING 12656
SWIDTH 1600 0
DWIDTH 16 0
BBX 14 15 1 -3
BITMAP
0010
7710
1110
1110
2210
221C
4410
8410
0010
7DF0
0410
0410
0410
0410
0410
ENDCHAR
STARTCHAR AE50
ENCODING 12657
SWIDTH 1600 0
DWIDTH 16 0
BBX 15 14 1 -2
BITMAP
0010
7790
1090
1090
1110
2110
431E
C210
0410
0010
2010
2010
2000
3FF0
ENDCHAR
STARTCHAR AE54
ENCODING 12658
SWIDTH 1600 0
DWIDTH 16 0
BBX 15 14 1 -2
BITMAP
0010
7790
1090
1110
2110
221E
4210
8C10
0010
3FF0
0010
3FF0
2000
3FF8
ENDCHAR
STARTCHAR AE56
ENCODING 12659
SWIDTH 1600 0
DWIDTH 16 0
BBX 15 15 1 -3
BITMAP
0010
7710
1110
1110
211E
2210
C410
8C10
0000
7DF0
0510
7D10
4110
41F0
7910
ENDCHAR
STARTCHAR AE5C
ENCODING 12660
SWIDTH 1600 0
DWIDTH 16 0
BBX 15 15 1 -3
BITMAP
0010
7790
1090
1110
1110
211E
4210
8210
0410
0000
3FF0
2010
2010
3FF0
2010
ENDCHAR
STARTCHAR AE5D
ENCODING 12661
SWIDTH 1600 0
DWIDTH 16 0
BBX 15 15 1 -3
BITMAP
0010
7790
1090
1110
211E
2110
4210
8410
0000
2010
2010
3FF0
2010
3FF0
2010
ENDCHAR
STARTCHAR AE5F
ENCODING 12662
SWIDTH 1600 0
DWIDTH 16 0
BBX 14 15 2 -3
BITMAP
0020
FF20
1120
1120
2120
223C
4220
8420
0820
0220
0300
0300
0480
1860
6010
ENDCHAR
STARTCHAR AE60
ENCODING 12663
SWIDTH 1600 0
DWIDTH 16 0
BBX 15 15 1 -3
BITMAP
0010
7790
1090
1090
1110
211E
4110
8210
0410
0820
0820
1860
3460
6498
8108
ENDCHAR
STARTCHAR AE61
ENCODING 12664
SWIDTH 1600 0
DWIDTH 16 0
BBX 15 14 1 -2
BITMAP
0010
7790
1090
1110
1110
211E
6110
C210
0410
1FC0
6030
4010
4010
3FE0
ENDCHAR
STARTCHAR AE65
ENCODING 12665
SWIDTH 1600 0
DWIDTH 16 0
BBX 15 14 1 -2
BITMAP
0010
7790
1090
1110
2110
611E
C210
0410
0000
3FF0
2000
3FF0
2000
3FF0
ENDCHAR
STARTCHAR AE68
ENCODING 12666
SWIDTH 1600 0
DWIDTH 16 0
BBX 13 15 1 -3
BITMAP
0048
0048
7748
1148
1148
1148
1248
2278
2248
4448
C448
0848
0848
0048
0008
ENDCHAR
STARTCHAR AE69
ENCODING 12667
SWIDTH 1600 0
DWIDTH 16 0
BBX 12 15 2 -3
BITMAP
0010
EE90
2290
2290
4290
4470
8490
0850
0050
0000
7FF0
0010
0010
0010
0010
ENDCHAR
STARTCHAR AE6C
ENCODING 12668
SWIDTH 1600 0
DWIDTH 16 0
BBX 12 14 2 -2
BITMAP
0090
EE90
2290
2290
2290
4490
44F0
8890
0890
0090
4090
4000
4000
7FF0
ENDCHAR
STARTCHAR AE70
ENCODING 12669
SWIDTH 1600 0
DWIDTH 16 0
BBX 12 14 2 -2
BITMAP
0010
EE90
2290
2290
2490
44F0
4490
8890
0000
7FF0
0010
7FF0
4000
7FF0
ENDCHAR
STARTCHAR AE78
ENCODING 12670
SWIDTH 1600 0
DWIDTH 16 0
BBX 12 15 2 -3
BITMAP
0050
EE50
2250
2250
2250
4470
4450
8850
0850
0000
7FF0
4010
4010
7FF0
4010
ENDCHAR
STARTCHAR AE79
ENCODING 12833
SWIDTH 1600 0
DWIDTH 16 0
BBX 13 15 1 -3
BITMAP
0048
7748
1148
1148
2148
2278
4248
8448
0400
2008
2008
3FF8
2008
3FF8
2008
ENDCHAR
STARTCHAR AE7B
ENCODING 12834
SWIDTH 1600 0
DWIDTH 16 0
BBX 12 15 2 -3
BITMAP
0090
EE90
2290
2290
2490
44F0
4490
8890
1010
0100
0300
0300
0480
1860
2010
ENDCHAR
STARTCHAR AE7C
ENCODING 12835
SWIDTH 1600 0
DWIDTH 16 0
BBX 12 15 2 -3
BITMAP
0090
FC90
2490
2490
2490
48F0
4890
8890
1090
0820
0820
1860
1460
6490
4100
ENDCHAR
STARTCHAR AE7D
ENCODING 12836
SWIDTH 1600 0
DWIDTH 16 0
BBX 12 15 2 -3
BITMAP
0050
EE50
2250
2250
2250
4470
4450
8850
0850
0000
1FC0
6030
4010
6030
1FC0
ENDCHAR
STARTCHAR AE84
ENCODING 12837
SWIDTH 1600 0
DWIDTH 16 0
BBX 15 15 1 -3
BITMAP
0010
7790
1110
1110
111E
2110
2110
6210
4210
841E
0410
0010
0010
0010
0010
ENDCHAR
STARTCHAR AE85
ENCODING 12838
SWIDTH 1600 0
DWIDTH 16 0
BBX 15 15 1 -3
BITMAP
0010
7790
1090
109E
1110
2110
421E
C210
0410
0000
7FF0
0010
0010
0010
0010
ENDCHAR
STARTCHAR AE8C
ENCODING 12839
SWIDTH 1600 0
DWIDTH 16 0
BBX 15 15 1 -3
BITMAP
0010
7790
111E
1110
2110
2210
421E
8C10
0010
3FF0
0010
3FF0
2000
2000
3FF8
ENDCHAR
STARTCHAR AEBC
ENCODING 12840
SWIDTH 1600 0
DWIDTH 16 0
BBX 12 15 2 -3
BITMAP
0010
0010
7710
1110
1110
1110
21F0
2210
4210
8410
8410
0810
0010
0010
0010
ENDCHAR
STARTCHAR AEBD
ENCODING 12841
SWIDTH 1600 0
DWIDTH 16 0
BBX 12 15 2 -3
BITMAP
0010
F710
1110
1110
22F0
6210
C410
8410
0810
0000
7FF0
0010
0010
0010
0010
ENDCHAR
STARTCHAR AEBE
ENCODING 12842
SWIDTH 1600 0
DWIDTH 16 0
BBX 12 15 2 -3
BITMAP
0010
F710
1110
1110
22F0
6210
C410
8810
0000
7DF0
0410
0410
0410
0410
0410
ENDCHAR
STARTCHAR AEC0
ENCODING 12843
SWIDTH 1600 0
DWIDTH 16 0
BBX 13 14 2 -2
BITMAP
0010
F710
1110
1110
21F0
2210
4210
C410
0C10
0010
2010
2000
2000
3FF8
ENDCHAR
STARTCHAR AEC4
ENCODING 12844
SWIDTH 1600 0
DWIDTH 16 0
BBX 13 14 2 -2
BITMAP
0010
F710
1110
1110
2110
2270
4210
8410
0010
3FF0
0010
3FF0
2000
3FF8
ENDCHAR
STARTCHAR AECC
ENCODING 12845
SWIDTH 1600 0
DWIDTH 16 0
BBX 12 15 2 -3
BITMAP
0010
F710
1110
1110
2210
22F0
4610
8410
0810
3FF0
2010
2010
2010
3FF0
2010
ENDCHAR
STARTCHAR AECD
ENCODING 12846
SWIDTH 1600 0
DWIDTH 16 0
BBX 12 15 2 -3
BITMAP
0010
F710
1110
1110
21F0
2210
4210
8410
0000
2010
2010
3FF0
2010
3FF0
2010
ENDCHAR
STARTCHAR AECF
ENCODING 12847
SWIDTH 1600 0
DWIDTH 16 0
BBX 12 15 2 -3
BITMAP
0010
F710
1110
1110
2210
22F0
4210
8410
0810
0010
0210
0300
0580
1840
2030
ENDCHAR
STARTCHAR AED0
ENCODING 12848
SWIDTH 1600 0
DWIDTH 16 0
BBX 12 15 2 -3
BITMAP
0020
EE20
2220
2220
25E0
4420
8820
1820
1000
1840
1040
1840
28A0
6510
8000
ENDCHAR
STARTCHAR AED1
ENCODING 12849
SWIDTH 1600 0
DWIDTH 16 0
BBX 12 15 2 -3
BITMAP
0010
F710
1110
1110
22F0
2210
4410
8410
0810
1FC0
6020
4010
4010
2020
1FC0
ENDCHAR
STARTCHAR AED8
ENCODING 12850
SWIDTH 1600 0
DWIDTH 16 0
BBX 12 15 2 -3
BITMAP
0050
0050
EE50
2250
2250
2250
43D0
4450
4450
8850
0850
1050
0050
0050
0010
ENDCHAR
STARTCHAR AED9
ENCODING 12851
SWIDTH 1600 0
DWIDTH 16 0
BBX 12 15 2 -3
BITMAP
0010
EE50
2250
2250
2450
45D0
8450
0850
1050
7FF0
0010
0010
0010
0010
0010
ENDCHAR
STARTCHAR AEDC
ENCODING 12852
SWIDTH 1600 0
DWIDTH 16 0
BBX 13 14 2 -2
BITMAP
0010
EE50
2250
2250
45D0
4450
8850
0850
1050
0050
2050
2000
2000
3FF8
ENDCHAR
STARTCHAR AEE8
ENCODING 12853
SWIDTH 1600 0
DWIDTH 16 0
BBX 12 15 2 -3
BITMAP
0010
EE50
2250
2250
2450
45D0
8850
0850
1050
0000
3FF0
2010
2010
3FF0
2010
ENDCHAR
STARTCHAR AEEB
ENCODING 12854
SWIDTH 1600 0
DWIDTH 16 0
BBX 12 15 2 -3
BITMAP
0050
EE50
2250
2250
4450
45D0
8450
0850
0050
0000
0200
0300
0480
1860
6010
ENDCHAR
STARTCHAR AEED
ENCODING 12855
SWIDTH 1600 0
DWIDTH 16 0
BBX 13 15 2 -3
BITMAP
0058
EE50
2250
2250
2450
45D0
8850
8850
1050
1FF0
2010
4008
4008
2010
1FE0
ENDCHAR
STARTCHAR AEF4
ENCODING 12856
SWIDTH 1600 0
DWIDTH 16 0
BBX 12 15 2 -3
BITMAP
0010
0010
F710
1170
1110
1110
2110
2270
4210
8210
8410
0810
0010
0010
0010
ENDCHAR
STARTCHAR AEF8
ENCODING 12857
SWIDTH 1600 0
DWIDTH 16 0
BBX 13 14 2 -2
BITMAP
0010
F710
1110
11F0
2210
2210
4210
84F0
0010
0010
2010
2010
2000
3FF8
ENDCHAR
STARTCHAR AEFC
ENCODING 12858
SWIDTH 1600 0
DWIDTH 16 0
BBX 13 14 2 -2
BITMAP
0010
F710
1110
11F0
2110
62F0
C410
0C10
0000
3FF0
0010
3FF0
2000
3FF8
ENDCHAR
STARTCHAR AF07
ENCODING 12859
SWIDTH 1600 0
DWIDTH 16 0
BBX 12 15 2 -3
BITMAP
0010
F710
1110
11F0
2110
2210
42F0
C410
0810
0010
0100
0300
0680
0C60
3010
ENDCHAR
STARTCHAR AF08
ENCODING 12860
SWIDTH 1600 0
DWIDTH 16 0
BBX 13 15 1 -3
BITMAP
0008
7F88
1088
1178
1108
2108
6278
C408
0008
0020
0C20
0C30
1250
20C8
0080
ENDCHAR
STARTCHAR AF0D
ENCODING 12861
SWIDTH 1600 0
DWIDTH 16 0
BBX 12 14 2 -2
BITMAP
0010
F710
1110
11F0
2210
2210
44F0
8410
0000
7FF0
4000
7FE0
4000
7FF0
ENDCHAR
STARTCHAR AF10
ENCODING 12862
SWIDTH 1600 0
DWIDTH 16 0
BBX 12 15 2 -3
BITMAP
0050
0050
EE50
2250
23D0
2250
4250
45D0
4450
8850
1850
1050
0050
0050
0010
ENDCHAR
STARTCHAR AF2C
ENCODING 12863
SWIDTH 1600 0
DWIDTH 16 0
BBX 14 11 1 -1
BITMAP
78F8
0810
0810
0810
0810
0910
1110
1100
0100
0100
FFFC
ENDCHAR
STARTCHAR AF2D
ENCODING 12864
SWIDTH 1600 0
DWIDTH 16 0
BBX 14 14 1 -3
BITMAP
79F0
0810
0810
0910
0910
0100
FFFC
0000
3FF0
0010
0010
0010
0010
0010
ENDCHAR
STARTCHAR AF30
ENCODING 12865
SWIDTH 1600 0
DWIDTH 16 0
BBX 15 13 1 -2
BITMAP
79F0
0810
0810
0910
0910
0100
FFFE
0000
2000
2000
2000
2000
3FF8
ENDCHAR
STARTCHAR AF32
ENCODING 12866
SWIDTH 1600 0
DWIDTH 16 0
BBX 15 15 1 -3
BITMAP
79F0
0810
0810
0910
0910
0100
FFFE
0000
20E0
2000
23F0
21E0
2210
3E10
01E0
ENDCHAR
STARTCHAR AF34
ENCODING 12867
SWIDTH 1600 0
DWIDTH 16 0
BBX 15 14 1 -2
BITMAP
7DF0
0810
0810
0910
0910
0100
FFFE
0000
3FF0
0010
0010
3FF0
2000
3FF8
ENDCHAR
STARTCHAR AF3C
ENCODING 12868
SWIDTH 1600 0
DWIDTH 16 0
BBX 15 14 1 -3
BITMAP
79F0
0810
0810
0910
0910
0100
FFFE
0000
0000
3FF0
2010
2010
3FF0
2010
ENDCHAR
STARTCHAR AF3D
ENCODING 12869
SWIDTH 1600 0
DWIDTH 16 0
BBX 15 14 1 -3
BITMAP
79F0
0810
0810
0910
0910
0100
FFFE
2010
2010
3FF0
2010
2010
3FF0
2010
ENDCHAR
STARTCHAR AF3F
ENCODING 12870
SWIDTH 1600 0
DWIDTH 16 0
BBX 14 13 1 -2
BITMAP
7DF0
0810
0810
0910
0910
0100
FFFC
0000
0300
0300
0480
1860
6018
ENDCHAR
STARTCHAR AF41
ENCODING 12871
SWIDTH 1600 0
DWIDTH 16 0
BBX 15 14 1 -3
BITMAP
79F0
0810
0810
0910
0910
FFFE
0000
0000
1FE0
2010
4008
4008
2018
1FE0
ENDCHAR
STARTCHAR AF42
ENCODING 12872
SWIDTH 1600 0
DWIDTH 16 0
BBX 14 13 1 -2
BITMAP
79F0
0810
0810
0910
0910
FFFC
0000
0000
3FF0
0300
0300
0CC0
7038
ENDCHAR
STARTCHAR AF43
ENCODING 12873
SWIDTH 1600 0
DWIDTH 16 0
BBX 15 13 1 -2
BITMAP
79F0
0810
0810
0910
0100
FFFE
0000
0780
3FF0
0300
0300
0CC0
3038
ENDCHAR
STARTCHAR AF48
ENCODING 12874
SWIDTH 1600 0
DWIDTH 16 0
BBX 15 15 1 -3
BITMAP
0010
F790
1090
1090
1090
1090
2490
241E
0410
0410
FF90
0010
0010
0010
0010
ENDCHAR
STARTCHAR AF49
ENCODING 12875
SWIDTH 1600 0
DWIDTH 16 0
BBX 14 15 1 -3
BITMAP
0010
7790
1090
1090
2490
249C
0410
FF90
0000
0000
7FF0
0010
0010
0010
0010
ENDCHAR
STARTCHAR AF50
ENCODING 12876
SWIDTH 1600 0
DWIDTH 16 0
BBX 15 14 1 -2
BITMAP
0010
7790
1090
1090
2490
249E
0410
FFD0
0000
7FF0
0010
7FF0
4000
7FF0
ENDCHAR
STARTCHAR AF5C
ENCODING 12877
SWIDTH 1600 0
DWIDTH 16 0
BBX 14 15 1 -3
BITMAP
0010
F790
1090
1090
1490
249C
0410
FFD0
0010
0C00
0820
0C20
1450
2298
4108
ENDCHAR
STARTCHAR AF5D
ENCODING 12878
SWIDTH 1600 0
DWIDTH 16 0
BBX 15 15 1 -3
BITMAP
0010
7790
1090
1090
1490
249E
0410
FF90
0010
1FC0
2030
4010
4010
6030
1FC0
ENDCHAR
STARTCHAR AF64
ENCODING 12879
SWIDTH 1600 0
DWIDTH 16 0
BBX 13 15 1 -3
BITMAP
0008
7728
1128
1128
2128
2128
2928
0838
0828
0828
FF28
0028
0028
0028
0008
ENDCHAR
STARTCHAR AF65
ENCODING 12880
SWIDTH 1600 0
DWIDTH 16 0
BBX 13 15 1 -3
BITMAP
0008
7728
1128
2128
2928
0838
0828
FF28
0028
0000
3FF8
0008
0008
0008
0008
ENDCHAR
STARTCHAR AF79
ENCODING 12881
SWIDTH 1600 0
DWIDTH 16 0
BBX 13 15 1 -3
BITMAP
0008
7748
1148
2148
2948
0878
0848
FF48
0048
0FE0
3010
2008
2008
3018
0FE0
ENDCHAR
STARTCHAR AF80
ENCODING 12882
SWIDTH 1600 0
DWIDTH 16 0
BBX 12 15 2 -3
BITMAP
0010
7790
1090
1090
1090
2090
2490
2410
0410
0410
FF90
0010
0010
0010
0010
ENDCHAR
STARTCHAR AF84
ENCODING 12883
SWIDTH 1600 0
DWIDTH 16 0
BBX 13 14 2 -2
BITMAP
0010
7790
1090
1090
2090
2490
2490
0410
FFD0
0010
2010
2000
2000
3FF8
ENDCHAR
STARTCHAR AF88
ENCODING 12884
SWIDTH 1600 0
DWIDTH 16 0
BBX 13 14 2 -2
BITMAP
0010
F790
1090
1090
1490
2490
0430
FFD0
0000
3FF0
0010
3FF0
2000
3FF8
ENDCHAR
STARTCHAR AF90
ENCODING 12885
SWIDTH 1600 0
DWIDTH 16 0
BBX 11 15 3 -3
BITMAP
0020
EF20
2120
2120
2120
4920
4920
0FE0
F020
7FE0
4020
4020
4020
7FE0
4020
ENDCHAR
STARTCHAR AF91
ENCODING 12886
SWIDTH 1600 0
DWIDTH 16 0
BBX 12 15 2 -3
BITMAP
0010
7790
1090
1090
1490
2490
0410
FFF0
0010
2010
2010
3FF0
2010
3FF0
2010
ENDCHAR
STARTCHAR AF95
ENCODING 12887
SWIDTH 1600 0
DWIDTH 16 0
BBX 12 15 2 -3
BITMAP
0010
7790
1090
1090
1090
2490
0410
05F0
FA10
1FC0
6030
4010
4010
2020
1FC0
ENDCHAR
STARTCHAR AF9C
ENCODING 12888
SWIDTH 1600 0
DWIDTH 16 0
BBX 14 11 1 -1
BITMAP
79F8
0808
0808
0808
1008
1450
1450
0450
0440
0440
FFFC
ENDCHAR
STARTCHAR AFB8
ENCODING 12889
SWIDTH 1600 0
DWIDTH 16 0
BBX 15 14 0 -3
BITMAP
7CF8
0408
0408
0408
0410
0410
FFFE
0100
0100
0100
0100
0100
0100
0100
ENDCHAR
STARTCHAR AFB9
ENCODING 12890
SWIDTH 1600 0
DWIDTH 16 0
BBX 15 15 0 -3
BITMAP
7CF8
0408
0408
0408
0410
0410
FFFE
0100
0100
3FF8
0008
0008
0008
0008
0008
ENDCHAR
STARTCHAR AFBC
ENCODING 12891
SWIDTH 1600 0
DWIDTH 16 0
BBX 14 13 1 -2
BITMAP
7DF0
0410
0410
0810
0810
FFFC
0200
0200
2200
2000
2000
2000
3FF8
ENDCHAR
STARTCHAR AFC0
ENCODING 12892
SWIDTH 1600 0
DWIDTH 16 0
BBX 15 14 0 -2
BITMAP
3CF8
0408
0408
0408
0410
FFFE
0100
0100
1FF8
0008
0008
1FF8
1000
1FFC
ENDCHAR
STARTCHAR AFC7
ENCODING 12893
SWIDTH 1600 0
DWIDTH 16 0
BBX 15 15 1 -3
BITMAP
7CF8
0408
0408
0410
0410
FFFE
0100
0100
3CE0
05F8
0400
3CE0
2110
2110
3EE0
ENDCHAR
STARTCHAR AFC8
ENCODING 12894
SWIDTH 1600 0
DWIDTH 16 0
BBX 15 14 0 -3
BITMAP
3CF8
0408
0408
0410
FFFE
0100
0100
0100
1FF8
1008
1008
1008
1FF8
1008
ENDCHAR
STARTCHAR AFC9
ENCODING 12895
SWIDTH 1600 0
DWIDTH 16 0
BBX 15 14 0 -3
BITMAP
3CF8
0408
0408
0408
0410
FFFE
0100
1108
1108
1FF8
1008
1008
1FF8
1008
ENDCHAR
STARTCHAR AFCB
ENCODING 12896
SWIDTH 1600 0
DWIDTH 16 0
BBX 15 15 0 -3
BITMAP
7CF8
0408
0408
0408
0410
0410
FFFE
0100
0100
0000
0100
0180
0240
0C30
300C
ENDCHAR
STARTCHAR AFCD
ENCODING 12897
SWIDTH 1600 0
DWIDTH 16 0
BBX 15 14 1 -3
BITMAP
7CF8
0408
0408
0410
0410
FFFE
0100
0100
1FE0
2010
4008
4008
2010
1FE0
ENDCHAR
STARTCHAR AFCE
ENCODING 12898
SWIDTH 1600 0
DWIDTH 16 0
BBX 15 15 0 -3
BITMAP
3CF8
0408
0408
0410
0410
FFFE
0100
0100
0100
3FF8
0180
0180
0240
0C20
1018
ENDCHAR
STARTCHAR AFD4
ENCODING 12899
SWIDTH 1600 0
DWIDTH 16 0
BBX 13 15 1 -3
BITMAP
0008
7B88
0888
1088
1088
1088
10C8
FF08
0408
0478
0408
0408
0408
0408
0008
ENDCHAR
STARTCHAR AFDC
ENCODING 12900
SWIDTH 1600 0
DWIDTH 16 0
BBX 14 15 1 -3
BITMAP
0008
7B88
1088
1088
1088
1FC8
E408
0478
0008
1FF8
0008
1FF8
1000
1000
1FFC
ENDCHAR
STARTCHAR AFE8
ENCODING 12901
SWIDTH 1600 0
DWIDTH 16 0
BBX 13 15 1 -3
BITMAP
0008
7B88
1088
1088
1088
F1C8
0E08
0478
0408
0000
0820
0C30
1430
2248
4080
ENDCHAR
STARTCHAR AFE9
ENCODING 12902
SWIDTH 1600 0
DWIDTH 16 0
BBX 13 15 1 -3
BITMAP
0008
7B88
1088
1088
1088
10C8
EF08
0478
0408
0FE0
3010
2008
2008
3018
0FE0
ENDCHAR
STARTCHAR AFF0
ENCODING 12903
SWIDTH 1600 0
DWIDTH 16 0
BBX 12 15 2 -3
BITMAP
0090
EE90
2290
2290
2290
2290
2C90
FF90
1090
1790
1090
1090
1090
0090
0010
ENDCHAR
STARTCHAR AFF1
ENCODING 12904
SWIDTH 1600 0
DWIDTH 16 0
BBX 14 15 1 -3
BITMAP
0024
7624
1224
2224
2224
3E24
FF24
09E4
0824
0000
1FFC
0004
0004
0004
0004
ENDCHAR
STARTCHAR AFF4
ENCODING 12905
SWIDTH 1600 0
DWIDTH 16 0
BBX 14 14 1 -2
BITMAP
0004
7624
1224
2224
2224
2224
FE24
0824
09E4
0824
1024
1000
1000
1FFC
ENDCHAR
STARTCHAR AFF8
ENCODING 12906
SWIDTH 1600 0
DWIDTH 16 0
BBX 14 14 1 -2
BITMAP
0044
7644
1244
1244
2244
FF44
0844
0BC4
0040
1FFC
0004
1FFC
1000
1FFC
ENDCHAR
STARTCHAR B000
ENCODING 12907
SWIDTH 1600 0
DWIDTH 16 0
BBX 14 15 1 -3
BITMAP
0004
7624
1224
1224
2224
FF24
0824
09E4
0024
0000
1FFC
1004
1004
1FFC
1004
ENDCHAR
STARTCHAR B001
ENCODING 12908
SWIDTH 1600 0
DWIDTH 16 0
BBX 13 15 1 -3
BITMAP
0008
7E48
1248
1248
2248
3F48
C848
0BC8
0048
1008
1008
1FF8
1008
1FF8
1008
ENDCHAR
STARTCHAR B004
ENCODING 12909
SWIDTH 1600 0
DWIDTH 16 0
BBX 15 15 0 -3
BITMAP
0004
7624
1224
1224
1224
2724
D824
09E4
0824
0000
0208
0208
0518
0824
1042
ENDCHAR
STARTCHAR B00C
ENCODING 12910
SWIDTH 1600 0
DWIDTH 16 0
BBX 12 15 2 -3
BITMAP
0010
7390
1090
1090
1090
1090
2090
FFD0
0410
0410
0410
0410
0410
0410
0010
ENDCHAR
STARTCHAR B010
ENCODING 12911
SWIDTH 1600 0
DWIDTH 16 0
BBX 13 14 2 -2
BITMAP
0010
7390
1090
1090
1090
1090
FFD0
0410
0410
0410
2410
2000
2000
3FF8
ENDCHAR
STARTCHAR B014
ENCODING 12912
SWIDTH 1600 0
DWIDTH 16 0
BBX 13 14 2 -2
BITMAP
0010
7390
1090
1090
1090
FFD0
0410
0410
0000
3FF0
0010
3FF0
2000
3FF8
ENDCHAR
STARTCHAR B01C
ENCODING 12913
SWIDTH 1600 0
DWIDTH 16 0
BBX 12 15 2 -3
BITMAP
0010
7390
1090
1090
1090
10D0
FF10
0410
0410
0000
3FF0
2010
2010
3FF0
2010
ENDCHAR
STARTCHAR B01D
ENCODING 12914
SWIDTH 1600 0
DWIDTH 16 0
BBX 12 15 2 -3
BITMAP
0010
7390
1090
1090
1090
10D0
EF10
0410
0410
2010
2010
3FF0
2010
3FF0
2010
ENDCHAR
STARTCHAR B028
ENCODING 12915
SWIDTH 1600 0
DWIDTH 16 0
BBX 14 14 1 -3
BITMAP
7DF0
0410
0410
0410
0810
0820
FFFC
0840
0840
0840
0840
0840
0840
0840
ENDCHAR
STARTCHAR B044
ENCODING 12916
SWIDTH 1600 0
DWIDTH 16 0
BBX 14 11 1 -1
BITMAP
7DF0
0410
0410
0410
0810
0810
0810
0810
0820
0820
FFFC
ENDCHAR
STARTCHAR B045
ENCODING 12917
SWIDTH 1600 0
DWIDTH 16 0
BBX 14 14 1 -3
BITMAP
7DF0
0410
0410
0810
0810
FFFC
0000
0000
7FF0
0010
0010
0010
0010
0010
ENDCHAR
STARTCHAR B048
ENCODING 12918
SWIDTH 1600 0
DWIDTH 16 0
BBX 14 13 1 -2
BITMAP
7DF0
0410
0410
0810
0810
0810
FFFC
0000
2000
2000
2000
2000
3FF8
ENDCHAR
STARTCHAR B04A
ENCODING 12919
SWIDTH 1600 0
DWIDTH 16 0
BBX 14 14 1 -3
BITMAP
7DF0
0410
0810
0810
0810
FFFC
00E0
2000
23F0
21E0
2210
2210
3F10
01E0
ENDCHAR
STARTCHAR B04C
ENCODING 12920
SWIDTH 1600 0
DWIDTH 16 0
BBX 14 13 1 -2
BITMAP
7DF0
0410
0410
0810
0810
FFFC
0000
3FF0
0010
0010
3FF0
2000
3FF8
ENDCHAR
STARTCHAR B04E
ENCODING 12921
SWIDTH 1600 0
DWIDTH 16 0
BBX 14 14 1 -3
BITMAP
7DF0
0410
0810
0810
0810
FFFC
0000
3FF0
0310
0310
3F10
2110
21F0
3F10
ENDCHAR
STARTCHAR B053
ENCODING 12922
SWIDTH 1600 0
DWIDTH 16 0
BBX 14 14 1 -3
BITMAP
7DF0
0410
0810
0820
FFFC
0000
00E0
3C00
07F0
3CE0
2110
2110
3F10
00E0
ENDCHAR
STARTCHAR B054
ENCODING 12923
SWIDTH 1600 0
DWIDTH 16 0
BBX 14 14 1 -3
BITMAP
7DF0
0410
0810
0810
0810
FFFC
0000
0000
3FF0
2010
2010
2010
3FF0
2010
ENDCHAR
STARTCHAR B055
ENCODING 12924
SWIDTH 1600 0
DWIDTH 16 0
BBX 14 14 1 -3
BITMAP
7DF0
0410
0810
0810
0810
FFFC
0000
2010
2010
3FF0
2010
2010
3FF0
2010
ENDCHAR
STARTCHAR B057
ENCODING 12925
SWIDTH 1600 0
DWIDTH 16 0
BBX 14 13 1 -2
BITMAP
7DF0
0410
0410
0810
0810
0810
FFFC
0100
0300
0300
0480
1860
6018
ENDCHAR
STARTCHAR B059
ENCODING 12926
SWIDTH 1600 0
DWIDTH 16 0
BBX 14 14 1 -3
BITMAP
7DF0
0410
0810
0810
0810
FFFC
0000
0000
1FE0
2010
4008
4008
2010
1FE0
ENDCHAR
STARTCHAR B05D
ENCODING 13089
SWIDTH 1600 0
DWIDTH 16 0
BBX 14 13 1 -2
BITMAP
7DF0
0410
0810
0810
0810
FFFC
0000
3FF8
2000
2000
3FF0
2000
3FF8
ENDCHAR
STARTCHAR B07C
ENCODING 13090
SWIDTH 1600 0
DWIDTH 16 0
BBX 12 15 2 -3
BITMAP
0010
0010
7790
1090
1090
1110
2110
2110
4110
4210
8210
0410
0810
0010
0010
ENDCHAR
STARTCHAR B07D
ENCODING 13091
SWIDTH 1600 0
DWIDTH 16 0
BBX 12 15 2 -3
BITMAP
0010
F710
1110
1110
2210
2210
4410
8C10
0810
0000
7FF0
0010
0010
0010
0010
ENDCHAR
STARTCHAR B080
ENCODING 13092
SWIDTH 1600 0
DWIDTH 16 0
BBX 13 14 2 -2
BITMAP
0010
F790
1110
1110
1110
2110
6210
C210
8C10
0010
2010
2000
2000
3FF8
ENDCHAR
STARTCHAR B084
ENCODING 13093
SWIDTH 1600 0
DWIDTH 16 0
BBX 13 15 2 -3
BITMAP
0010
F790
1090
1090
2110
2110
C210
0410
0000
3FF0
0010
3FF0
2000
2000
3FF8
ENDCHAR
STARTCHAR B08C
ENCODING 13094
SWIDTH 1600 0
DWIDTH 16 0
BBX 12 15 2 -3
BITMAP
0010
F790
1090
1090
1110
2110
4210
8610
0C10
0000
3FF0
2010
2010
3FF0
2010
ENDCHAR
STARTCHAR B08D
ENCODING 13095
SWIDTH 1600 0
DWIDTH 16 0
BBX 12 15 2 -3
BITMAP
0010
F790
1090
1110
2110
2210
4210
8410
0000
2010
2010
3FF0
2010
3FF0
2010
ENDCHAR
STARTCHAR B08F
ENCODING 13096
SWIDTH 1600 0
DWIDTH 16 0
BBX 13 15 1 -3
BITMAP
0008
7B88
0888
1088
1088
1108
2108
C208
0408
0008
0180
0180
0240
0C30
1008
ENDCHAR
STARTCHAR B091
ENCODING 13097
SWIDTH 1600 0
DWIDTH 16 0
BBX 12 15 2 -3
BITMAP
0010
F710
1110
1110
2110
2110
4210
8410
0810
0000
0FC0
3030
2010
3030
0FC0
ENDCHAR
STARTCHAR B098
ENCODING 13098
SWIDTH 1600 0
DWIDTH 16 0
BBX 14 15 1 -3
BITMAP
0020
8020
8020
8020
8020
8020
8020
803C
8020
83A0
FC20
0020
0020
0020
0020
ENDCHAR
STARTCHAR B099
ENCODING 13099
SWIDTH 1600 0
DWIDTH 16 0
BBX 14 15 1 -3
BITMAP
0020
8020
8020
8020
803C
8020
83A0
FC20
0000
0000
7FE0
0020
0020
0020
0020
ENDCHAR
STARTCHAR B09A
ENCODING 13100
SWIDTH 1600 0
DWIDTH 16 0
BBX 14 15 1 -3
BITMAP
0020
8020
8020
8020
803C
8020
87A0
7820
0000
7FE0
0420
0420
0420
0420
0420
ENDCHAR
STARTCHAR B09C
ENCODING 13101
SWIDTH 1600 0
DWIDTH 16 0
BBX 14 14 1 -2
BITMAP
0020
8020
8020
8020
8020
803C
8020
FFA0
0020
4020
4020
4000
4000
7FE0
ENDCHAR
STARTCHAR B09F
ENCODING 13102
SWIDTH 1600 0
DWIDTH 16 0
BBX 14 14 1 -2
BITMAP
0020
8020
8020
8020
8020
803C
8FA0
7020
0020
0000
7FE0
4000
4000
7FE0
ENDCHAR
STARTCHAR B0A0
ENCODING 13103
SWIDTH 1600 0
DWIDTH 16 0
BBX 14 14 1 -2
BITMAP
0020
8020
8020
8020
8020
803C
FFA0
0020
0000
7FE0
0020
7FE0
4000
7FE0
ENDCHAR
STARTCHAR B0A1
ENCODING 13104
SWIDTH 1600 0
DWIDTH 16 0
BBX 14 15 1 -3
BITMAP
0020
8020
8020
8020
803C
8020
FFA0
0000
7FE0
0420
0420
7C20
4020
4020
7C20
ENDCHAR
STARTCHAR B0A2
ENCODING 13105
SWIDTH 1600 0
DWIDTH 16 0
BBX 14 15 1 -3
BITMAP
0020
8020
8020
8020
803C
8020
FFA0
0020
7DE0
0520
0520
7D20
4120
4DE0
3120
ENDCHAR
STARTCHAR B0A8
ENCODING 13106
SWIDTH 1600 0
DWIDTH 16 0
BBX 14 15 1 -3
BITMAP
0020
8020
8020
8020
8020
803C
FFA0
0020
0020
7FE0
4020
4020
4020
7FE0
4020
ENDCHAR
STARTCHAR B0A9
ENCODING 13107
SWIDTH 1600 0
DWIDTH 16 0
BBX 14 15 1 -3
BITMAP
0020
8020
8020
8020
803C
8020
FFA0
0020
0000
4020
7FE0
7C20
4020
7FE0
4020
ENDCHAR
STARTCHAR B0AB
ENCODING 13108
SWIDTH 1600 0
DWIDTH 16 0
BBX 14 15 1 -3
BITMAP
0020
8020
8020
8020
8020
803C
8020
FF20
0020
0320
0200
0300
0480
1860
6010
ENDCHAR
STARTCHAR B0AC
ENCODING 13109
SWIDTH 1600 0
DWIDTH 16 0
BBX 14 15 1 -3
BITMAP
0020
8020
8020
8020
803C
8020
87A0
F820
0000
0820
0860
1860
2450
6490
0100
ENDCHAR
STARTCHAR B0AD
ENCODING 13110
SWIDTH 1600 0
DWIDTH 16 0
BBX 14 15 1 -3
BITMAP
0020
8020
8020
8020
8020
803C
81A0
FE20
0020
1FE0
2030
4010
4010
6030
1FC0
ENDCHAR
STARTCHAR B0AE
ENCODING 13111
SWIDTH 1600 0
DWIDTH 16 0
BBX 14 15 1 -3
BITMAP
0020
8020
8020
8020
803C
8020
FF20
0020
0000
3FE0
0200
0200
0500
18C0
6030
ENDCHAR
STARTCHAR B0AF
ENCODING 13112
SWIDTH 1600 0
DWIDTH 16 0
BBX 14 15 1 -3
BITMAP
0020
8020
8020
8020
8020
803C
FF20
0020
0F00
0000
7FE0
0200
0500
0880
7070
ENDCHAR
STARTCHAR B0B1
ENCODING 13113
SWIDTH 1600 0
DWIDTH 16 0
BBX 14 14 1 -2
BITMAP
0020
8020
8020
8020
803C
80A0
FF20
0020
0000
7FE0
4000
7FE0
4000
7FE0
ENDCHAR
STARTCHAR B0B3
ENCODING 13114
SWIDTH 1600 0
DWIDTH 16 0
BBX 14 15 1 -3
BITMAP
0020
8020
8020
8020
803C
87A0
F820
0FA0
0000
7FF0
0000
1F80
6070
6010
3FE0
ENDCHAR
STARTCHAR B0B4
ENCODING 13115
SWIDTH 1600 0
DWIDTH 16 0
BBX 12 15 2 -3
BITMAP
0110
8110
8110
8110
8110
8110
8110
81F0
8110
8110
FD10
0110
0110
0110
0010
ENDCHAR
STARTCHAR B0B5
ENCODING 13116
SWIDTH 1600 0
DWIDTH 16 0
BBX 12 15 2 -3
BITMAP
0110
8110
8110
8110
8110
81F0
BD10
4110
0110
0000
7FF0
0010
0010
0010
0010
ENDCHAR
STARTCHAR B0B8
ENCODING 13117
SWIDTH 1600 0
DWIDTH 16 0
BBX 12 14 2 -2
BITMAP
0010
8110
8110
8110
8110
81F0
8110
FD10
0110
0110
4000
4000
4000
7FF0
ENDCHAR
STARTCHAR B0BC
ENCODING 13118
SWIDTH 1600 0
DWIDTH 16 0
BBX 12 14 2 -2
BITMAP
0110
8110
8110
8110
81F0
8110
FD10
0010
0000
7FF0
0010
7FF0
4000
7FF0
ENDCHAR
STARTCHAR B0C4
ENCODING 13119
SWIDTH 1600 0
DWIDTH 16 0
BBX 12 15 2 -3
BITMAP
0010
8110
8110
8110
8110
81F0
BD10
4110
0110
0000
7FF0
4010
4010
7FF0
4010
ENDCHAR
STARTCHAR B0C5
ENCODING 13120
SWIDTH 1600 0
DWIDTH 16 0
BBX 12 15 2 -3
BITMAP
0010
8110
8110
8110
8110
81F0
FD10
0110
0010
4010
4010
7FF0
4010
7FF0
4010
ENDCHAR
STARTCHAR B0C7
ENCODING 13121
SWIDTH 1600 0
DWIDTH 16 0
BBX 13 15 1 -3
BITMAP
0088
8088
8088
8088
8088
80F8
8088
FC88
0088
0008
0100
0180
02C0
0C30
3008
ENDCHAR
STARTCHAR B0C8
ENCODING 13122
SWIDTH 1600 0
DWIDTH 16 0
BBX 13 15 1 -3
BITMAP
0008
8088
8088
8088
8088
80F8
8488
F888
0008
0820
0820
0830
1450
3288
6080
ENDCHAR
STARTCHAR B0C9
ENCODING 13123
SWIDTH 1600 0
DWIDTH 16 0
BBX 12 15 2 -3
BITMAP
0110
8110
8110
8110
8110
81F0
9D10
E110
0110
0000
1FC0
6030
4010
7070
1FC0
ENDCHAR
STARTCHAR B0D0
ENCODING 13124
SWIDTH 1600 0
DWIDTH 16 0
BBX 14 15 1 -3
BITMAP
0020
8020
8020
8020
803C
8020
8020
8020
8020
80BC
FF20
0020
0020
0020
0020
ENDCHAR
STARTCHAR B0D1
ENCODING 13125
SWIDTH 1600 0
DWIDTH 16 0
BBX 14 15 1 -3
BITMAP
0020
8020
8020
803C
8020
80A0
FF3C
0020
0020
0000
7FE0
0020
0020
0020
0020
ENDCHAR
STARTCHAR B0D4
ENCODING 13126
SWIDTH 1600 0
DWIDTH 16 0
BBX 13 14 1 -2
BITMAP
0020
8020
8020
8038
8020
8020
83A0
FC38
0020
0020
4020
4000
4000
7FE0
ENDCHAR
STARTCHAR B0D8
ENCODING 13127
SWIDTH 1600 0
DWIDTH 16 0
BBX 14 14 1 -2
BITMAP
0020
8020
803C
8020
8020
8020
FF3C
0020
7FE0
0020
0020
7FE0
4000
7FE0
ENDCHAR
STARTCHAR B0E0
ENCODING 13128
SWIDTH 1600 0
DWIDTH 16 0
BBX 14 15 1 -3
BITMAP
0020
8020
8020
803C
8020
8020
FFBC
0020
0020
0000
7FE0
4020
4020
7FE0
4020
ENDCHAR
STARTCHAR B0E5
ENCODING 13129
SWIDTH 1600 0
DWIDTH 16 0
BBX 14 15 1 -3
BITMAP
0020
8020
8020
803C
8020
8020
87A0
783C
0020
1FE0
6030
4010
4010
38E0
0700
ENDCHAR
STARTCHAR B108
ENCODING 13130
SWIDTH 1600 0
DWIDTH 16 0
BBX 12 15 2 -3
BITMAP
0010
8010
8010
8010
8010
81F0
8010
8010
8010
8010
FE10
0010
0010
0010
0010
ENDCHAR
STARTCHAR B109
ENCODING 13131
SWIDTH 1600 0
DWIDTH 16 0
BBX 12 15 2 -3
BITMAP
0010
8010
8010
81F0
8010
8010
FF10
0010
0010
0000
7FF0
0010
0010
0010
0010
ENDCHAR
STARTCHAR B10B
ENCODING 13132
SWIDTH 1600 0
DWIDTH 16 0
BBX 12 15 2 -3
BITMAP
0020
8020
8020
83E0
8020
8020
FE20
0020
0020
F840
08C0
08C0
0920
0B30
0A10
ENDCHAR
STARTCHAR B10C
ENCODING 13133
SWIDTH 1600 0
DWIDTH 16 0
BBX 12 14 2 -2
BITMAP
0010
8010
8010
8010
81F0
8010
8010
FF10
0010
0010
4010
4010
4000
7FE0
ENDCHAR
STARTCHAR B110
ENCODING 13134
SWIDTH 1600 0
DWIDTH 16 0
BBX 12 14 2 -2
BITMAP
0010
8010
8010
81F0
8010
8010
FE10
0010
0000
3FF0
0010
7FF0
4000
7FF0
ENDCHAR
STARTCHAR B112
ENCODING 13135
SWIDTH 1600 0
DWIDTH 16 0
BBX 12 15 2 -3
BITMAP
0010
8010
8010
81F0
8010
8010
FE10
0010
7DF0
0510
0510
7D10
4110
7DF0
0110
ENDCHAR
STARTCHAR B113
ENCODING 13136
SWIDTH 1600 0
DWIDTH 16 0
BBX 12 15 2 -3
BITMAP
0010
8010
8010
81F0
8010
8010
FC10
0010
7D10
0510
05F0
7D10
4110
41F0
7D10
ENDCHAR
STARTCHAR B118
ENCODING 13137
SWIDTH 1600 0
DWIDTH 16 0
BBX 12 15 2 -3
BITMAP
0010
8010
8010
81F0
8010
8010
8610
7810
0010
0000
7FF0
4010
4010
7FF0
4010
ENDCHAR
STARTCHAR B119
ENCODING 13138
SWIDTH 1600 0
DWIDTH 16 0
BBX 12 15 2 -3
BITMAP
0010
8010
8010
81F0
8010
8010
8610
F810
4010
4010
7FF0
4010
4010
7FF0
4010
ENDCHAR
STARTCHAR B11B
ENCODING 13139
SWIDTH 1600 0
DWIDTH 16 0
BBX 12 15 2 -3
BITMAP
0020
8020
8020
8020
83E0
8020
8020
FE20
0020
0220
0220
0300
0480
1860
6010
ENDCHAR
STARTCHAR B11C
ENCODING 13140
SWIDTH 1600 0
DWIDTH 16 0
BBX 13 15 1 -3
BITMAP
0010
8010
8010
81F0
8010
8010
8010
FE10
0000
0820
0820
0C30
1450
22C8
4000
ENDCHAR
STARTCHAR B11D
ENCODING 13141
SWIDTH 1600 0
DWIDTH 16 0
BBX 12 15 2 -3
BITMAP
0010
8010
8010
81F0
8010
8010
8610
F810
0010
1FC0
2020
4010
4010
6030
1FC0
ENDCHAR
STARTCHAR B123
ENCODING 13142
SWIDTH 1600 0
DWIDTH 16 0
BBX 12 15 2 -3
BITMAP
0010
8010
8010
81F0
8010
8E10
F010
0F10
0000
7FF0
0000
3FE0
4010
6030
1FC0
ENDCHAR
STARTCHAR B124
ENCODING 13143
SWIDTH 1600 0
DWIDTH 16 0
BBX 12 15 2 -3
BITMAP
0110
8110
8110
8110
8110
8F10
8110
8110
8110
8110
FD10
0110
0110
0110
0010
ENDCHAR
STARTCHAR B125
ENCODING 13144
SWIDTH 1600 0
DWIDTH 16 0
BBX 12 15 2 -3
BITMAP
0090
8090
8090
8090
8790
8090
8090
FC90
0090
0000
7FF0
0010
0010
0010
0010
ENDCHAR
STARTCHAR B128
ENCODING 13145
SWIDTH 1600 0
DWIDTH 16 0
BBX 12 14 2 -2
BITMAP
0090
8090
8090
8090
8790
8090
8090
8C90
F090
0090
4090
4000
4000
7FF0
ENDCHAR
STARTCHAR B12C
ENCODING 13146
SWIDTH 1600 0
DWIDTH 16 0
BBX 12 14 2 -2
BITMAP
0010
8090
8090
8790
8090
8090
8C90
F090
0000
7FF0
0010
7FF0
4000
7FF0
ENDCHAR
STARTCHAR B134
ENCODING 13147
SWIDTH 1600 0
DWIDTH 16 0
BBX 12 15 2 -3
BITMAP
0010
8090
8090
8090
8390
8090
FC90
0090
0090
0000
7FF0
4010
4010
7FF0
4010
ENDCHAR
STARTCHAR B135
ENCODING 13148
SWIDTH 1600 0
DWIDTH 16 0
BBX 12 15 2 -3
BITMAP
0010
8090
8090
8790
8090
8090
8C90
F090
0010
0000
4010
7FF0
4010
7FF0
4010
ENDCHAR
STARTCHAR B137
ENCODING 13149
SWIDTH 1600 0
DWIDTH 16 0
BBX 12 15 2 -3
BITMAP
0110
8110
8110
8110
8F10
8110
8110
FD10
0110
0010
0200
0600
0980
10E0
6010
ENDCHAR
STARTCHAR B138
ENCODING 13150
SWIDTH 1600 0
DWIDTH 16 0
BBX 13 15 1 -3
BITMAP
0010
8090
8090
8790
8090
8090
8490
F890
0010
0000
0820
0860
1450
3298
4100
ENDCHAR
STARTCHAR B139
ENCODING 13151
SWIDTH 1600 0
DWIDTH 16 0
BBX 12 15 2 -3
BITMAP
0090
8090
8090
8790
8090
8090
8C90
F090
0090
1FC0
6030
4010
4010
6030
1FC0
ENDCHAR
STARTCHAR B140
ENCODING 13152
SWIDTH 1600 0
DWIDTH 16 0
BBX 12 15 2 -3
BITMAP
0010
8010
8010
81F0
8010
8010
8010
81F0
8010
8010
BE10
4010
0010
0010
0010
ENDCHAR
STARTCHAR B141
ENCODING 13153
SWIDTH 1600 0
DWIDTH 16 0
BBX 12 15 2 -3
BITMAP
0010
8010
81F0
8010
8010
81F0
8010
FE10
0010
0000
3FF0
0010
0010
0010
0010
ENDCHAR
STARTCHAR B144
ENCODING 13154
SWIDTH 1600 0
DWIDTH 16 0
BBX 12 14 2 -2
BITMAP
0010
8010
81F0
8010
8010
81F0
8010
8410
F810
0010
4010
4000
4000
7FF0
ENDCHAR
STARTCHAR B148
ENCODING 13155
SWIDTH 1600 0
DWIDTH 16 0
BBX 12 14 2 -2
BITMAP
0010
8010
81F0
8010
81F0
8010
FE10
0010
0000
7FF0
0010
7FF0
4000
7FF0
ENDCHAR
STARTCHAR B150
ENCODING 13156
SWIDTH 1600 0
DWIDTH 16 0
BBX 12 15 2 -3
BITMAP
0010
8010
81F0
8010
8010
81F0
8010
FC10
0010
0000
7FF0
4010
4010
7FF0
4010
ENDCHAR
STARTCHAR B151
ENCODING 13157
SWIDTH 1600 0
DWIDTH 16 0
BBX 12 15 2 -3
BITMAP
0010
8010
81F0
8010
8010
81F0
8610
F810
0010
4010
4010
7FF0
4010
7FF0
4010
ENDCHAR
STARTCHAR B154
ENCODING 13158
SWIDTH 1600 0
DWIDTH 16 0
BBX 12 15 2 -3
BITMAP
0020
8020
83E0
8020
8020
83E0
8020
FC20
0020
1040
1040
1840
28A0
6530
8200
ENDCHAR
STARTCHAR B155
ENCODING 13159
SWIDTH 1600 0
DWIDTH 16 0
BBX 12 15 2 -3
BITMAP
8010
8010
81F0
8010
8010
81F0
8E10
7010
0010
0000
1FC0
6030
4010
6030
1FC0
ENDCHAR
STARTCHAR B158
ENCODING 13160
SWIDTH 1600 0
DWIDTH 16 0
BBX 12 15 2 -3
BITMAP
0010
8010
81F0
8010
8010
81F0
8E10
7010
0010
0000
3FF0
0010
7F10
0020
0020
ENDCHAR
STARTCHAR B15C
ENCODING 13161
SWIDTH 1600 0
DWIDTH 16 0
BBX 12 15 2 -3
BITMAP
0010
8090
8090
8090
8790
8090
8090
8090
8790
8090
9C90
E090
0090
0090
0090
ENDCHAR
STARTCHAR B160
ENCODING 13162
SWIDTH 1600 0
DWIDTH 16 0
BBX 12 14 2 -2
BITMAP
0010
8090
8090
8790
8090
8790
8090
8490
F890
4090
4090
4000
4000
7FF0
ENDCHAR
STARTCHAR B178
ENCODING 13163
SWIDTH 1600 0
DWIDTH 16 0
BBX 15 11 0 -1
BITMAP
1000
1000
1000
1000
1FFC
0000
0100
0100
0100
0100
FFFE
ENDCHAR
STARTCHAR B179
ENCODING 13164
SWIDTH 1600 0
DWIDTH 16 0
BBX 15 15 1 -3
BITMAP
2000
2000
2000
2000
3FF8
0100
0100
FFFE
0000
0000
7FF0
0010
0010
0010
0010
ENDCHAR
STARTCHAR B17C
ENCODING 13165
SWIDTH 1600 0
DWIDTH 16 0
BBX 15 14 0 -2
BITMAP
1000
1000
1000
1000
1FF8
0100
0100
FFFE
0000
1000
1000
1000
1000
1FFC
ENDCHAR
STARTCHAR B180
ENCODING 13166
SWIDTH 1600 0
DWIDTH 16 0
BBX 15 14 0 -2
BITMAP
1000
1000
1000
1FF8
0100
0100
FFFE
0000
0000
1FF8
0008
1FF8
1000
1FFC
ENDCHAR
STARTCHAR B182
ENCODING 13167
SWIDTH 1600 0
DWIDTH 16 0
BBX 15 15 0 -3
BITMAP
1000
1000
1000
1FF8
0100
0100
FFFE
0000
0000
3EF8
0288
1E88
1088
10F8
1E88
ENDCHAR
STARTCHAR B188
ENCODING 13168
SWIDTH 1600 0
DWIDTH 16 0
BBX 15 15 0 -3
BITMAP
1000
1000
1000
1FF8
0100
0100
0100
FFFE
0000
0000
1FF8
1008
1008
1FF8
1008
ENDCHAR
STARTCHAR B189
ENCODING 13169
SWIDTH 1600 0
DWIDTH 16 0
BBX 15 15 0 -3
BITMAP
1000
1000
1000
1FF8
0100
0100
0100
FFFE
1008
1008
1FF8
1008
1008
1FF8
1008
ENDCHAR
STARTCHAR B18B
ENCODING 13170
SWIDTH 1600 0
DWIDTH 16 0
BBX 15 14 1 -2
BITMAP
2000
2000
2000
3FF8
0100
0100
0100
FFFE
0000
0100
0300
0780
08C0
3030
ENDCHAR
STARTCHAR B18D
ENCODING 13171
SWIDTH 1600 0
DWIDTH 16 0
BBX 15 15 0 -3
BITMAP
1000
1000
1000
1000
1FF8
0100
0100
FFFE
0000
0380
1C70
2008
2008
1C70
0380
ENDCHAR
STARTCHAR B192
ENCODING 13172
SWIDTH 1600 0
DWIDTH 16 0
BBX 15 14 0 -2
BITMAP
1000
1000
1000
1FF8
0100
0100
0100
FFFE
0000
1FF8
0420
0420
0220
1FFC
ENDCHAR
STARTCHAR B193
ENCODING 13173
SWIDTH 1600 0
DWIDTH 16 0
BBX 15 14 0 -2
BITMAP
1000
1000
1000
1FFC
0100
0100
FFFE
0000
03C0
3FFC
0000
1FF8
2004
1FF8
ENDCHAR
STARTCHAR B194
ENCODING 13174
SWIDTH 1600 0
DWIDTH 16 0
BBX 14 15 2 -3
BITMAP
0020
4020
4020
4020
4020
7F20
0820
083C
0820
1FA0
E020
0020
0020
0020
0020
ENDCHAR
STARTCHAR B198
ENCODING 13175
SWIDTH 1600 0
DWIDTH 16 0
BBX 14 14 2 -2
BITMAP
0020
8020
8020
8020
FF20
0820
083C
1FE0
E020
0020
4020
4020
4000
7FE0
ENDCHAR
STARTCHAR B19C
ENCODING 13176
SWIDTH 1600 0
DWIDTH 16 0
BBX 16 14 0 -2
BITMAP
0008
2008
2008
2008
3F88
040F
0408
FFE8
0000
1FF8
0008
1FF8
1000
1FF8
ENDCHAR
STARTCHAR B1A8
ENCODING 13177
SWIDTH 1600 0
DWIDTH 16 0
BBX 15 15 1 -3
BITMAP
0010
4010
4010
4010
7F90
081E
0810
FFD0
0010
0020
0820
0820
1450
3298
4100
ENDCHAR
STARTCHAR B1CC
ENCODING 13178
SWIDTH 1600 0
DWIDTH 16 0
BBX 13 15 1 -3
BITMAP
0008
2008
2008
2008
2008
3FC8
0408
0408
0408
0408
FFE8
0008
0008
0008
0008
ENDCHAR
STARTCHAR B1D0
ENCODING 13179
SWIDTH 1600 0
DWIDTH 16 0
BBX 13 14 1 -2
BITMAP
0008
2008
2008
2008
2008
3F88
0408
0408
05E8
FA08
1008
1000
1000
1FF8
ENDCHAR
STARTCHAR B1D4
ENCODING 13180
SWIDTH 1600 0
DWIDTH 16 0
BBX 13 14 1 -2
BITMAP
0008
2008
2008
2008
3F88
0408
0428
FFC8
0000
1FF8
0008
1FF8
1000
1FF8
ENDCHAR
STARTCHAR B1DC
ENCODING 13181
SWIDTH 1600 0
DWIDTH 16 0
BBX 13 15 1 -3
BITMAP
0008
2008
2008
2008
3F88
0408
0408
FFE8
0008
0000
1FF8
1008
1008
1FF8
1008
ENDCHAR
STARTCHAR B1DD
ENCODING 13182
SWIDTH 1600 0
DWIDTH 16 0
BBX 12 15 2 -3
BITMAP
0010
4010
4010
4010
7F10
0810
0810
FFD0
0000
2010
2010
3FF0
2010
3FF0
2010
ENDCHAR
STARTCHAR B1DF
ENCODING 13345
SWIDTH 1600 0
DWIDTH 16 0
BBX 13 15 1 -3
BITMAP
2008
2008
2008
2008
3F88
0408
0408
FFC8
0008
0008
0088
0180
0140
0630
1808
ENDCHAR
STARTCHAR B1E8
ENCODING 13346
SWIDTH 1600 0
DWIDTH 16 0
BBX 15 12 0 -1
BITMAP
1000
1000
1000
1000
1000
1FFC
0000
0000
0420
0420
0420
FFFE
ENDCHAR
STARTCHAR B1E9
ENCODING 13347
SWIDTH 1600 0
DWIDTH 16 0
BBX 15 15 1 -3
BITMAP
2000
2000
2000
3FF8
0000
0840
0840
FFFE
0000
0000
7FF0
0010
0010
0010
0010
ENDCHAR
STARTCHAR B1EC
ENCODING 13348
SWIDTH 1600 0
DWIDTH 16 0
BBX 16 14 0 -2
BITMAP
1000
1000
1000
1000
1FFC
0420
0420
FFFF
0000
1000
1000
1000
1000
1FFC
ENDCHAR
STARTCHAR B1F0
ENCODING 13349
SWIDTH 1600 0
DWIDTH 16 0
BBX 16 14 0 -2
BITMAP
1000
1000
1000
1000
1FFC
0420
FFFF
0000
0000
1FF8
0008
1FF8
1000
1FFC
ENDCHAR
STARTCHAR B1F9
ENCODING 13350
SWIDTH 1600 0
DWIDTH 16 0
BBX 16 15 0 -3
BITMAP
1000
1000
1000
1FF8
0000
0420
0420
FFFF
0000
1008
1008
1FF8
1008
1FF8
1008
ENDCHAR
STARTCHAR B1FB
ENCODING 13351
SWIDTH 1600 0
DWIDTH 16 0
BBX 15 14 1 -2
BITMAP
2000
2000
2000
2000
3FF0
0840
0840
0840
FFFE
0100
0300
0480
0860
7010
ENDCHAR
STARTCHAR B1FD
ENCODING 13352
SWIDTH 1600 0
DWIDTH 16 0
BBX 15 14 1 -2
BITMAP
2000
2000
2000
3FF8
0000
0840
0840
FFFE
0000
0F80
7070
4010
6030
1FE0
ENDCHAR
STARTCHAR B204
ENCODING 13353
SWIDTH 1600 0
DWIDTH 16 0
BBX 15 15 0 -3
BITMAP
1000
1000
1000
1000
1FFC
0000
0000
FFFE
0100
0100
0100
0100
0100
0100
0100
ENDCHAR
STARTCHAR B205
ENCODING 13354
SWIDTH 1600 0
DWIDTH 16 0
BBX 15 15 1 -3
BITMAP
2000
2000
2000
3FF8
0000
0000
FFFE
0100
0100
0100
3FF0
0010
0010
0010
0010
ENDCHAR
STARTCHAR B208
ENCODING 13355
SWIDTH 1600 0
DWIDTH 16 0
BBX 15 14 0 -2
BITMAP
1000
1000
1000
1000
1FFC
0000
0000
FFFE
0100
0100
1100
1100
1000
1FFC
ENDCHAR
STARTCHAR B20B
ENCODING 13356
SWIDTH 1600 0
DWIDTH 16 0
BBX 15 14 0 -2
BITMAP
1000
1000
1000
1FFC
0000
0000
FFFE
0100
0100
0000
1FFC
1000
1000
1FFC
ENDCHAR
STARTCHAR B20C
ENCODING 13357
SWIDTH 1600 0
DWIDTH 16 0
BBX 15 14 0 -2
BITMAP
1000
1000
1000
1000
1FFC
0000
FFFE
0100
0100
1FF8
0008
1FF8
1000
1FFC
ENDCHAR
STARTCHAR B214
ENCODING 13358
SWIDTH 1600 0
DWIDTH 16 0
BBX 15 15 0 -3
BITMAP
1000
1000
1000
1000
1FFC
0000
0000
FFFE
0100
0100
1FF8
1008
1008
1FF8
1008
ENDCHAR
STARTCHAR B215
ENCODING 13359
SWIDTH 1600 0
DWIDTH 16 0
BBX 15 15 0 -3
BITMAP
1000
1000
1000
1FFC
0000
0000
FFFE
0100
0100
1108
1008
1FF8
1008
1FF8
1008
ENDCHAR
STARTCHAR B217
ENCODING 13360
SWIDTH 1600 0
DWIDTH 16 0
BBX 15 14 0 -2
BITMAP
1000
1000
1000
1000
1FFC
0000
0000
FFFE
0100
0100
0180
0180
0660
181C
ENDCHAR
STARTCHAR B219
ENCODING 13361
SWIDTH 1600 0
DWIDTH 16 0
BBX 15 14 0 -2
BITMAP
1000
1000
1000
1000
1FFC
0000
0000
FFFE
0100
1FF0
300C
2004
300C
0FF0
ENDCHAR
STARTCHAR B220
ENCODING 13362
SWIDTH 1600 0
DWIDTH 16 0
BBX 13 15 1 -3
BITMAP
2008
2008
2008
2008
3FC8
0008
0008
FFC8
0408
0408
04F8
0408
0408
0408
0008
ENDCHAR
STARTCHAR B234
ENCODING 13363
SWIDTH 1600 0
DWIDTH 16 0
BBX 13 15 1 -3
BITMAP
0008
2008
2008
2008
3FC8
0008
FFC8
0408
0478
0008
0410
0410
0A30
1148
2080
ENDCHAR
STARTCHAR B23C
ENCODING 13364
SWIDTH 1600 0
DWIDTH 16 0
BBX 13 15 1 -3
BITMAP
0048
2048
2048
2048
2048
3F48
0048
0048
FF48
0848
0BC8
0848
0848
0848
0008
ENDCHAR
STARTCHAR B258
ENCODING 13365
SWIDTH 1600 0
DWIDTH 16 0
BBX 13 15 1 -3
BITMAP
2008
2008
2008
2008
3FC8
0008
0008
0008
FFE8
0408
0408
0408
0408
0408
0008
ENDCHAR
STARTCHAR B25C
ENCODING 13366
SWIDTH 1600 0
DWIDTH 16 0
BBX 14 14 1 -2
BITMAP
0008
2008
2008
2008
3FC8
0008
0028
FFC8
0408
0408
1408
1000
1000
1FFC
ENDCHAR
STARTCHAR B260
ENCODING 13367
SWIDTH 1600 0
DWIDTH 16 0
BBX 14 14 1 -2
BITMAP
0008
2008
2008
3FC8
0008
FFE8
0408
0408
0000
1FF8
0008
1FF8
1000
1FFC
ENDCHAR
STARTCHAR B268
ENCODING 13368
SWIDTH 1600 0
DWIDTH 16 0
BBX 13 15 1 -3
BITMAP
0008
2008
2008
2008
3FC8
0008
FFC8
0408
0408
0000
1FF8
1008
1008
1FF8
1008
ENDCHAR
STARTCHAR B269
ENCODING 13369
SWIDTH 1600 0
DWIDTH 16 0
BBX 13 15 1 -3
BITMAP
0008
2008
2008
2008
3FC8
0008
0008
FFC8
0408
1408
1008
1FF8
1008
1FF8
1008
ENDCHAR
STARTCHAR B274
ENCODING 13370
SWIDTH 1600 0
DWIDTH 16 0
BBX 14 15 1 -3
BITMAP
2000
2000
2000
2000
3FF8
0000
0000
FFFC
0840
0840
0840
0840
0840
0840
0840
ENDCHAR
STARTCHAR B275
ENCODING 13371
SWIDTH 1600 0
DWIDTH 16 0
BBX 14 15 1 -3
BITMAP
2000
2000
2000
3FF8
0000
0000
FFFC
0840
0840
0840
7FF0
0010
0010
0010
0010
ENDCHAR
STARTCHAR B27C
ENCODING 13372
SWIDTH 1600 0
DWIDTH 16 0
BBX 16 14 0 -2
BITMAP
1000
1000
1000
1000
1FFC
0000
FFFF
0420
0420
1FF8
0008
1FF8
1000
1FFC
ENDCHAR
STARTCHAR B284
ENCODING 13373
SWIDTH 1600 0
DWIDTH 16 0
BBX 14 15 1 -3
BITMAP
2000
2000
2000
3FF8
0000
0000
FFFC
0840
0840
0000
3FF0
2010
2010
3FF0
2010
ENDCHAR
STARTCHAR B285
ENCODING 13374
SWIDTH 1600 0
DWIDTH 16 0
BBX 16 15 0 -3
BITMAP
1000
1000
1000
1FFC
0000
0000
FFFF
0420
0420
1428
1008
1FF8
1008
1FF8
1008
ENDCHAR
STARTCHAR B289
ENCODING 13375
SWIDTH 1600 0
DWIDTH 16 0
BBX 14 15 1 -3
BITMAP
2000
2000
2000
2000
3FF8
0000
0000
FFFC
0840
0840
1FA0
6018
4008
6018
1FE0
ENDCHAR
STARTCHAR B290
ENCODING 13376
SWIDTH 1600 0
DWIDTH 16 0
BBX 14 12 1 -1
BITMAP
2000
2000
2000
2000
2000
3FF8
0000
0000
0000
0000
0000
FFFC
ENDCHAR
STARTCHAR B291
ENCODING 13377
SWIDTH 1600 0
DWIDTH 16 0
BBX 14 15 1 -3
BITMAP
2000
2000
2000
2000
3FF8
0000
0000
FFFC
0000
7FF0
0010
0010
0010
0010
0010
ENDCHAR
STARTCHAR B294
ENCODING 13378
SWIDTH 1600 0
DWIDTH 16 0
BBX 14 13 1 -2
BITMAP
2000
2000
2000
3FF8
0000
0000
FFFC
0000
2000
2000
2000
2000
3FF8
ENDCHAR
STARTCHAR B298
ENCODING 13379
SWIDTH 1600 0
DWIDTH 16 0
BBX 14 14 1 -2
BITMAP
2000
2000
2000
2000
3FF8
0000
0000
FFFC
0000
3FF0
0010
3FF0
2000
3FF8
ENDCHAR
STARTCHAR B299
ENCODING 13380
SWIDTH 1600 0
DWIDTH 16 0
BBX 14 15 1 -3
BITMAP
2000
2000
2000
2000
3FF8
0000
FFFC
0000
0000
3FF0
0210
3E10
2010
2610
1810
ENDCHAR
STARTCHAR B29A
ENCODING 13381
SWIDTH 1600 0
DWIDTH 16 0
BBX 14 15 1 -3
BITMAP
2000
2000
2000
3FF8
0000
0000
FFFC
0000
0000
3DF0
0510
3D10
2110
3FF0
0110
ENDCHAR
STARTCHAR B2A0
ENCODING 13382
SWIDTH 1600 0
DWIDTH 16 0
BBX 14 15 1 -3
BITMAP
2000
2000
2000
2000
3FF8
0000
0000
FFFC
0000
0000
3FF0
2010
2010
3FF0
2010
ENDCHAR
STARTCHAR B2A1
ENCODING 13383
SWIDTH 1600 0
DWIDTH 16 0
BBX 14 15 1 -3
BITMAP
2000
2000
2000
2000
3FF8
0000
0000
FFFC
0010
2010
3FF0
2010
2010
3FF0
2010
ENDCHAR
STARTCHAR B2A3
ENCODING 13384
SWIDTH 1600 0
DWIDTH 16 0
BBX 14 14 1 -2
BITMAP
2000
2000
2000
2000
3FF0
0000
0000
FFFC
0000
0100
0300
0480
0840
3038
ENDCHAR
STARTCHAR B2A5
ENCODING 13385
SWIDTH 1600 0
DWIDTH 16 0
BBX 14 14 1 -2
BITMAP
2000
2000
2000
2000
3FF8
0000
0000
FFFC
0000
1FC0
6030
4010
6030
1FC0
ENDCHAR
STARTCHAR B2A6
ENCODING 13386
SWIDTH 1600 0
DWIDTH 16 0
BBX 14 14 1 -2
BITMAP
2000
2000
2000
2000
3FF8
0000
0000
FFFC
0000
3FF0
0300
0300
0CC0
7038
ENDCHAR
STARTCHAR B2AA
ENCODING 13387
SWIDTH 1600 0
DWIDTH 16 0
BBX 14 14 1 -2
BITMAP
2000
2000
2000
2000
3FF8
0000
0000
FFFC
0000
3FF0
0840
0880
0880
7FF8
ENDCHAR
STARTCHAR B2AC
ENCODING 13388
SWIDTH 1600 0
DWIDTH 16 0
BBX 12 15 2 -2
BITMAP
4010
4010
4010
4010
4010
7F90
0010
0010
0010
01D0
FE10
0010
0010
0010
0010
ENDCHAR
STARTCHAR B2B0
ENCODING 13389
SWIDTH 1600 0
DWIDTH 16 0
BBX 13 14 2 -2
BITMAP
4010
4010
4010
4010
7F90
0010
0010
0010
FFD0
0010
2010
2000
2000
3FF8
ENDCHAR
STARTCHAR B2B4
ENCODING 13390
SWIDTH 1600 0
DWIDTH 16 0
BBX 12 14 3 -2
BITMAP
0020
8020
8020
8020
FF20
0020
03A0
FC20
0000
7FE0
0020
7FE0
4000
7FF0
ENDCHAR
STARTCHAR B2C8
ENCODING 13391
SWIDTH 1600 0
DWIDTH 16 0
BBX 12 15 2 -3
BITMAP
0010
8010
8010
8010
8010
8010
8010
8010
8090
FF10
0010
0010
0010
0010
0010
ENDCHAR
STARTCHAR B2C9
ENCODING 13392
SWIDTH 1600 0
DWIDTH 16 0
BBX 12 15 2 -3
BITMAP
0010
8010
8010
8010
8010
8010
8390
FC10
0010
7FF0
0010
0010
0010
0010
0010
ENDCHAR
STARTCHAR B2CC
ENCODING 13393
SWIDTH 1600 0
DWIDTH 16 0
BBX 12 14 2 -2
BITMAP
0010
8010
8010
8010
8010
8010
8090
FF10
0010
0010
4010
4000
4000
7FF0
ENDCHAR
STARTCHAR B2D0
ENCODING 13394
SWIDTH 1600 0
DWIDTH 16 0
BBX 12 14 2 -2
BITMAP
0010
8010
8010
8010
8010
8010
FF90
0010
7FF0
0010
0010
7FF0
4000
7FF0
ENDCHAR
ENDFONT
